<svg width="198" height="90" viewBox="0 0 198 90" fill="none" xmlns="http://www.w3.org/2000/svg">
<path d="M49.0137 66H21.9727C19.0625 66 16.416 65.4531 14.0332 64.3594C11.6504 63.2656 9.60938 61.7715 7.91016 59.877C6.23047 57.9824 4.93164 55.7559 4.01367 53.1973C3.0957 50.6387 2.63672 47.9043 2.63672 44.9941C2.63672 42.1035 3.0957 39.3887 4.01367 36.8496C4.93164 34.291 6.23047 32.0645 7.91016 30.1699C9.60938 28.2559 11.6504 26.752 14.0332 25.6582C16.416 24.5449 19.0625 23.9883 21.9727 23.9883H49.0137V29.9941H21.9727C19.9023 29.9941 18.0371 30.3945 16.377 31.1953C14.7363 31.9766 13.3398 33.0508 12.1875 34.418C11.0547 35.7656 10.1758 37.3477 9.55078 39.1641C8.94531 40.9805 8.64258 42.9238 8.64258 44.9941C8.64258 47.0645 8.94531 49.0176 9.55078 50.8535C10.1758 52.6699 11.0547 54.2617 12.1875 55.6289C13.3398 56.9766 14.7363 58.041 16.377 58.8223C18.0371 59.6035 19.9023 59.9941 21.9727 59.9941H49.0137V66Z" fill="#03d4d9"/>
<path d="M114.416 53.9883C114.416 55.668 114.104 57.2402 113.479 58.7051C112.854 60.1504 111.994 61.4199 110.9 62.5137C109.826 63.5879 108.557 64.4375 107.092 65.0625C105.646 65.6875 104.094 66 102.434 66H65.9297V59.9941H102.434C103.273 59.9941 104.055 59.8379 104.777 59.5254C105.5 59.2129 106.125 58.7832 106.652 58.2363C107.199 57.6895 107.629 57.0547 107.941 56.332C108.254 55.5898 108.41 54.8086 108.41 53.9883C108.41 53.168 108.254 52.3965 107.941 51.6738C107.629 50.9512 107.199 50.3164 106.652 49.7695C106.125 49.2227 105.5 48.793 104.777 48.4805C104.055 48.168 103.273 48.0117 102.434 48.0117H77.9414C76.3008 48.0117 74.748 47.6992 73.2832 47.0742C71.8184 46.4492 70.5391 45.5996 69.4453 44.5254C68.3711 43.4316 67.5117 42.1523 66.8672 40.6875C66.2422 39.2227 65.9297 37.6602 65.9297 36C65.9297 34.3594 66.2422 32.8066 66.8672 31.3418C67.5117 29.877 68.3711 28.6074 69.4453 27.5332C70.5391 26.4395 71.8184 25.5801 73.2832 24.9551C74.748 24.3105 76.3008 23.9883 77.9414 23.9883H111.428V29.9941H77.9414C77.1211 29.9941 76.3398 30.1504 75.5977 30.4629C74.875 30.7754 74.2402 31.2051 73.6934 31.752C73.1465 32.2988 72.7168 32.9434 72.4043 33.6855C72.0918 34.4082 71.9355 35.1797 71.9355 36C71.9355 36.8203 72.0918 37.6016 72.4043 38.3438C72.7168 39.0664 73.1465 39.7012 73.6934 40.248C74.2402 40.7949 74.875 41.2246 75.5977 41.5371C76.3398 41.8496 77.1211 42.0059 77.9414 42.0059H102.434C104.094 42.0059 105.646 42.3281 107.092 42.9727C108.557 43.5977 109.826 44.457 110.9 45.5508C111.994 46.625 112.854 47.8945 113.479 49.3594C114.104 50.8047 114.416 52.3477 114.416 53.9883Z" fill="#03d4d9"/>
<path d="M140.52 36.62C139.293 36.62 138.167 36.32 137.14 35.72C136.113 35.12 135.3 34.3067 134.7 33.28C134.1 32.2533 133.8 31.1267 133.8 29.9C133.8 28.6733 134.1 27.5467 134.7 26.52C135.3 25.48 136.113 24.66 137.14 24.06C138.18 23.4467 139.307 23.14 140.52 23.14C141.507 23.14 142.447 23.3467 143.34 23.76C144.233 24.16 144.993 24.74 145.62 25.5L144.58 26.38C144.073 25.7933 143.46 25.34 142.74 25.02C142.033 24.6867 141.293 24.52 140.52 24.52C139.56 24.52 138.667 24.7667 137.84 25.26C137.027 25.74 136.38 26.3933 135.9 27.22C135.42 28.0467 135.18 28.94 135.18 29.9C135.18 30.86 135.42 31.7533 135.9 32.58C136.38 33.3933 137.027 34.04 137.84 34.52C138.667 35 139.56 35.24 140.52 35.24C141.293 35.24 142.033 35.08 142.74 34.76C143.46 34.4267 144.073 33.9667 144.58 33.38L145.62 34.26C144.993 35.0067 144.233 35.5867 143.34 36C142.447 36.4133 141.507 36.62 140.52 36.62ZM148.778 23.2V36.5H147.418V23.2H148.778ZM152.017 32.24C152.177 33.0933 152.597 33.8067 153.277 34.38C153.957 34.94 154.737 35.22 155.617 35.22C156.271 35.22 156.871 35.0667 157.417 34.76C157.964 34.4533 158.404 34.0333 158.737 33.5L159.917 34.18C159.464 34.9133 158.857 35.5 158.097 35.94C157.337 36.38 156.511 36.6 155.617 36.6C154.711 36.6 153.871 36.3733 153.097 35.92C152.324 35.4667 151.711 34.8533 151.257 34.08C150.804 33.3067 150.577 32.4667 150.577 31.56C150.577 30.64 150.804 29.8 151.257 29.04C151.711 28.2667 152.324 27.6533 153.097 27.2C153.871 26.7467 154.711 26.52 155.617 26.52C156.524 26.52 157.364 26.7467 158.137 27.2C158.911 27.6533 159.524 28.2667 159.977 29.04C160.431 29.8 160.657 30.64 160.657 31.56C160.657 31.72 160.644 31.9467 160.617 32.24H152.017ZM155.617 27.88C155.031 27.88 154.457 28.02 153.897 28.3C153.337 28.5667 152.884 28.94 152.537 29.42C152.191 29.8867 152.017 30.3933 152.017 30.94H159.217C159.217 30.3933 159.044 29.8867 158.697 29.42C158.351 28.94 157.897 28.5667 157.337 28.3C156.791 28.02 156.217 27.88 155.617 27.88ZM172.162 26.76V36.5H170.782V34.66C169.862 35.9533 168.635 36.6 167.102 36.6C166.182 36.6 165.335 36.38 164.562 35.94C163.788 35.4867 163.175 34.8733 162.722 34.1C162.282 33.3267 162.062 32.4867 162.062 31.58C162.062 30.66 162.282 29.8133 162.722 29.04C163.175 28.2667 163.788 27.66 164.562 27.22C165.335 26.7667 166.182 26.54 167.102 26.54C168.048 26.54 168.822 26.74 169.422 27.14C170.035 27.5267 170.488 27.9467 170.782 28.4V26.76H172.162ZM167.102 35.24C167.768 35.24 168.382 35.08 168.942 34.76C169.502 34.4267 169.942 33.98 170.262 33.42C170.595 32.86 170.762 32.2467 170.762 31.58C170.762 30.9133 170.595 30.3 170.262 29.74C169.942 29.1667 169.502 28.72 168.942 28.4C168.382 28.0667 167.768 27.9 167.102 27.9C166.435 27.9 165.815 28.0667 165.242 28.4C164.682 28.72 164.235 29.1667 163.902 29.74C163.582 30.3 163.422 30.9133 163.422 31.58C163.422 32.2467 163.582 32.86 163.902 33.42C164.235 33.98 164.682 34.4267 165.242 34.76C165.815 35.08 166.435 35.24 167.102 35.24ZM178.116 26.5C178.836 26.5 179.496 26.68 180.096 27.04C180.71 27.3867 181.196 27.8667 181.556 28.48C181.916 29.08 182.096 29.74 182.096 30.46V36.5H180.716V30.46C180.716 29.9933 180.596 29.5667 180.356 29.18C180.13 28.78 179.816 28.4667 179.416 28.24C179.016 28 178.583 27.88 178.116 27.88C177.65 27.88 177.216 28 176.816 28.24C176.416 28.4667 176.096 28.78 175.856 29.18C175.63 29.5667 175.516 29.9933 175.516 30.46V36.5H174.156V26.76H175.516V27.64C175.85 27.2667 176.236 26.9867 176.676 26.8C177.13 26.6 177.61 26.5 178.116 26.5ZM141.48 57.06C141.413 56.5533 141.253 56.1133 141 55.74C140.48 54.94 139.62 54.54 138.42 54.54C137.42 54.54 136.693 54.7667 136.24 55.22C135.827 55.6467 135.62 56.2267 135.62 56.96C135.62 57.7733 135.847 58.3333 136.3 58.64C136.753 58.9467 137.387 59.1333 138.2 59.2C138.973 59.2667 139.627 59.3733 140.16 59.52C140.693 59.6533 141.14 59.84 141.5 60.08C142.447 60.6667 142.92 61.5867 142.92 62.84C142.92 63.3333 142.82 63.8 142.62 64.24C142.433 64.68 142.16 65.0733 141.8 65.42C140.987 66.22 139.873 66.62 138.46 66.62C137.033 66.62 135.907 66.2267 135.08 65.44C134.373 64.7867 133.947 63.9067 133.8 62.8H135.18C135.3 63.4667 135.58 64.0133 136.02 64.44C136.593 64.9733 137.413 65.24 138.48 65.24C139.387 65.24 140.12 65.02 140.68 64.58C141.253 64.1267 141.54 63.5467 141.54 62.84C141.54 62.3867 141.447 62.0133 141.26 61.72C141.087 61.4133 140.747 61.1667 140.24 60.98C139.733 60.7933 139.013 60.66 138.08 60.58C135.52 60.3533 134.24 59.1467 134.24 56.96C134.24 56.4133 134.327 55.9133 134.5 55.46C134.687 54.9933 134.947 54.5933 135.28 54.26C136.013 53.5267 137.053 53.16 138.4 53.16H138.42C139.793 53.1733 140.84 53.5533 141.56 54.3C142.293 55.0333 142.727 55.96 142.86 57.08H141.48V57.06ZM145.572 62.24C145.732 63.0933 146.152 63.8067 146.832 64.38C147.512 64.94 148.292 65.22 149.172 65.22C149.825 65.22 150.425 65.0667 150.972 64.76C151.519 64.4533 151.959 64.0333 152.292 63.5L153.472 64.18C153.019 64.9133 152.412 65.5 151.652 65.94C150.892 66.38 150.065 66.6 149.172 66.6C148.265 66.6 147.425 66.3733 146.652 65.92C145.879 65.4667 145.265 64.8533 144.812 64.08C144.359 63.3067 144.132 62.4667 144.132 61.56C144.132 60.64 144.359 59.8 144.812 59.04C145.265 58.2667 145.879 57.6533 146.652 57.2C147.425 56.7467 148.265 56.52 149.172 56.52C150.079 56.52 150.919 56.7467 151.692 57.2C152.465 57.6533 153.079 58.2667 153.532 59.04C153.985 59.8 154.212 60.64 154.212 61.56C154.212 61.72 154.199 61.9467 154.172 62.24H145.572ZM149.172 57.88C148.585 57.88 148.012 58.02 147.452 58.3C146.892 58.5667 146.439 58.94 146.092 59.42C145.745 59.8867 145.572 60.3933 145.572 60.94H152.772C152.772 60.3933 152.599 59.8867 152.252 59.42C151.905 58.94 151.452 58.5667 150.892 58.3C150.345 58.02 149.772 57.88 149.172 57.88ZM160.592 57.98C160.285 57.8467 159.978 57.78 159.672 57.78C159.045 57.78 158.505 58.0067 158.052 58.46C157.598 58.9133 157.372 59.4533 157.372 60.08V66.5H156.012V60.08C156.012 59.36 156.198 58.7067 156.572 58.12C156.958 57.52 157.458 57.0733 158.072 56.78L158.112 56.76C158.605 56.5333 159.125 56.42 159.672 56.42C160.525 56.42 161.285 56.68 161.952 57.2L160.592 57.98ZM172.281 56.54L168.341 66.5H166.881L162.941 56.54H164.401L167.621 64.6L170.821 56.54H172.281ZM174.978 53.72C175.218 53.72 175.425 53.8067 175.598 53.98C175.771 54.1533 175.858 54.36 175.858 54.6C175.858 54.8533 175.771 55.0667 175.598 55.24C175.425 55.4133 175.218 55.5 174.978 55.5C174.725 55.5 174.511 55.4133 174.338 55.24C174.165 55.0667 174.078 54.8533 174.078 54.6C174.078 54.36 174.165 54.1533 174.338 53.98C174.511 53.8067 174.725 53.72 174.978 53.72ZM175.658 56.5V66.5H174.278V56.5H175.658ZM185.942 64.82C185.462 65.38 184.888 65.82 184.222 66.14C183.568 66.4467 182.862 66.6 182.102 66.6C181.195 66.6 180.355 66.3733 179.582 65.92C178.808 65.4667 178.195 64.8533 177.742 64.08C177.288 63.3067 177.062 62.4667 177.062 61.56C177.062 60.6533 177.288 59.8133 177.742 59.04C178.195 58.2667 178.808 57.6533 179.582 57.2C180.355 56.7467 181.195 56.52 182.102 56.52C182.862 56.52 183.568 56.68 184.222 57C184.888 57.3067 185.462 57.74 185.942 58.3L184.722 59C184.388 58.6533 183.995 58.3867 183.542 58.2C183.088 58 182.608 57.9 182.102 57.9C181.435 57.9 180.822 58.0667 180.262 58.4C179.702 58.72 179.255 59.16 178.922 59.72C178.588 60.28 178.422 60.8933 178.422 61.56C178.422 62.2267 178.588 62.84 178.922 63.4C179.255 63.96 179.702 64.4067 180.262 64.74C180.822 65.06 181.435 65.22 182.102 65.22C182.608 65.22 183.088 65.1267 183.542 64.94C183.995 64.74 184.388 64.4667 184.722 64.12L185.942 64.82ZM188.385 62.24C188.545 63.0933 188.965 63.8067 189.645 64.38C190.325 64.94 191.105 65.22 191.985 65.22C192.638 65.22 193.238 65.0667 193.785 64.76C194.331 64.4533 194.771 64.0333 195.105 63.5L196.285 64.18C195.831 64.9133 195.225 65.5 194.465 65.94C193.705 66.38 192.878 66.6 191.985 66.6C191.078 66.6 190.238 66.3733 189.465 65.92C188.691 65.4667 188.078 64.8533 187.625 64.08C187.171 63.3067 186.945 62.4667 186.945 61.56C186.945 60.64 187.171 59.8 187.625 59.04C188.078 58.2667 188.691 57.6533 189.465 57.2C190.238 56.7467 191.078 56.52 191.985 56.52C192.891 56.52 193.731 56.7467 194.505 57.2C195.278 57.6533 195.891 58.2667 196.345 59.04C196.798 59.8 197.025 60.64 197.025 61.56C197.025 61.72 197.011 61.9467 196.985 62.24H188.385ZM191.985 57.88C191.398 57.88 190.825 58.02 190.265 58.3C189.705 58.5667 189.251 58.94 188.905 59.42C188.558 59.8867 188.385 60.3933 188.385 60.94H195.585C195.585 60.3933 195.411 59.8867 195.065 59.42C194.718 58.94 194.265 58.5667 193.705 58.3C193.158 58.02 192.585 57.88 191.985 57.88Z" fill="#03d4d9"/>
</svg>
