<svg width="175" height="34" viewBox="0 0 175 34" fill="none" xmlns="http://www.w3.org/2000/svg">
<path fill-rule="evenodd" clip-rule="evenodd" d="M21.9925 0.744895C20.4138 0.260619 18.7374 0 17 0C7.61116 0 0 7.61116 0 17C0 26.3888 7.61116 34 17 34C26.3888 34 34 26.3888 34 17C34 11.4973 31.3856 6.60523 27.3311 3.49821L24.2912 8.76343C26.5661 10.7787 28 13.7219 28 17C28 23.0751 23.0751 28 17 28C10.9249 28 6 23.0751 6 17C6 10.9249 10.9249 6 17 6C17.6365 6 18.2604 6.05406 18.8673 6.15785L21.9925 0.744895Z" fill="#0F67FE"/>
<path d="M44.28 24.7219C42.2 24.7219 40.4667 24.0286 39.08 22.6419C37.6933 21.2553 37 19.5653 37 17.5719C37 15.5786 37.702 13.8886 39.106 12.5019C40.51 11.0979 42.252 10.3959 44.332 10.3959C46.412 10.3959 48.1453 11.0893 49.532 12.4759C50.936 13.8626 51.638 15.5613 51.638 17.5719C51.638 19.5479 50.936 21.2379 49.532 22.6419C48.128 24.0286 46.3773 24.7219 44.28 24.7219ZM44.332 21.9919C45.58 21.9919 46.5853 21.5673 47.348 20.7179C48.1107 19.8686 48.492 18.8199 48.492 17.5719C48.492 16.3413 48.0933 15.3013 47.296 14.4519C46.4987 13.5853 45.4933 13.1519 44.28 13.1519C43.0493 13.1519 42.0527 13.5766 41.29 14.4259C40.5273 15.2753 40.146 16.3239 40.146 17.5719C40.146 18.7853 40.5447 19.8253 41.342 20.6919C42.1393 21.5586 43.136 21.9919 44.332 21.9919Z" fill="white"/>
<path d="M54.5819 28.5699V10.6819H57.7279V12.9699C58.9412 11.2539 60.4926 10.3959 62.3819 10.3959C64.1152 10.3959 65.6146 11.0459 66.8799 12.3459C68.1452 13.6286 68.7779 15.3706 68.7779 17.5719C68.7779 19.7386 68.1452 21.4719 66.8799 22.7719C65.6146 24.0546 64.1152 24.6959 62.3819 24.6959C60.4926 24.6959 58.9412 23.8899 57.7279 22.2779V28.5699H54.5819ZM61.6539 21.9659C62.7632 21.9659 63.6906 21.5586 64.4359 20.7439C65.1986 19.9293 65.5799 18.8546 65.5799 17.5199C65.5799 16.2199 65.1986 15.1626 64.4359 14.3479C63.6732 13.5333 62.7459 13.1259 61.6539 13.1259C60.5619 13.1259 59.6172 13.5419 58.8199 14.3739C58.0399 15.2059 57.6499 16.2719 57.6499 17.5719C57.6499 18.8546 58.0399 19.9119 58.8199 20.7439C59.6172 21.5586 60.5619 21.9659 61.6539 21.9659Z" fill="white"/>
<path d="M76.3419 24.6439C73.7072 24.6439 72.3899 23.3006 72.3899 20.6139V13.3859H70.6479V10.6819H72.3899V6.91193H75.5359V10.6819H79.2279V13.3859H75.5359V20.1199C75.5359 21.2639 76.0992 21.8359 77.2259 21.8359C77.9019 21.8359 78.5519 21.6799 79.1759 21.3679V23.9419C78.3439 24.4099 77.3992 24.6439 76.3419 24.6439Z" fill="white"/>
<path d="M82.1959 8.57593V5.58593H85.5759V8.57593H82.1959ZM82.3259 24.4099V10.6819H85.4719V24.4099H82.3259Z" fill="white"/>
<path d="M93.9254 24.6439C91.2907 24.6439 89.9734 23.3006 89.9734 20.6139V13.3859H88.2314V10.6819H89.9734V6.91193H93.1194V10.6819H96.8114V13.3859H93.1194V20.1199C93.1194 21.2639 93.6827 21.8359 94.8094 21.8359C95.4854 21.8359 96.1354 21.6799 96.7594 21.3679V23.9419C95.9274 24.4099 94.9827 24.6439 93.9254 24.6439Z" fill="white"/>
<path d="M105.639 24.7219C103.628 24.7219 101.947 24.0546 100.595 22.7199C99.2599 21.3853 98.5926 19.6606 98.5926 17.5459C98.5926 15.5526 99.2252 13.8626 100.491 12.4759C101.756 11.0893 103.359 10.3959 105.301 10.3959C107.381 10.3959 108.993 11.1066 110.137 12.5279C111.298 13.9319 111.879 15.6826 111.879 17.7799C111.879 18.1613 111.861 18.4559 111.827 18.6639H101.739C101.912 19.7559 102.354 20.6139 103.065 21.2379C103.775 21.8446 104.651 22.1479 105.691 22.1479C107.043 22.1479 108.282 21.6019 109.409 20.5099L111.255 22.1479C109.833 23.8639 107.961 24.7219 105.639 24.7219ZM101.713 16.5839H108.759C108.655 15.5266 108.299 14.6599 107.693 13.9839C107.086 13.3079 106.28 12.9699 105.275 12.9699C104.321 12.9699 103.524 13.3079 102.883 13.9839C102.241 14.6426 101.851 15.5093 101.713 16.5839Z" fill="white"/>
<path d="M121.122 24.7219C119.094 24.7219 117.404 24.0286 116.052 22.6419C114.7 21.2553 114.024 19.5653 114.024 17.5719C114.024 15.5959 114.7 13.9059 116.052 12.5019C117.421 11.0979 119.12 10.3959 121.148 10.3959C123.367 10.3959 125.195 11.1846 126.634 12.7619L124.684 14.8679C123.592 13.7239 122.405 13.1519 121.122 13.1519C119.995 13.1519 119.051 13.5853 118.288 14.4519C117.543 15.3013 117.17 16.3413 117.17 17.5719C117.17 18.8199 117.551 19.8686 118.314 20.7179C119.094 21.5673 120.082 21.9919 121.278 21.9919C122.543 21.9919 123.731 21.4199 124.84 20.2759L126.738 22.1479C125.993 22.9799 125.178 23.6213 124.294 24.0719C123.427 24.5053 122.37 24.7219 121.122 24.7219Z" fill="white"/>
<path d="M129.371 24.4099V5.42993H132.518V12.8139C133.61 11.2019 135.04 10.3959 136.808 10.3959C138.333 10.3959 139.529 10.8726 140.396 11.8259C141.262 12.7793 141.696 14.0619 141.696 15.6739V24.4099H138.549V16.6099C138.549 15.5353 138.29 14.7119 137.77 14.1399C137.267 13.5506 136.548 13.2559 135.612 13.2559C134.693 13.2559 133.948 13.5593 133.376 14.1659C132.804 14.7726 132.518 15.6046 132.518 16.6619V24.4099H129.371Z" fill="white"/>
<path d="M145.235 24.4099V10.6819H148.381V12.8139C149.473 11.2019 150.903 10.3959 152.671 10.3959C154.196 10.3959 155.392 10.8726 156.259 11.8259C157.125 12.7793 157.559 14.0619 157.559 15.6739V24.4099H154.413V16.6099C154.413 15.5353 154.153 14.7119 153.633 14.1399C153.13 13.5506 152.411 13.2559 151.475 13.2559C150.556 13.2559 149.811 13.5593 149.239 14.1659C148.667 14.7726 148.381 15.6046 148.381 16.6619V24.4099H145.235Z" fill="white"/>
<path d="M167.624 24.7219C165.544 24.7219 163.81 24.0286 162.424 22.6419C161.037 21.2553 160.344 19.5653 160.344 17.5719C160.344 15.5786 161.046 13.8886 162.45 12.5019C163.854 11.0979 165.596 10.3959 167.676 10.3959C169.756 10.3959 171.489 11.0893 172.876 12.4759C174.28 13.8626 174.982 15.5613 174.982 17.5719C174.982 19.5479 174.28 21.2379 172.876 22.6419C171.472 24.0286 169.721 24.7219 167.624 24.7219ZM167.676 21.9919C168.924 21.9919 169.929 21.5673 170.692 20.7179C171.454 19.8686 171.836 18.8199 171.836 17.5719C171.836 16.3413 171.437 15.3013 170.64 14.4519C169.842 13.5853 168.837 13.1519 167.624 13.1519C166.393 13.1519 165.396 13.5766 164.634 14.4259C163.871 15.2753 163.49 16.3239 163.49 17.5719C163.49 18.7853 163.888 19.8253 164.686 20.6919C165.483 21.5586 166.48 21.9919 167.676 21.9919Z" fill="white"/>
</svg>
