<svg width="95" height="90" fill="none" xmlns="http://www.w3.org/2000/svg"><mask id="a" style="mask-type:alpha" maskUnits="userSpaceOnUse" x="0" y="17" width="74" height="73"><path fill="#D9D9D9" d="M0 17.143h73.266V90H0z"/></mask><g mask="url(#a)"><path d="M32.921 82.762a6 6 0 0 1-5.953-5.255l-.542-4.33c-.65-.25-1.261-.549-1.835-.898a24.743 24.743 0 0 1-1.686-1.123l-4.048 1.7a6 6 0 0 1-7.515-2.525l-2.936-5.069a6 6 0 0 1 1.57-7.791l3.488-2.64a7.153 7.153 0 0 1-.075-1.01v-2.022c0-.325.025-.662.075-1.011l-3.487-2.64a6 6 0 0 1-1.571-7.791l2.936-5.069a6 6 0 0 1 7.515-2.524l4.048 1.7c.55-.4 1.124-.774 1.723-1.123.6-.35 1.199-.65 1.798-.899l.542-4.33a6 6 0 0 1 5.953-5.255h5.892a6 6 0 0 1 5.953 5.256l.542 4.329c.65.25 1.261.55 1.836.899.574.349 1.136.723 1.685 1.123l4.048-1.7a6 6 0 0 1 7.515 2.524l2.936 5.069a6 6 0 0 1-1.57 7.792l-3.488 2.639c.05.35.075.686.075 1.01v2.023c0 .324-.05.661-.15 1.01l3.487 2.64a6 6 0 0 1 1.571 7.792l-2.928 5.054a6 6 0 0 1-7.531 2.517l-3.965-1.678c-.55.399-1.124.773-1.723 1.123a15.1 15.1 0 0 1-1.798.898l-.542 4.33a6 6 0 0 1-5.953 5.255H32.92Zm-3.85-7.322a4 4 0 0 0 3.492 4.322l3.809.474a4 4 0 0 0 4.446-3.358l.843-5.45c1.549-.399 2.21-.51 3.534-1.283a17.907 17.907 0 0 0 3.634-2.808l2.902 1.896a4 4 0 0 0 5.228-.748l1.995-2.332a4 4 0 0 0-.693-5.84l-3.587-2.599c.25-.699.424-1.435.524-2.209.1-.773.15-1.56.15-2.358 0-.8-.05-1.585-.15-2.36-.1-.773-.275-1.51-.524-2.208l3.548-2.387a4 4 0 0 0 1.396-5.003l-1.211-2.61a4 4 0 0 0-5.263-1.966l-4.315 1.932a16.643 16.643 0 0 0-3.634-2.883 16.802 16.802 0 0 0-4.308-1.76l.992-2.532c.97-2.476-.7-5.191-3.346-5.442l-4.7-.445a4 4 0 0 0-4.332 4.583l.668 4.398c-1.549.4-2.985.986-4.309 1.76a17.91 17.91 0 0 0-3.634 2.808l-1.935-2.1c-1.849-2.006-5.118-1.614-6.44.771l-2.286 4.124c-1.393 2.515.242 5.634 3.102 5.92l1.869.186c-.25.748-.425 1.497-.524 2.246-.1.749-.15 1.548-.15 2.396 0 .799.05 1.573.15 2.322.1.748.274 1.497.524 2.246l-2.902 1.28a4 4 0 0 0-2.082 5.19l1.666 4.023a4 4 0 0 0 5.92 1.794l3.13-2.094c1.098 1.149 2.269 1.286 3.592 2.06 1.324.773 2.042 1.36 3.59 1.76l-.378 4.284Z" fill="url(#b)"/></g><path d="M46.407 52.858c0 5.754-4.693 10.428-10.493 10.428-5.8 0-10.493-4.674-10.493-10.428 0-5.755 4.693-10.43 10.493-10.43 5.8 0 10.493 4.675 10.493 10.43Z" stroke="url(#c)" stroke-width="2"/><mask id="d" style="mask-type:alpha" maskUnits="userSpaceOnUse" x="60" y="0" width="35" height="35"><path fill="#D9D9D9" d="M60.337 0H95v34.469H60.337z"/></mask><g mask="url(#d)"><path d="M77.306 31.045a4.417 4.417 0 0 1-4.383-3.87l-.084-.665a5.388 5.388 0 0 1-.868-.425 11.736 11.736 0 0 1-.798-.531l-.64.269a4.41 4.41 0 0 1-4.369-7.582l.543-.41a3.387 3.387 0 0 1-.036-.479v-.956c0-.154.012-.313.036-.479l-.543-.41a4.41 4.41 0 0 1 4.369-7.582l.64.27c.26-.19.532-.367.816-.532.283-.165.567-.307.85-.425l.084-.665a4.417 4.417 0 0 1 8.766 0l.083.665c.307.118.597.26.869.425.272.165.537.343.797.531l.641-.269a4.41 4.41 0 0 1 4.368 7.582l-.542.41c.023.166.035.325.035.479v.956c0 .154-.023.313-.07.479l.546.414a4.403 4.403 0 0 1-4.373 7.564l-.605-.255c-.26.189-.531.366-.815.531a7.147 7.147 0 0 1-.85.425l-.084.665a4.417 4.417 0 0 1-4.383 3.87Zm-3.135-4.366a2.83 2.83 0 0 0 5.616.682l.26-1.678c.733-.19 1.046-.242 1.672-.608a8.472 8.472 0 0 0 1.72-1.328l.828.541a2.632 2.632 0 0 0 2.984-4.335l-1.048-.758c.118-.331.201-.68.248-1.046a8.72 8.72 0 0 0 0-2.232 4.998 4.998 0 0 0-.248-1.045l1.155-.777a2.632 2.632 0 0 0-2.544-4.586l-1.376.616a7.872 7.872 0 0 0-1.719-1.364 7.95 7.95 0 0 0-2.038-.832l.055-.14a2.749 2.749 0 1 0-5.277-.59l.15.995a7.95 7.95 0 0 0-2.037.833 8.47 8.47 0 0 0-1.72 1.329l-.195-.212a2.66 2.66 0 0 0-4.283.514l-.135.243c-.863 1.557.15 3.489 1.921 3.666-.118.354-.2.708-.248 1.063-.047.354-.07.732-.07 1.133 0 .378.023.744.07 1.098.047.355.13.709.248 1.063l-.534.236a2.83 2.83 0 1 0 2.716 4.941l.53-.354c.52.543 1.073.608 1.7.974.626.366.965.644 1.698.833l-.1 1.125Z" fill="url(#e)"/></g><path d="M81.766 16.896c0 2.429-1.982 4.407-4.438 4.407-2.456 0-4.437-1.978-4.437-4.407 0-2.428 1.981-4.407 4.437-4.407 2.456 0 4.438 1.979 4.438 4.407Z" stroke="url(#f)" stroke-width="2"/><path d="M5.747 30V14.286c0-5.523 4.477-10 10-10h37.407" stroke="url(#g)" stroke-width="2" stroke-linecap="round"/><path d="M83.322 41.428v30c0 5.523-4.477 10-10 10H57.464" stroke="url(#h)" stroke-width="2" stroke-linecap="round"/><defs><linearGradient id="b" x1="5.747" y1="52.81" x2="65.987" y2="52.81" gradientUnits="userSpaceOnUse"><stop stop-color="#E3255E"/><stop offset=".445" stop-color="#FF2323"/><stop offset="1" stop-color="#E2CC00"/></linearGradient><linearGradient id="c" x1="24.421" y1="52.858" x2="47.407" y2="52.858" gradientUnits="userSpaceOnUse"><stop stop-color="#E3255E"/><stop offset=".445" stop-color="#FF2323"/><stop offset="1" stop-color="#E2CC00"/></linearGradient><linearGradient id="e" x1="63.056" y1="16.874" x2="91.556" y2="16.874" gradientUnits="userSpaceOnUse"><stop stop-color="#E3255E"/><stop offset=".445" stop-color="#FF2323"/><stop offset="1" stop-color="#E2CC00"/></linearGradient><linearGradient id="f" x1="71.891" y1="16.896" x2="82.766" y2="16.896" gradientUnits="userSpaceOnUse"><stop stop-color="#E3255E"/><stop offset=".445" stop-color="#FF2323"/><stop offset="1" stop-color="#E2CC00"/></linearGradient><linearGradient id="g" x1="5.747" y1="17.143" x2="53.154" y2="17.143" gradientUnits="userSpaceOnUse"><stop stop-color="#E3255E"/><stop offset=".445" stop-color="#FF2323"/><stop offset="1" stop-color="#E2CC00"/></linearGradient><linearGradient id="h" x1="83.322" y1="61.428" x2="57.464" y2="61.428" gradientUnits="userSpaceOnUse"><stop stop-color="#E3255E"/><stop offset=".445" stop-color="#FF2323"/><stop offset="1" stop-color="#E2CC00"/></linearGradient></defs></svg>