<svg width="91" height="90" fill="none" xmlns="http://www.w3.org/2000/svg"><path d="M64.547 45a18.992 18.992 0 0 0-5.495-13.385A18.99 18.99 0 0 0 45.5 25.952c-10.52 0-19.048 8.528-19.048 19.048 0 10.52 8.528 19.048 19.048 19.048 3.21 0 6.235-.795 8.889-2.197" stroke="url(#a)" stroke-width="2"/><path d="M75.976 45c0-4.08-.802-7.974-2.257-11.532a30.514 30.514 0 0 0-6.536-9.884c-5.525-5.594-13.2-9.06-21.683-9.06-16.832 0-30.477 13.645-30.477 30.476S28.668 75.476 45.5 75.476c5.136 0 9.976-1.27 14.222-3.515" stroke="url(#b)" stroke-width="2"/><path d="M85.5 45a39.883 39.883 0 0 0-2.963-15.135 40.05 40.05 0 0 0-8.578-12.973C66.707 9.55 56.635 5 45.5 5c-22.091 0-40 17.909-40 40s17.909 40 40 40a39.825 39.825 0 0 0 18.667-4.614" stroke="url(#c)" stroke-width="2"/><mask id="d" style="mask-type:alpha" maskUnits="userSpaceOnUse" x="55" y="45" width="31" height="31"><path fill="#D9D9D9" d="M55.023 45h30.476v30.476H55.023z"/></mask><g mask="url(#d)"><path d="M80.484 75.476 69.627 64.62l-3.174 9.587-7.62-25.396L84.23 56.43l-9.587 3.174L85.5 70.46l-5.016 5.016Z" fill="url(#e)"/></g><defs><linearGradient id="a" x1="26.452" y1="45" x2="64.547" y2="45" gradientUnits="userSpaceOnUse"><stop stop-color="#E3255E"/><stop offset=".445" stop-color="#FF2323"/><stop offset="1" stop-color="#E2CC00"/></linearGradient><linearGradient id="b" x1="15.023" y1="45" x2="75.976" y2="45" gradientUnits="userSpaceOnUse"><stop stop-color="#E3255E"/><stop offset=".445" stop-color="#FF2323"/><stop offset="1" stop-color="#E2CC00"/></linearGradient><linearGradient id="c" x1="5.5" y1="45" x2="85.5" y2="45" gradientUnits="userSpaceOnUse"><stop stop-color="#E3255E"/><stop offset=".445" stop-color="#FF2323"/><stop offset="1" stop-color="#E2CC00"/></linearGradient><linearGradient id="e" x1="58.834" y1="62.143" x2="85.5" y2="62.143" gradientUnits="userSpaceOnUse"><stop stop-color="#E3255E"/><stop offset=".445" stop-color="#FF2323"/><stop offset="1" stop-color="#E2CC00"/></linearGradient></defs></svg>