<svg width="57" height="57" viewBox="0 0 57 57" fill="none" xmlns="http://www.w3.org/2000/svg">
<path d="M54.8662 28.6901V5.91248C54.8662 3.91169 53.2341 2.29053 51.2197 2.29053H5.43904C3.42466 2.29053 1.7925 3.91169 1.7925 5.91248V46.8386C1.7925 48.8394 3.42466 50.4605 5.43904 50.4605H28.3303" stroke="url(#paint0_linear_902_347)" stroke-width="3" stroke-miterlimit="10"/>
<path d="M1.7925 11.7617H54.8662" stroke="url(#paint1_linear_902_347)" stroke-width="3" stroke-miterlimit="10"/>
<path d="M8.82037 21.3301H25.4112" stroke="url(#paint2_linear_902_347)" stroke-width="3" stroke-miterlimit="10"/>
<path d="M30.7581 21.3301H40.2937" stroke="url(#paint3_linear_902_347)" stroke-width="3" stroke-miterlimit="10"/>
<path d="M13.6954 31.208H35.5259" stroke="url(#paint4_linear_902_347)" stroke-width="3" stroke-miterlimit="10"/>
<path d="M8.82037 40.7686H13.6954" stroke="url(#paint5_linear_902_347)" stroke-width="3" stroke-miterlimit="10"/>
<path d="M18.3911 40.7686H27.798" stroke="url(#paint6_linear_902_347)" stroke-width="3" stroke-miterlimit="10"/>
<path d="M43.6634 38.7618V35.1902H46.1906V38.7618" fill="url(#paint7_linear_902_347)"/>
<path d="M43.6634 38.7618V35.1902H46.1906V38.7618" stroke="url(#paint8_linear_902_347)" stroke-width="2" stroke-miterlimit="10"/>
<path d="M46.1906 52.2346V55.8062H43.6634V52.2346" fill="url(#paint9_linear_902_347)"/>
<path d="M46.1906 52.2346V55.8062H43.6634V52.2346" stroke="url(#paint10_linear_902_347)" stroke-width="2" stroke-miterlimit="10"/>
<path d="M51.7092 44.2432H55.305V46.7533H51.7092" fill="url(#paint11_linear_902_347)"/>
<path d="M51.7092 44.2432H55.305V46.7533H51.7092" stroke="url(#paint12_linear_902_347)" stroke-width="2" stroke-miterlimit="10"/>
<path d="M38.1448 46.7533H34.549V44.2432H38.1448" fill="url(#paint13_linear_902_347)"/>
<path d="M38.1448 46.7533H34.549V44.2432H38.1448" stroke="url(#paint14_linear_902_347)" stroke-width="2" stroke-miterlimit="10"/>
<path d="M48.8231 39.9451L51.2743 37.3323L53.1229 39.0445L50.6717 41.6573" fill="url(#paint15_linear_902_347)"/>
<path d="M48.8231 39.9451L51.2743 37.3323L53.1229 39.0445L50.6717 41.6573" stroke="url(#paint16_linear_902_347)" stroke-width="2" stroke-miterlimit="10"/>
<path d="M41.0328 39.9451L38.5816 37.3323L36.733 39.0445L39.1842 41.6573" fill="url(#paint17_linear_902_347)"/>
<path d="M41.0328 39.9451L38.5816 37.3323L36.733 39.0445L39.1842 41.6573" stroke="url(#paint18_linear_902_347)" stroke-width="2" stroke-miterlimit="10"/>
<path d="M48.8231 51.0533L51.2743 53.6661L53.1229 51.9539L50.6717 49.3411" fill="url(#paint19_linear_902_347)"/>
<path d="M48.8231 51.0533L51.2743 53.6661L53.1229 51.9539L50.6717 49.3411" stroke="url(#paint20_linear_902_347)" stroke-width="2" stroke-miterlimit="10"/>
<path d="M41.0328 51.0533L38.5816 53.6661L36.733 51.9539L39.1842 49.3411" fill="url(#paint21_linear_902_347)"/>
<path d="M41.0328 51.0533L38.5816 53.6661L36.733 51.9539L39.1842 49.3411" stroke="url(#paint22_linear_902_347)" stroke-width="2" stroke-miterlimit="10"/>
<path d="M44.8958 38.7617C41.1264 38.7617 38.0707 41.7968 38.0707 45.5408C38.0707 49.2847 41.1264 52.3198 44.8958 52.3198C48.6652 52.3198 51.7209 49.2847 51.7209 45.5408C51.7209 41.7968 48.6652 38.7617 44.8958 38.7617ZM44.8958 49.4145C42.741 49.4145 40.9957 47.681 40.9957 45.5408C40.9957 43.4005 42.741 41.667 44.8958 41.667C47.0506 41.667 48.7958 43.4005 48.7958 45.5408C48.7958 47.681 47.0506 49.4145 44.8958 49.4145Z" fill="url(#paint23_linear_902_347)" stroke="url(#paint24_linear_902_347)" stroke-width="2" stroke-miterlimit="10"/>
<defs>
<linearGradient id="paint0_linear_902_347" x1="1.7925" y1="26.3755" x2="54.8662" y2="26.3755" gradientUnits="userSpaceOnUse">
<stop stop-color="#E3255E"/>
<stop offset="0.445" stop-color="#FF2323"/>
<stop offset="1" stop-color="#E2CC00"/>
</linearGradient>
<linearGradient id="paint1_linear_902_347" x1="1.7925" y1="12.2617" x2="54.8662" y2="12.2617" gradientUnits="userSpaceOnUse">
<stop stop-color="#E3255E"/>
<stop offset="0.445" stop-color="#FF2323"/>
<stop offset="1" stop-color="#E2CC00"/>
</linearGradient>
<linearGradient id="paint2_linear_902_347" x1="8.82037" y1="21.8301" x2="25.4112" y2="21.8301" gradientUnits="userSpaceOnUse">
<stop stop-color="#E3255E"/>
<stop offset="0.445" stop-color="#FF2323"/>
<stop offset="1" stop-color="#E2CC00"/>
</linearGradient>
<linearGradient id="paint3_linear_902_347" x1="30.7581" y1="21.8301" x2="40.2937" y2="21.8301" gradientUnits="userSpaceOnUse">
<stop stop-color="#E3255E"/>
<stop offset="0.445" stop-color="#FF2323"/>
<stop offset="1" stop-color="#E2CC00"/>
</linearGradient>
<linearGradient id="paint4_linear_902_347" x1="13.6954" y1="31.708" x2="35.5259" y2="31.708" gradientUnits="userSpaceOnUse">
<stop stop-color="#E3255E"/>
<stop offset="0.445" stop-color="#FF2323"/>
<stop offset="1" stop-color="#E2CC00"/>
</linearGradient>
<linearGradient id="paint5_linear_902_347" x1="8.82037" y1="41.2686" x2="13.6954" y2="41.2686" gradientUnits="userSpaceOnUse">
<stop stop-color="#E3255E"/>
<stop offset="0.445" stop-color="#FF2323"/>
<stop offset="1" stop-color="#E2CC00"/>
</linearGradient>
<linearGradient id="paint6_linear_902_347" x1="18.3911" y1="41.2686" x2="27.798" y2="41.2686" gradientUnits="userSpaceOnUse">
<stop stop-color="#E3255E"/>
<stop offset="0.445" stop-color="#FF2323"/>
<stop offset="1" stop-color="#E2CC00"/>
</linearGradient>
<linearGradient id="paint7_linear_902_347" x1="43.6634" y1="36.976" x2="46.1906" y2="36.976" gradientUnits="userSpaceOnUse">
<stop stop-color="#E3255E"/>
<stop offset="0.445" stop-color="#FF2323"/>
<stop offset="1" stop-color="#E2CC00"/>
</linearGradient>
<linearGradient id="paint8_linear_902_347" x1="43.6634" y1="36.976" x2="46.1906" y2="36.976" gradientUnits="userSpaceOnUse">
<stop stop-color="#E3255E"/>
<stop offset="0.445" stop-color="#FF2323"/>
<stop offset="1" stop-color="#E2CC00"/>
</linearGradient>
<linearGradient id="paint9_linear_902_347" x1="43.6634" y1="54.0204" x2="46.1906" y2="54.0204" gradientUnits="userSpaceOnUse">
<stop stop-color="#E3255E"/>
<stop offset="0.445" stop-color="#FF2323"/>
<stop offset="1" stop-color="#E2CC00"/>
</linearGradient>
<linearGradient id="paint10_linear_902_347" x1="43.6634" y1="54.0204" x2="46.1906" y2="54.0204" gradientUnits="userSpaceOnUse">
<stop stop-color="#E3255E"/>
<stop offset="0.445" stop-color="#FF2323"/>
<stop offset="1" stop-color="#E2CC00"/>
</linearGradient>
<linearGradient id="paint11_linear_902_347" x1="51.7092" y1="45.4983" x2="55.305" y2="45.4983" gradientUnits="userSpaceOnUse">
<stop stop-color="#E3255E"/>
<stop offset="0.445" stop-color="#FF2323"/>
<stop offset="1" stop-color="#E2CC00"/>
</linearGradient>
<linearGradient id="paint12_linear_902_347" x1="51.7092" y1="45.4983" x2="55.305" y2="45.4983" gradientUnits="userSpaceOnUse">
<stop stop-color="#E3255E"/>
<stop offset="0.445" stop-color="#FF2323"/>
<stop offset="1" stop-color="#E2CC00"/>
</linearGradient>
<linearGradient id="paint13_linear_902_347" x1="34.549" y1="45.4983" x2="38.1448" y2="45.4983" gradientUnits="userSpaceOnUse">
<stop stop-color="#E3255E"/>
<stop offset="0.445" stop-color="#FF2323"/>
<stop offset="1" stop-color="#E2CC00"/>
</linearGradient>
<linearGradient id="paint14_linear_902_347" x1="34.549" y1="45.4983" x2="38.1448" y2="45.4983" gradientUnits="userSpaceOnUse">
<stop stop-color="#E3255E"/>
<stop offset="0.445" stop-color="#FF2323"/>
<stop offset="1" stop-color="#E2CC00"/>
</linearGradient>
<linearGradient id="paint15_linear_902_347" x1="48.8231" y1="39.4948" x2="53.1229" y2="39.4948" gradientUnits="userSpaceOnUse">
<stop stop-color="#E3255E"/>
<stop offset="0.445" stop-color="#FF2323"/>
<stop offset="1" stop-color="#E2CC00"/>
</linearGradient>
<linearGradient id="paint16_linear_902_347" x1="48.8231" y1="39.4948" x2="53.1229" y2="39.4948" gradientUnits="userSpaceOnUse">
<stop stop-color="#E3255E"/>
<stop offset="0.445" stop-color="#FF2323"/>
<stop offset="1" stop-color="#E2CC00"/>
</linearGradient>
<linearGradient id="paint17_linear_902_347" x1="36.733" y1="39.4948" x2="41.0328" y2="39.4948" gradientUnits="userSpaceOnUse">
<stop stop-color="#E3255E"/>
<stop offset="0.445" stop-color="#FF2323"/>
<stop offset="1" stop-color="#E2CC00"/>
</linearGradient>
<linearGradient id="paint18_linear_902_347" x1="36.733" y1="39.4948" x2="41.0328" y2="39.4948" gradientUnits="userSpaceOnUse">
<stop stop-color="#E3255E"/>
<stop offset="0.445" stop-color="#FF2323"/>
<stop offset="1" stop-color="#E2CC00"/>
</linearGradient>
<linearGradient id="paint19_linear_902_347" x1="48.8231" y1="51.5036" x2="53.1229" y2="51.5036" gradientUnits="userSpaceOnUse">
<stop stop-color="#E3255E"/>
<stop offset="0.445" stop-color="#FF2323"/>
<stop offset="1" stop-color="#E2CC00"/>
</linearGradient>
<linearGradient id="paint20_linear_902_347" x1="48.8231" y1="51.5036" x2="53.1229" y2="51.5036" gradientUnits="userSpaceOnUse">
<stop stop-color="#E3255E"/>
<stop offset="0.445" stop-color="#FF2323"/>
<stop offset="1" stop-color="#E2CC00"/>
</linearGradient>
<linearGradient id="paint21_linear_902_347" x1="36.733" y1="51.5036" x2="41.0328" y2="51.5036" gradientUnits="userSpaceOnUse">
<stop stop-color="#E3255E"/>
<stop offset="0.445" stop-color="#FF2323"/>
<stop offset="1" stop-color="#E2CC00"/>
</linearGradient>
<linearGradient id="paint22_linear_902_347" x1="36.733" y1="51.5036" x2="41.0328" y2="51.5036" gradientUnits="userSpaceOnUse">
<stop stop-color="#E3255E"/>
<stop offset="0.445" stop-color="#FF2323"/>
<stop offset="1" stop-color="#E2CC00"/>
</linearGradient>
<linearGradient id="paint23_linear_902_347" x1="38.0707" y1="45.5408" x2="51.7209" y2="45.5408" gradientUnits="userSpaceOnUse">
<stop stop-color="#E3255E"/>
<stop offset="0.445" stop-color="#FF2323"/>
<stop offset="1" stop-color="#E2CC00"/>
</linearGradient>
<linearGradient id="paint24_linear_902_347" x1="38.0707" y1="45.5408" x2="51.7209" y2="45.5408" gradientUnits="userSpaceOnUse">
<stop stop-color="#E3255E"/>
<stop offset="0.445" stop-color="#FF2323"/>
<stop offset="1" stop-color="#E2CC00"/>
</linearGradient>
</defs>
</svg>
