<svg width="57" height="57" fill="none" xmlns="http://www.w3.org/2000/svg"><path d="M54.866 28.69V5.912c0-2-1.632-3.621-3.646-3.621H5.439c-2.014 0-3.647 1.62-3.647 3.621V46.84c0 2 1.633 3.622 3.647 3.622H28.33" stroke="url(#a)" stroke-width="3" stroke-miterlimit="10"/><path d="M1.792 11.762h53.074" stroke="url(#b)" stroke-width="3" stroke-miterlimit="10"/><path d="M8.82 21.33h16.591" stroke="url(#c)" stroke-width="3" stroke-miterlimit="10"/><path d="M30.758 21.33h9.536" stroke="url(#d)" stroke-width="3" stroke-miterlimit="10"/><path d="M13.695 31.208h21.83" stroke="url(#e)" stroke-width="3" stroke-miterlimit="10"/><path d="M8.82 40.769h4.875" stroke="url(#f)" stroke-width="3" stroke-miterlimit="10"/><path d="M18.391 40.769h9.407" stroke="url(#g)" stroke-width="3" stroke-miterlimit="10"/><path d="M43.663 38.762V35.19h2.528v3.572" fill="url(#h)"/><path d="M43.663 38.762V35.19h2.528v3.572" stroke="url(#i)" stroke-width="2" stroke-miterlimit="10"/><path d="M46.19 52.235v3.571h-2.527v-3.571" fill="url(#j)"/><path d="M46.19 52.235v3.571h-2.527v-3.571" stroke="url(#k)" stroke-width="2" stroke-miterlimit="10"/><path d="M51.71 44.243h3.595v2.51h-3.596" fill="url(#l)"/><path d="M51.71 44.243h3.595v2.51h-3.596" stroke="url(#m)" stroke-width="2" stroke-miterlimit="10"/><path d="M38.145 46.753h-3.596v-2.51h3.596" fill="url(#n)"/><path d="M38.145 46.753h-3.596v-2.51h3.596" stroke="url(#o)" stroke-width="2" stroke-miterlimit="10"/><path d="m48.823 39.945 2.451-2.613 1.849 1.712-2.451 2.613" fill="url(#p)"/><path d="m48.823 39.945 2.451-2.613 1.849 1.712-2.451 2.613" stroke="url(#q)" stroke-width="2" stroke-miterlimit="10"/><path d="m41.033 39.945-2.451-2.613-1.849 1.712 2.451 2.613" fill="url(#r)"/><path d="m41.033 39.945-2.451-2.613-1.849 1.712 2.451 2.613" stroke="url(#s)" stroke-width="2" stroke-miterlimit="10"/><path d="m48.823 51.053 2.451 2.613 1.849-1.712-2.451-2.613" fill="url(#t)"/><path d="m48.823 51.053 2.451 2.613 1.849-1.712-2.451-2.613" stroke="url(#u)" stroke-width="2" stroke-miterlimit="10"/><path d="m41.033 51.053-2.451 2.613-1.849-1.712 2.451-2.613" fill="url(#v)"/><path d="m41.033 51.053-2.451 2.613-1.849-1.712 2.451-2.613" stroke="url(#w)" stroke-width="2" stroke-miterlimit="10"/><path d="M44.896 38.762c-3.77 0-6.825 3.035-6.825 6.779 0 3.744 3.055 6.779 6.825 6.779s6.825-3.035 6.825-6.78c0-3.743-3.056-6.778-6.825-6.778Zm0 10.652c-2.155 0-3.9-1.733-3.9-3.873s1.745-3.874 3.9-3.874 3.9 1.733 3.9 3.874c0 2.14-1.745 3.873-3.9 3.873Z" fill="url(#x)" stroke="url(#y)" stroke-width="2" stroke-miterlimit="10"/><defs><linearGradient id="a" x1="1.792" y1="26.375" x2="54.866" y2="26.375" gradientUnits="userSpaceOnUse"><stop stop-color="#E3255E"/><stop offset=".445" stop-color="#FF2323"/><stop offset="1" stop-color="#E2CC00"/></linearGradient><linearGradient id="b" x1="1.792" y1="12.262" x2="54.866" y2="12.262" gradientUnits="userSpaceOnUse"><stop stop-color="#E3255E"/><stop offset=".445" stop-color="#FF2323"/><stop offset="1" stop-color="#E2CC00"/></linearGradient><linearGradient id="c" x1="8.82" y1="21.83" x2="25.411" y2="21.83" gradientUnits="userSpaceOnUse"><stop stop-color="#E3255E"/><stop offset=".445" stop-color="#FF2323"/><stop offset="1" stop-color="#E2CC00"/></linearGradient><linearGradient id="d" x1="30.758" y1="21.83" x2="40.294" y2="21.83" gradientUnits="userSpaceOnUse"><stop stop-color="#E3255E"/><stop offset=".445" stop-color="#FF2323"/><stop offset="1" stop-color="#E2CC00"/></linearGradient><linearGradient id="e" x1="13.695" y1="31.708" x2="35.526" y2="31.708" gradientUnits="userSpaceOnUse"><stop stop-color="#E3255E"/><stop offset=".445" stop-color="#FF2323"/><stop offset="1" stop-color="#E2CC00"/></linearGradient><linearGradient id="f" x1="8.82" y1="41.269" x2="13.695" y2="41.269" gradientUnits="userSpaceOnUse"><stop stop-color="#E3255E"/><stop offset=".445" stop-color="#FF2323"/><stop offset="1" stop-color="#E2CC00"/></linearGradient><linearGradient id="g" x1="18.391" y1="41.269" x2="27.798" y2="41.269" gradientUnits="userSpaceOnUse"><stop stop-color="#E3255E"/><stop offset=".445" stop-color="#FF2323"/><stop offset="1" stop-color="#E2CC00"/></linearGradient><linearGradient id="h" x1="43.663" y1="36.976" x2="46.191" y2="36.976" gradientUnits="userSpaceOnUse"><stop stop-color="#E3255E"/><stop offset=".445" stop-color="#FF2323"/><stop offset="1" stop-color="#E2CC00"/></linearGradient><linearGradient id="i" x1="43.663" y1="36.976" x2="46.191" y2="36.976" gradientUnits="userSpaceOnUse"><stop stop-color="#E3255E"/><stop offset=".445" stop-color="#FF2323"/><stop offset="1" stop-color="#E2CC00"/></linearGradient><linearGradient id="j" x1="43.663" y1="54.02" x2="46.191" y2="54.02" gradientUnits="userSpaceOnUse"><stop stop-color="#E3255E"/><stop offset=".445" stop-color="#FF2323"/><stop offset="1" stop-color="#E2CC00"/></linearGradient><linearGradient id="k" x1="43.663" y1="54.02" x2="46.191" y2="54.02" gradientUnits="userSpaceOnUse"><stop stop-color="#E3255E"/><stop offset=".445" stop-color="#FF2323"/><stop offset="1" stop-color="#E2CC00"/></linearGradient><linearGradient id="l" x1="51.709" y1="45.498" x2="55.305" y2="45.498" gradientUnits="userSpaceOnUse"><stop stop-color="#E3255E"/><stop offset=".445" stop-color="#FF2323"/><stop offset="1" stop-color="#E2CC00"/></linearGradient><linearGradient id="m" x1="51.709" y1="45.498" x2="55.305" y2="45.498" gradientUnits="userSpaceOnUse"><stop stop-color="#E3255E"/><stop offset=".445" stop-color="#FF2323"/><stop offset="1" stop-color="#E2CC00"/></linearGradient><linearGradient id="n" x1="34.549" y1="45.498" x2="38.145" y2="45.498" gradientUnits="userSpaceOnUse"><stop stop-color="#E3255E"/><stop offset=".445" stop-color="#FF2323"/><stop offset="1" stop-color="#E2CC00"/></linearGradient><linearGradient id="o" x1="34.549" y1="45.498" x2="38.145" y2="45.498" gradientUnits="userSpaceOnUse"><stop stop-color="#E3255E"/><stop offset=".445" stop-color="#FF2323"/><stop offset="1" stop-color="#E2CC00"/></linearGradient><linearGradient id="p" x1="48.823" y1="39.495" x2="53.123" y2="39.495" gradientUnits="userSpaceOnUse"><stop stop-color="#E3255E"/><stop offset=".445" stop-color="#FF2323"/><stop offset="1" stop-color="#E2CC00"/></linearGradient><linearGradient id="q" x1="48.823" y1="39.495" x2="53.123" y2="39.495" gradientUnits="userSpaceOnUse"><stop stop-color="#E3255E"/><stop offset=".445" stop-color="#FF2323"/><stop offset="1" stop-color="#E2CC00"/></linearGradient><linearGradient id="r" x1="36.733" y1="39.495" x2="41.033" y2="39.495" gradientUnits="userSpaceOnUse"><stop stop-color="#E3255E"/><stop offset=".445" stop-color="#FF2323"/><stop offset="1" stop-color="#E2CC00"/></linearGradient><linearGradient id="s" x1="36.733" y1="39.495" x2="41.033" y2="39.495" gradientUnits="userSpaceOnUse"><stop stop-color="#E3255E"/><stop offset=".445" stop-color="#FF2323"/><stop offset="1" stop-color="#E2CC00"/></linearGradient><linearGradient id="t" x1="48.823" y1="51.504" x2="53.123" y2="51.504" gradientUnits="userSpaceOnUse"><stop stop-color="#E3255E"/><stop offset=".445" stop-color="#FF2323"/><stop offset="1" stop-color="#E2CC00"/></linearGradient><linearGradient id="u" x1="48.823" y1="51.504" x2="53.123" y2="51.504" gradientUnits="userSpaceOnUse"><stop stop-color="#E3255E"/><stop offset=".445" stop-color="#FF2323"/><stop offset="1" stop-color="#E2CC00"/></linearGradient><linearGradient id="v" x1="36.733" y1="51.504" x2="41.033" y2="51.504" gradientUnits="userSpaceOnUse"><stop stop-color="#E3255E"/><stop offset=".445" stop-color="#FF2323"/><stop offset="1" stop-color="#E2CC00"/></linearGradient><linearGradient id="w" x1="36.733" y1="51.504" x2="41.033" y2="51.504" gradientUnits="userSpaceOnUse"><stop stop-color="#E3255E"/><stop offset=".445" stop-color="#FF2323"/><stop offset="1" stop-color="#E2CC00"/></linearGradient><linearGradient id="x" x1="38.071" y1="45.541" x2="51.721" y2="45.541" gradientUnits="userSpaceOnUse"><stop stop-color="#E3255E"/><stop offset=".445" stop-color="#FF2323"/><stop offset="1" stop-color="#E2CC00"/></linearGradient><linearGradient id="y" x1="38.071" y1="45.541" x2="51.721" y2="45.541" gradientUnits="userSpaceOnUse"><stop stop-color="#E3255E"/><stop offset=".445" stop-color="#FF2323"/><stop offset="1" stop-color="#E2CC00"/></linearGradient></defs></svg>