<svg width="57" height="57" fill="none" xmlns="http://www.w3.org/2000/svg"><path d="M54.866 28.69V5.912c0-2-1.632-3.621-3.646-3.621H5.439c-2.014 0-3.647 1.62-3.647 3.621V46.84c0 2 1.633 3.622 3.647 3.622H28.33m-26.538-38.7h53.074M8.82 21.33h16.591m5.347 0h9.536m-26.599 9.878h21.83M8.82 40.769h4.875m4.696 0h9.407" stroke="#fff" stroke-width="3" stroke-miterlimit="10"/><path d="M43.663 38.762V35.19h2.528v3.572" fill="#fff"/><path d="M43.663 38.762V35.19h2.528v3.572" stroke="#fff" stroke-width="2" stroke-miterlimit="10"/><path d="M46.19 52.235v3.571h-2.527v-3.571" fill="#fff"/><path d="M46.19 52.235v3.571h-2.527v-3.571" stroke="#fff" stroke-width="2" stroke-miterlimit="10"/><path d="M51.71 44.243h3.595v2.51h-3.596" fill="#fff"/><path d="M51.71 44.243h3.595v2.51h-3.596" stroke="#fff" stroke-width="2" stroke-miterlimit="10"/><path d="M38.145 46.753h-3.596v-2.51h3.596" fill="#fff"/><path d="M38.145 46.753h-3.596v-2.51h3.596" stroke="#fff" stroke-width="2" stroke-miterlimit="10"/><path d="m48.823 39.945 2.451-2.613 1.849 1.712-2.451 2.613" fill="#fff"/><path d="m48.823 39.945 2.451-2.613 1.849 1.712-2.451 2.613" stroke="#fff" stroke-width="2" stroke-miterlimit="10"/><path d="m41.033 39.945-2.451-2.613-1.849 1.712 2.451 2.613" fill="#fff"/><path d="m41.033 39.945-2.451-2.613-1.849 1.712 2.451 2.613" stroke="#fff" stroke-width="2" stroke-miterlimit="10"/><path d="m48.823 51.053 2.451 2.613 1.849-1.712-2.451-2.613" fill="#fff"/><path d="m48.823 51.053 2.451 2.613 1.849-1.712-2.451-2.613" stroke="#fff" stroke-width="2" stroke-miterlimit="10"/><path d="m41.033 51.053-2.451 2.613-1.849-1.712 2.451-2.613" fill="#fff"/><path d="m41.033 51.053-2.451 2.613-1.849-1.712 2.451-2.613" stroke="#fff" stroke-width="2" stroke-miterlimit="10"/><path d="M44.896 38.762c-3.77 0-6.825 3.035-6.825 6.779 0 3.744 3.055 6.779 6.825 6.779s6.825-3.035 6.825-6.78c0-3.743-3.056-6.778-6.825-6.778Zm0 10.652c-2.155 0-3.9-1.733-3.9-3.873s1.745-3.874 3.9-3.874c2.154 0 3.9 1.733 3.9 3.874 0 2.14-1.745 3.873-3.9 3.873Z" fill="#fff" stroke="#fff" stroke-width="2" stroke-miterlimit="10"/></svg>