<svg width="59" height="58" fill="none" xmlns="http://www.w3.org/2000/svg"><path d="M23.025 43.152s2.766 3.351.356 8.006" stroke="url(#a)" stroke-width="3" stroke-miterlimit="10"/><path d="M36.606 43.152s-2.767 3.351-.356 8.006" stroke="url(#b)" stroke-width="3" stroke-miterlimit="10"/><path d="M53.606 2.186H5.394A3.716 3.716 0 0 0 1.685 5.91v33.518a3.716 3.716 0 0 0 3.709 3.724h48.212a3.716 3.716 0 0 0 3.709-3.724V5.91a3.716 3.716 0 0 0-3.709-3.724Z" stroke="url(#c)" stroke-width="3" stroke-miterlimit="10"/><path d="M1.685 35.726h55.63" stroke="url(#d)" stroke-width="2" stroke-miterlimit="10"/><path d="M18.003 28.441h5.378v7.262h-7.232v-5.4c0-1.027.83-1.862 1.854-1.862Z" stroke="url(#e)" stroke-width="2" stroke-miterlimit="10"/><path d="M25.235 25.09h5.378v10.613H23.38v-8.751c0-1.028.83-1.862 1.854-1.862Z" stroke="url(#f)" stroke-width="2" stroke-miterlimit="10"/><path d="M32.467 20.435h5.377v15.268h-7.232V22.297c0-1.028.831-1.862 1.855-1.862Z" stroke="url(#g)" stroke-width="2" stroke-miterlimit="10"/><path d="M39.699 13.917h3.523c1.023 0 1.854.834 1.854 1.862v19.924h-7.232V15.78c0-1.028.831-1.862 1.855-1.862Z" stroke="url(#h)" stroke-width="2" stroke-miterlimit="10"/><path d="M39.328 6.469c-8.9 12.662-24.848 20.669-24.848 20.669" stroke="url(#i)" stroke-width="2" stroke-miterlimit="10"/><path d="M33.858 8.078c.463.067 5.655-1.795 5.655-1.795l-1.112 5.213" stroke="url(#j)" stroke-width="2" stroke-miterlimit="10"/><path d="M42.666 51.159H16.334a1.858 1.858 0 0 0-1.854 1.862v.93c0 1.03.83 1.863 1.854 1.863h26.332a1.858 1.858 0 0 0 1.854-1.862v-.931c0-1.029-.83-1.862-1.855-1.862Z" stroke="url(#k)" stroke-width="3" stroke-miterlimit="10"/><path d="M5.765 39.242h3.909" stroke="url(#l)" stroke-width="2" stroke-miterlimit="10"/><path d="M12.967 39.242h3.916" stroke="url(#m)" stroke-width="2" stroke-miterlimit="10"/><defs><linearGradient id="a" x1="23.025" y1="47.155" x2="24.367" y2="47.155" gradientUnits="userSpaceOnUse"><stop stop-color="#E3255E"/><stop offset=".445" stop-color="#FF2323"/><stop offset="1" stop-color="#E2CC00"/></linearGradient><linearGradient id="b" x1="35.263" y1="47.155" x2="36.606" y2="47.155" gradientUnits="userSpaceOnUse"><stop stop-color="#E3255E"/><stop offset=".445" stop-color="#FF2323"/><stop offset="1" stop-color="#E2CC00"/></linearGradient><linearGradient id="c" x1="1.685" y1="22.669" x2="57.315" y2="22.669" gradientUnits="userSpaceOnUse"><stop stop-color="#E3255E"/><stop offset=".445" stop-color="#FF2323"/><stop offset="1" stop-color="#E2CC00"/></linearGradient><linearGradient id="d" x1="1.685" y1="36.226" x2="57.315" y2="36.226" gradientUnits="userSpaceOnUse"><stop stop-color="#E3255E"/><stop offset=".445" stop-color="#FF2323"/><stop offset="1" stop-color="#E2CC00"/></linearGradient><linearGradient id="e" x1="16.149" y1="32.072" x2="23.381" y2="32.072" gradientUnits="userSpaceOnUse"><stop stop-color="#E3255E"/><stop offset=".445" stop-color="#FF2323"/><stop offset="1" stop-color="#E2CC00"/></linearGradient><linearGradient id="f" x1="23.381" y1="30.396" x2="30.613" y2="30.396" gradientUnits="userSpaceOnUse"><stop stop-color="#E3255E"/><stop offset=".445" stop-color="#FF2323"/><stop offset="1" stop-color="#E2CC00"/></linearGradient><linearGradient id="g" x1="30.613" y1="28.069" x2="37.844" y2="28.069" gradientUnits="userSpaceOnUse"><stop stop-color="#E3255E"/><stop offset=".445" stop-color="#FF2323"/><stop offset="1" stop-color="#E2CC00"/></linearGradient><linearGradient id="h" x1="37.844" y1="24.81" x2="45.076" y2="24.81" gradientUnits="userSpaceOnUse"><stop stop-color="#E3255E"/><stop offset=".445" stop-color="#FF2323"/><stop offset="1" stop-color="#E2CC00"/></linearGradient><linearGradient id="i" x1="14.48" y1="16.803" x2="39.328" y2="16.803" gradientUnits="userSpaceOnUse"><stop stop-color="#E3255E"/><stop offset=".445" stop-color="#FF2323"/><stop offset="1" stop-color="#E2CC00"/></linearGradient><linearGradient id="j" x1="33.858" y1="8.89" x2="39.513" y2="8.89" gradientUnits="userSpaceOnUse"><stop stop-color="#E3255E"/><stop offset=".445" stop-color="#FF2323"/><stop offset="1" stop-color="#E2CC00"/></linearGradient><linearGradient id="k" x1="14.48" y1="53.486" x2="44.52" y2="53.486" gradientUnits="userSpaceOnUse"><stop stop-color="#E3255E"/><stop offset=".445" stop-color="#FF2323"/><stop offset="1" stop-color="#E2CC00"/></linearGradient><linearGradient id="l" x1="5.765" y1="39.742" x2="9.674" y2="39.742" gradientUnits="userSpaceOnUse"><stop stop-color="#E3255E"/><stop offset=".445" stop-color="#FF2323"/><stop offset="1" stop-color="#E2CC00"/></linearGradient><linearGradient id="m" x1="12.967" y1="39.742" x2="16.883" y2="39.742" gradientUnits="userSpaceOnUse"><stop stop-color="#E3255E"/><stop offset=".445" stop-color="#FF2323"/><stop offset="1" stop-color="#E2CC00"/></linearGradient></defs></svg>