<svg width="59" height="58" fill="none" xmlns="http://www.w3.org/2000/svg"><path d="M23.025 43.152s2.766 3.351.356 8.006m13.225-8.006s-2.767 3.351-.356 8.006M53.606 2.186H5.394A3.716 3.716 0 0 0 1.685 5.91v33.518a3.716 3.716 0 0 0 3.709 3.724h48.212a3.716 3.716 0 0 0 3.709-3.724V5.91a3.716 3.716 0 0 0-3.709-3.724Z" stroke="#fff" stroke-width="3" stroke-miterlimit="10"/><path d="M1.685 35.726h55.63m-39.312-7.285h5.378v7.262h-7.232v-5.4c0-1.027.83-1.862 1.854-1.862Z" stroke="#fff" stroke-width="2" stroke-miterlimit="10"/><path d="M25.235 25.09h5.378v10.613H23.38v-8.751c0-1.028.83-1.862 1.854-1.862Zm7.232-4.655h5.377v15.268h-7.231V22.297c0-1.028.83-1.862 1.854-1.862Zm7.232-6.518h3.523c1.023 0 1.854.834 1.854 1.862v19.924h-7.232V15.78c0-1.028.831-1.862 1.855-1.862Zm-.371-7.448c-8.9 12.662-24.848 20.669-24.848 20.669" stroke="#fff" stroke-width="2" stroke-miterlimit="10"/><path d="M33.858 8.078c.463.067 5.655-1.795 5.655-1.795l-1.112 5.213" stroke="#fff" stroke-width="2" stroke-miterlimit="10"/><path d="M42.666 51.159H16.334a1.858 1.858 0 0 0-1.854 1.862v.93c0 1.03.83 1.863 1.854 1.863h26.332a1.858 1.858 0 0 0 1.854-1.862v-.931c0-1.029-.83-1.862-1.854-1.862Z" stroke="#fff" stroke-width="3" stroke-miterlimit="10"/><path d="M5.765 39.242h3.909m3.293 0h3.916" stroke="#fff" stroke-width="2" stroke-miterlimit="10"/></svg>