<svg width="57" height="58" fill="none" xmlns="http://www.w3.org/2000/svg"><path d="m50.21 13.322-8.45 7.61a14.883 14.883 0 0 1 2.246 7.884 14.89 14.89 0 0 1-1.976 7.435l8.636 7.778A26.648 26.648 0 0 0 55.279 29c0-5.855-1.88-11.271-5.07-15.678Z" stroke="url(#a)" stroke-width="3" stroke-miterlimit="10"/><path d="M22.503 15.368a14.893 14.893 0 0 1 6.55-1.507c2.348 0 4.41.504 6.334 1.405l8.825-7.95A26.645 26.645 0 0 0 28.5 2.221c-5.871 0-10.946 1.77-15.28 4.786l9.283 8.361Z" stroke="url(#b)" stroke-width="3" stroke-miterlimit="10"/><path d="M35.885 42.122a14.892 14.892 0 0 1-6.832 1.649c-2.673 0-5.182-.703-7.354-1.932l-9.41 8.475A26.66 26.66 0 0 0 28.5 55.777c6.094 0 11.831-2.08 16.356-5.575l-8.971-8.081v.001Z" stroke="url(#c)" stroke-width="3" stroke-miterlimit="10"/><path d="M15.798 35.747a14.884 14.884 0 0 1-1.7-6.931c0-2.814.778-5.446 2.129-7.694L7.1 12.9A26.659 26.659 0 0 0 1.721 29a26.658 26.658 0 0 0 4.716 15.179l9.36-8.432Z" stroke="url(#d)" stroke-width="3" stroke-miterlimit="10"/><path d="M7.54 7.591v.001a4.237 4.237 0 0 0 .312 5.985l7.748 6.978a4.237 4.237 0 0 0 5.984-.312l.001-.001a4.238 4.238 0 0 0-.313-5.985l-7.747-6.979a4.238 4.238 0 0 0-5.985.313Z" stroke="url(#e)" stroke-width="3" stroke-miterlimit="10"/><path d="M36.204 20.232v.001a4.237 4.237 0 0 0 5.985.313L50.01 13.5a4.237 4.237 0 0 0 .313-5.985h-.001a4.237 4.237 0 0 0-5.985-.313l-7.82 7.044a4.237 4.237 0 0 0-.313 5.985Z" stroke="url(#f)" stroke-width="3" stroke-miterlimit="10"/><path d="M49.69 48.856v-.001a4.237 4.237 0 0 0-.312-5.985l-7.195-6.48a4.237 4.237 0 0 0-5.985.312v.001a4.238 4.238 0 0 0 .312 5.985l7.195 6.48a4.238 4.238 0 0 0 5.984-.312Z" stroke="url(#g)" stroke-width="3" stroke-miterlimit="10"/><path d="M7.507 48.823a4.204 4.204 0 0 0 5.937.311l7.172-6.46a4.204 4.204 0 0 0-5.628-6.248l-7.171 6.46a4.204 4.204 0 0 0-.31 5.937Z" stroke="url(#h)" stroke-width="3" stroke-miterlimit="10"/><defs><linearGradient id="a" x1="41.761" y1="28.675" x2="55.279" y2="28.675" gradientUnits="userSpaceOnUse"><stop stop-color="#E3255E"/><stop offset=".445" stop-color="#FF2323"/><stop offset="1" stop-color="#E2CC00"/></linearGradient><linearGradient id="b" x1="13.221" y1="8.795" x2="44.212" y2="8.795" gradientUnits="userSpaceOnUse"><stop stop-color="#E3255E"/><stop offset=".445" stop-color="#FF2323"/><stop offset="1" stop-color="#E2CC00"/></linearGradient><linearGradient id="c" x1="12.29" y1="48.808" x2="44.856" y2="48.808" gradientUnits="userSpaceOnUse"><stop stop-color="#E3255E"/><stop offset=".445" stop-color="#FF2323"/><stop offset="1" stop-color="#E2CC00"/></linearGradient><linearGradient id="d" x1="1.721" y1="28.54" x2="16.227" y2="28.54" gradientUnits="userSpaceOnUse"><stop stop-color="#E3255E"/><stop offset=".445" stop-color="#FF2323"/><stop offset="1" stop-color="#E2CC00"/></linearGradient><linearGradient id="e" x1="11.726" y1="17.066" x2="17.399" y2="10.768" gradientUnits="userSpaceOnUse"><stop stop-color="#E3255E"/><stop offset=".445" stop-color="#FF2323"/><stop offset="1" stop-color="#E2CC00"/></linearGradient><linearGradient id="f" x1="46.1" y1="17.023" x2="40.427" y2="10.725" gradientUnits="userSpaceOnUse"><stop stop-color="#E3255E"/><stop offset=".445" stop-color="#FF2323"/><stop offset="1" stop-color="#E2CC00"/></linearGradient><linearGradient id="g" x1="45.78" y1="39.63" x2="40.107" y2="45.928" gradientUnits="userSpaceOnUse"><stop stop-color="#E3255E"/><stop offset=".445" stop-color="#FF2323"/><stop offset="1" stop-color="#E2CC00"/></linearGradient><linearGradient id="h" x1="17.03" y1="45.904" x2="11.403" y2="39.656" gradientUnits="userSpaceOnUse"><stop stop-color="#E3255E"/><stop offset=".445" stop-color="#FF2323"/><stop offset="1" stop-color="#E2CC00"/></linearGradient></defs></svg>