<svg width="57" height="58" fill="none" xmlns="http://www.w3.org/2000/svg"><path d="m50.21 13.322-8.45 7.61a14.883 14.883 0 0 1 2.246 7.884 14.89 14.89 0 0 1-1.976 7.435l8.636 7.778A26.648 26.648 0 0 0 55.279 29c0-5.855-1.88-11.271-5.07-15.678Zm-27.707 2.046a14.893 14.893 0 0 1 6.55-1.507c2.348 0 4.41.504 6.334 1.405l8.825-7.95A26.645 26.645 0 0 0 28.5 2.221c-5.871 0-10.946 1.77-15.28 4.786l9.283 8.361Zm13.382 26.754a14.892 14.892 0 0 1-6.832 1.649c-2.673 0-5.182-.703-7.354-1.932l-9.41 8.475A26.66 26.66 0 0 0 28.5 55.777c6.094 0 11.831-2.08 16.356-5.575l-8.971-8.081v.001Zm-20.087-6.375a14.884 14.884 0 0 1-1.7-6.931c0-2.814.778-5.446 2.129-7.694L7.1 12.9A26.659 26.659 0 0 0 1.721 29a26.658 26.658 0 0 0 4.716 15.179l9.36-8.432Z" stroke="#fff" stroke-width="3" stroke-miterlimit="10"/><path d="M7.54 7.591v.001a4.237 4.237 0 0 0 .312 5.985l7.748 6.978a4.237 4.237 0 0 0 5.984-.312l.001-.001a4.238 4.238 0 0 0-.313-5.985l-7.747-6.979a4.238 4.238 0 0 0-5.985.313Zm28.664 12.641v.001a4.237 4.237 0 0 0 5.985.313L50.01 13.5a4.237 4.237 0 0 0 .313-5.985h-.001a4.237 4.237 0 0 0-5.985-.313l-7.82 7.044a4.237 4.237 0 0 0-.313 5.985ZM49.69 48.856v-.001a4.237 4.237 0 0 0-.312-5.985l-7.195-6.48a4.237 4.237 0 0 0-5.985.312v.001a4.238 4.238 0 0 0 .312 5.985l7.195 6.48a4.238 4.238 0 0 0 5.984-.312Zm-42.183-.033a4.204 4.204 0 0 0 5.937.311l7.172-6.46a4.204 4.204 0 0 0-5.628-6.248l-7.171 6.46a4.204 4.204 0 0 0-.31 5.937Z" stroke="#fff" stroke-width="3" stroke-miterlimit="10"/></svg>