<svg width="56" height="42" fill="none" xmlns="http://www.w3.org/2000/svg"><path fill-rule="evenodd" clip-rule="evenodd" d="M4.656 13.917a.02.02 0 0 1 .02.02l.032 1.254c.022.939.055 1.878.076 2.816 0 .332.229.623.555.682l.125.03a5.009 5.009 0 0 1 3.861 4.756l.005.176c0 .326.225.61.543.681l.104.025c2.214.52 3.775 2.479 3.83 4.753l.003.128c0 .322.22.59.532.67 2.244.528 3.874 2.546 3.893 4.85 0 .316.216.584.523.657l.01.003c.663.156 1.338.313 2.012.47a2.386 2.386 0 0 1 1.826 2.289c.006.675.011 1.35.011 2.024 0 .315.217.58.522.66 1.436.334 2.882.68 4.328 1.016.27.07.533-.145.533-.424V17.56a4.996 4.996 0 0 0-3.848-4.864c-3.296-.777-6.59-1.551-9.886-2.331C9.69 9.28 5.111 8.207.544 7.123a.422.422 0 0 0-.522.434l.01.259c.055 1.497.098 2.995.153 4.48v.014c0 .332.239.62.565.68 1.304.301 2.598.614 3.902.927h.004Z" fill="#12253B"/><path fill-rule="evenodd" clip-rule="evenodd" d="M51.344 13.917a.02.02 0 0 0-.02.02l-.032 1.254c-.022.939-.055 1.878-.077 2.816a.686.686 0 0 1-.554.682l-.125.03a5.009 5.009 0 0 0-3.861 4.756l-.005.176v.012a.69.69 0 0 1-.543.67l-.104.024c-2.214.52-3.775 2.479-3.83 4.753l-.003.128c0 .322-.22.59-.532.67-2.244.528-3.874 2.546-3.893 4.85a.674.674 0 0 1-.523.657l-.01.003c-.663.156-1.338.313-2.012.47a2.386 2.386 0 0 0-1.826 2.289c-.006.675-.011 1.35-.011 2.024 0 .315-.217.58-.522.66-1.436.334-2.882.68-4.328 1.016a.434.434 0 0 1-.533-.424V17.56a4.996 4.996 0 0 1 3.848-4.864c3.296-.777 6.59-1.551 9.886-2.331 4.578-1.084 9.155-2.157 13.722-3.241a.422.422 0 0 1 .522.434l-.01.259c-.055 1.497-.099 2.995-.153 4.48v.014c0 .332-.238.62-.565.68-1.304.301-2.598.614-3.902.927h-.004Z" fill="#B9C1CC"/><path fill-rule="evenodd" clip-rule="evenodd" d="M39.99 10.089h-.002L28.63 12.736a5 5 0 0 1-2.269 0l-6.516-1.519c-2.68-.624-4.418-3.39-2.855-5.655C19.31 2.2 23.156 0 27.506 0 33.59 0 38.69 4.306 39.998 10.08a.008.008 0 0 1-.008.009Z" fill="#12253B"/><path fill-rule="evenodd" clip-rule="evenodd" d="M14 14.927c0-1.627 1.612-2.63 3.198-2.263l5.927 1.369A5 5 0 0 1 27 18.904V23c0 2.761-2.32 5.09-4.878 4.048A13.08 13.08 0 0 1 14 14.928Z" fill="#B9C1CC"/><path fill-rule="evenodd" clip-rule="evenodd" d="M29 26.816v-7.912a5 5 0 0 1 3.875-4.871l5.927-1.37C40.388 12.299 42 13.3 42 14.928c0 6.82-5.199 12.424-11.828 13.02-.645.059-1.172-.472-1.172-1.12v-.011Zm-5.194-4.844a.02.02 0 0 1-.005-.013v-.522c0-.372-.098-.688-.305-.947a1.482 1.482 0 0 0-.414-.35 3.087 3.087 0 0 0-.632-.281c-.173-.065-.36.072-.36.256v1.928c0 .274.17.51.425.611.425.158.752.18.97.068.216-.112.326-.357.327-.736a.02.02 0 0 0-.006-.014Zm.644-5.937a.01.01 0 0 0-.006.009v.33c0 .319-.31.545-.614.45a64.71 64.71 0 0 0-.552-.167.88.88 0 0 0-1.144.84v.944a.54.54 0 0 0 .36.505c.817.27 1.449.642 1.863 1.093.425.462.643 1.003.643 1.635v.868c0 .53-.174.946-.512 1.25-.175.159-.425.226-.752.204-.327-.011-.72-.113-1.2-.293-.26-.102-.522-.192-.773-.293a1.186 1.186 0 0 1-.755-1.11c.011-1.1.027-2.193.036-3.287.006-.762.015-1.518.024-2.27a1.31 1.31 0 0 1 1.687-1.236c.558.167 1.126.344 1.695.51.008.003.009.015 0 .018Z" fill="#12253B"/><path fill-rule="evenodd" clip-rule="evenodd" d="M25.066 8.313c.005 0 .008.005.006.01l-.868 1.597a.151.151 0 0 1-.134.08h-.829a.142.142 0 0 1-.124-.21l3.685-6.71a.151.151 0 0 1 .134-.08h1.128c.056 0 .107.03.134.08l3.685 6.71a.142.142 0 0 1-.124.21h-.872a.151.151 0 0 1-.133-.08 3.075 3.075 0 0 0-2.702-1.607h-2.986ZM31.01 24.99c-.003.003-.01 0-.009-.005.116-1.398.232-2.832.347-4.3.106-1.378.22-2.784.336-4.22a.586.586 0 0 1 .438-.515.563.563 0 0 1 .698.458c.132.804.258 1.592.385 2.358.093.557.884.57.99.015l.065-.33c.182-.96.374-1.939.566-2.928a.473.473 0 0 1 .343-.366c.3-.078.597.145.606.455l.109 3.598c.039 1.214.078 2.398.108 3.553a.432.432 0 0 1-.279.415.428.428 0 0 1-.58-.398c-.007-.692-.022-1.396-.03-2.108 0-.347-.508-.392-.571-.05l-.051.273c-.175.93-.351 1.85-.527 2.76a.411.411 0 0 1-.254.303.394.394 0 0 1-.534-.302c-.121-.714-.242-1.443-.362-2.188-.065-.377-.629-.349-.653.033l-.012.19c-.047.74-.094 1.474-.137 2.197a1.148 1.148 0 0 1-.732 1.002 21.511 21.511 0 0 1-.26.1Z" fill="#B9C1CC"/></svg>