<svg xmlns="http://www.w3.org/2000/svg" width="236" height="49" fill="none"><path d="M223.425 13.724c6.83 0 12.2 4.738 12.2 14.35v19.955h-11.007V29.473c0-3.603-2.124-5.272-4.973-5.272-3.381 0-5.439 2.07-5.439 6.073v17.753h-11.007V1.307h11.007v16.687c1.857-2.67 5.105-4.27 9.219-4.27Zm-39.346 35.149c-10.078 0-17.636-7.676-17.636-17.62 0-9.943 7.56-17.618 17.636-17.618 6.566 0 12.269 3.402 15.121 8.61l-9.417 5.473c-1.061-1.937-3.18-3.272-5.77-3.272-3.714 0-6.499 2.804-6.499 6.808 0 4.003 2.785 6.807 6.499 6.807 2.587 0 4.775-1.335 5.77-3.336l9.417 5.473c-2.852 5.272-8.555 8.677-15.121 8.677v-.002Zm-45.217-13.547c1.326 3.205 4.243 4.07 7.428 4.07 2.386 0 4.442-.8 6.032-2.336l7.957 5.606c-3.315 4.204-8.354 6.207-14.256 6.207-11.472 0-18.567-7.676-18.567-17.553 0-9.876 7.296-17.685 17.639-17.685s17.109 7.542 17.109 17.552a17.77 17.77 0 0 1-.463 4.137h-22.876l-.003.002Zm-.134-7.675h12.734c-.997-3.47-3.582-4.671-6.235-4.671-3.182 0-5.571 1.602-6.499 4.67Zm-15.982-2.357h-6.896v9.676c0 3.135 2.452 3.335 6.896 3.07v10.01c-13.527 1.67-17.903-2.536-17.903-12.813v-9.944H99.87v-10.61h4.973V8.676L115.85 5.34v9.343h6.896v10.61ZM82.958 13.635c6.83 0 12.2 4.738 12.2 14.35V47.94H84.151V29.387c0-3.603-2.121-5.272-4.973-5.272-3.38 0-5.436 2.07-5.436 6.073V47.94H62.735V14.57h11.007v3.335c1.857-2.67 5.105-4.27 9.216-4.27Zm-62.071-3.18c-3.515-.267-5.703 1.002-5.703 4.07h5.703v10.611h-5.703v22.758H4.177V25.139H0V14.525h4.177C4.177 5.183 9.616-.49 20.887.178v10.277Z" fill="#FAFAFA"/><path d="M36.556 14.747H25.595v10.57h10.961v-10.57Zm21.324 0H46.917v10.57h10.961v-10.57Z" fill="#FFB800"/><path d="M25.556 34.283V30.34H36.64v1.723c0 2.948.831 5.19 5.097 5.19s5.096-2.242 5.096-5.19V30.34h11.083v3.944c0 8.845-6.777 14.448-16.179 14.448-9.401 0-16.18-5.6-16.18-14.448Z" fill="#FAFAFA"/></svg>