<svg width="31" height="37" fill="none" xmlns="http://www.w3.org/2000/svg"><path d="M15.5 31a15.5 15.5 0 1 0 0-31v6.534a8.967 8.967 0 0 1 0 17.932V31Z" fill="#111" style="fill:#f4f4f4;fill-opacity:1"/><path d="M16 6c-2.101 0-4.182.4-6.123 1.18a16.045 16.045 0 0 0-5.19 3.36 15.479 15.479 0 0 0-3.47 5.028A15.08 15.08 0 0 0 0 21.5c0 2.035.414 4.051 1.218 5.932a15.479 15.479 0 0 0 3.468 5.028 16.043 16.043 0 0 0 5.191 3.36A16.448 16.448 0 0 0 16 37v-6.534a9.515 9.515 0 0 1-3.542-.682 9.28 9.28 0 0 1-3.003-1.944 8.953 8.953 0 0 1-2.006-2.909 8.724 8.724 0 0 1-.705-3.431c0-1.177.24-2.343.705-3.431a8.953 8.953 0 0 1 2.006-2.91 9.281 9.281 0 0 1 3.003-1.943A9.516 9.516 0 0 1 16 12.534V6Z" fill="#111" style="fill:#f4f4f4;fill-opacity:1"/></svg>