<svg width="40" height="43" viewBox="0 0 40 43" fill="none" xmlns:inkscape="http://www.inkscape.org/namespaces/inkscape" xmlns:sodipodi="http://sodipodi.sourceforge.net/DTD/sodipodi-0.dtd" xmlns="http://www.w3.org/2000/svg" xmlns:svg="http://www.w3.org/2000/svg">
	<path d="m 40.0019,19.9721 v -1.044 C 39.6214,8.24959 30.6602,0.583496 19.9117,0.583496 8.94123,0.583496 0,9.54582 0,20.5422 c 0,10.9963 8.94123,19.9586 19.9117,19.9586 5.3267,0 10.146,-2.0976 13.7289,-5.4982 L 40.0317,42.97 40.0019,21.7618 c 0.0317,-0.3814 0,-0.78 0,-1.1931 0,-0.0636 0,-0.5012 0,-0.5966 z M 19.9117,33.9539 c -7.3559,0 -13.34846,-6.0067 -13.34846,-13.38 0,-7.3732 5.99256,-13.37989 13.34846,-13.37989 7.3559,0 13.3484,6.00669 13.3484,13.37989 0,7.3733 -5.9925,13.38 -13.3484,13.38 z"
	fill="#fff" />
</svg>
