<svg width="25" height="32" fill="none" xmlns="http://www.w3.org/2000/svg"><path fill-rule="evenodd" clip-rule="evenodd" d="M17.794 28.334h3.47c.863 0 1.564-.7 1.564-1.565V15.603A7.823 7.823 0 0 0 20.41 9.95l-7.666-7.33-7.672 7.33a7.823 7.823 0 0 0-2.418 5.657v11.162c0 .864.7 1.565 1.565 1.565H7.7l.015-.014-1.185-2.88h-.982V15.393a4.44 4.44 0 0 1 1.37-3.205l5.826-5.566 5.82 5.566a4.433 4.433 0 0 1 1.37 3.204v10.05h-.99l-.01-.01-1.14 2.903zM12.764 9.83l3.887 3.485c.607.544.954 1.321.954 2.136v2.737l-3.463-3.174v3.496l-1.435-1.285-1.436 1.286v-3.444l-3.472 3.13v-2.56c0-.805.338-1.573.932-2.116l4.033-3.69Z" fill="#1b1a24"/><path fill-rule="evenodd" clip-rule="evenodd" d="M17.794 28.334h3.47c.863 0 1.564-.7 1.564-1.565V15.603A7.823 7.823 0 0 0 20.41 9.95l-7.666-7.33-7.672 7.33a7.823 7.823 0 0 0-2.418 5.657v11.162c0 .864.7 1.565 1.565 1.565H7.7l.015-.014-1.185-2.88h-.982V15.393a4.44 4.44 0 0 1 1.37-3.205l5.826-5.566 5.82 5.566a4.433 4.433 0 0 1 1.37 3.204v10.05h-.99l-.01-.01-1.14 2.903zM12.764 9.83l3.887 3.485c.607.544.954 1.321.954 2.136v2.737l-3.463-3.174v3.496l-1.435-1.285-1.436 1.286v-3.444l-3.472 3.13v-2.56c0-.805.338-1.573.932-2.116l4.033-3.69Z" fill="url(#a)" style="fill:url(#a)"/><path d="M16.65 13.316 12.766 9.83l-4.033 3.691a2.869 2.869 0 0 0-.931 2.116v2.56l3.47-3.13v3.444l1.437-1.286 1.435 1.286v-3.497l3.463 3.175v-2.738c0-.815-.347-1.59-.954-2.135z" fill="url(#b)" style="fill:url(#b)"/><path fill-rule="evenodd" clip-rule="evenodd" d="m12.743 23.53 5.04 4.804h.01l1.14-2.9-6.19-5.9-6.202 5.907H6.53l1.184 2.878z" fill="url(#c)" style="fill:url(#c)"/><defs><linearGradient id="a" x1="18.17" y1=".077" x2="18.172" y2="21.851" gradientUnits="userSpaceOnUse" gradientTransform="translate(-5.345 2.618)"><stop offset=".245" stop-color="#F81B5D" style="stop-color:#fff;stop-opacity:1"/><stop offset="1" stop-color="#FF782C" style="stop-color:#fff;stop-opacity:1"/></linearGradient><linearGradient id="b" x1="18.047" y1="7.212" x2="18.047" y2="15.893" gradientUnits="userSpaceOnUse" gradientTransform="translate(-5.345 2.618)"><stop stop-color="#FF782C" offset="0" style="stop-color:#fff;stop-opacity:1"/><stop offset="1" stop-color="#DF1A62" style="stop-color:#fff;stop-opacity:1"/></linearGradient><radialGradient id="c" cx="0" cy="0" r="1" gradientUnits="userSpaceOnUse" gradientTransform="matrix(.13038 6.91045 -9.74015 .18377 12.434 19.645)"><stop stop-color="#DC1166" offset="0" style="stop-color:#fff;stop-opacity:1"/><stop offset="1" stop-color="#FF782C" style="stop-color:#fff;stop-opacity:1"/></radialGradient></defs></svg>