<svg width="81" height="91" fill="none" xmlns="http://www.w3.org/2000/svg"><path d="M22.643 53.74 10.857 64.633" stroke="url(#a)" stroke-width="2"/><path d="m58.001 50.109 8.929 1.815" stroke="url(#b)" stroke-width="2"/><path d="M79.5 53.014c0 3.474-2.765 6.262-6.142 6.262-3.377 0-6.143-2.788-6.143-6.262 0-3.474 2.766-6.262 6.143-6.262S79.5 49.54 79.5 53.014Z" stroke="url(#c)" stroke-width="2"/><path d="M12.357 68.264c0 3.074-2.446 5.536-5.428 5.536-2.983 0-5.429-2.462-5.429-5.535 0-3.074 2.446-5.537 5.429-5.537 2.982 0 5.428 2.463 5.428 5.536Z" stroke="url(#d)" stroke-width="2"/><path d="M43.386 90c-.238-3.026.215-9.804 3.93-12.709 3.713-2.905 5.832-8.714 6.428-11.256-.12-1.453-1.143-3.704-4.286-1.09-1.143 1.453-1.429 2.784-1.429 3.269v-22.15c-.714-1.331-2.642-3.196-4.643 0v7.988m0 0v2.542m0-2.542v2.542m0 0v7.625-7.625Zm0 0c-.952-1.816-3.428-4.357-5.714 0m0 0v3.994m0-3.994v1.997m0 5.628v-3.63m0 0V58.59m0 0c-.952-1.392-3.357-3.34-5.357 0v2.724m0 0v3.63-3.63Zm0 0c-1.071-1.453-3.714-3.486-5.714 0 0 3.195-.238 10.772-.358 14.16-.119 1.211.072 3.922 1.786 5.084 2.143 1.453 2.857 3.268 2.5 9.441" stroke="url(#e)" stroke-width="2"/><path d="m50.143 27.233 5.714-9.44" stroke="url(#f)" stroke-width="2"/><path d="M27.285 29.412 15.856 13.797" stroke="url(#g)" stroke-width="2"/><path d="M63.786 13.435c0 2.873-2.286 5.173-5.071 5.173-2.785 0-5.071-2.3-5.071-5.173s2.286-5.173 5.071-5.173c2.785 0 5.071 2.3 5.071 5.173Z" stroke="url(#h)" stroke-width="2"/><path d="M25.739 57.735A19.716 19.716 0 0 1 20.5 44.3c0-10.83 8.635-19.608 19.286-19.608 10.651 0 19.286 8.778 19.286 19.608 0 7.257-3.879 13.594-9.643 16.984" stroke="url(#i)" stroke-width="2"/><path d="M20.215 7.625c0 3.675-2.926 6.626-6.5 6.626s-6.5-2.951-6.5-6.626C7.215 3.951 10.14 1 13.715 1s6.5 2.95 6.5 6.625Z" stroke="url(#j)" stroke-width="2"/><defs><linearGradient id="a" x1="10.857" y1="59.187" x2="22.643" y2="59.187" gradientUnits="userSpaceOnUse"><stop stop-color="#E3255E"/><stop offset=".445" stop-color="#FF2323"/><stop offset="1" stop-color="#E2CC00"/></linearGradient><linearGradient id="b" x1="58.001" y1="51.017" x2="66.93" y2="51.017" gradientUnits="userSpaceOnUse"><stop stop-color="#E3255E"/><stop offset=".445" stop-color="#FF2323"/><stop offset="1" stop-color="#E2CC00"/></linearGradient><linearGradient id="c" x1="66.215" y1="53.014" x2="80.501" y2="53.014" gradientUnits="userSpaceOnUse"><stop stop-color="#E3255E"/><stop offset=".445" stop-color="#FF2323"/><stop offset="1" stop-color="#E2CC00"/></linearGradient><linearGradient id="d" x1=".5" y1="68.264" x2="13.357" y2="68.264" gradientUnits="userSpaceOnUse"><stop stop-color="#E3255E"/><stop offset=".445" stop-color="#FF2323"/><stop offset="1" stop-color="#E2CC00"/></linearGradient><linearGradient id="e" x1="26.215" y1="67.15" x2="53.744" y2="67.15" gradientUnits="userSpaceOnUse"><stop stop-color="#E3255E"/><stop offset=".445" stop-color="#FF2323"/><stop offset="1" stop-color="#E2CC00"/></linearGradient><linearGradient id="f" x1="50.143" y1="22.513" x2="55.857" y2="22.513" gradientUnits="userSpaceOnUse"><stop stop-color="#E3255E"/><stop offset=".445" stop-color="#FF2323"/><stop offset="1" stop-color="#E2CC00"/></linearGradient><linearGradient id="g" x1="15.856" y1="21.605" x2="27.285" y2="21.605" gradientUnits="userSpaceOnUse"><stop stop-color="#E3255E"/><stop offset=".445" stop-color="#FF2323"/><stop offset="1" stop-color="#E2CC00"/></linearGradient><linearGradient id="h" x1="52.644" y1="13.435" x2="64.787" y2="13.435" gradientUnits="userSpaceOnUse"><stop stop-color="#E3255E"/><stop offset=".445" stop-color="#FF2323"/><stop offset="1" stop-color="#E2CC00"/></linearGradient><linearGradient id="i" x1="20.5" y1="42.988" x2="59.072" y2="42.988" gradientUnits="userSpaceOnUse"><stop stop-color="#E3255E"/><stop offset=".445" stop-color="#FF2323"/><stop offset="1" stop-color="#E2CC00"/></linearGradient><linearGradient id="j" x1="6.215" y1="7.625" x2="21.215" y2="7.625" gradientUnits="userSpaceOnUse"><stop stop-color="#E3255E"/><stop offset=".445" stop-color="#FF2323"/><stop offset="1" stop-color="#E2CC00"/></linearGradient></defs></svg>