<svg width="90" height="90" fill="none" xmlns="http://www.w3.org/2000/svg"><path d="m61.2 50 8.4 9.375L83.4 43.75" stroke="url(#a)" stroke-width="2" stroke-linecap="round"/><path d="m25.2 36.75 10.898 12L54 28.75" stroke="url(#b)" stroke-width="2" stroke-linecap="round"/><path d="M79.2 17.7v-4.73A7.969 7.969 0 0 0 71.233 5H9.2a8 8 0 0 0-8 8v47.75a8 8 0 0 0 8 8h46.226" stroke="url(#c)" stroke-width="2"/><path stroke="url(#d)" d="M0 57h55.2"/><rect x="53.8" y="19.75" width="35.2" height="64.25" rx="4" stroke="url(#e)" stroke-width="2"/><path stroke="url(#f)" d="M52.8 73.25H90"/><path stroke="url(#g)" d="M52.8 29.5H90"/><defs><linearGradient id="a" x1="61.2" y1="51.563" x2="83.4" y2="51.563" gradientUnits="userSpaceOnUse"><stop stop-color="#E3255E"/><stop offset=".445" stop-color="#FF2323"/><stop offset="1" stop-color="#E2CC00"/></linearGradient><linearGradient id="b" x1="25.2" y1="38.75" x2="54" y2="38.75" gradientUnits="userSpaceOnUse"><stop stop-color="#E3255E"/><stop offset=".445" stop-color="#FF2323"/><stop offset="1" stop-color="#E2CC00"/></linearGradient><linearGradient id="c" x1="1.2" y1="36.875" x2="79.201" y2="36.875" gradientUnits="userSpaceOnUse"><stop stop-color="#E3255E"/><stop offset=".445" stop-color="#FF2323"/><stop offset="1" stop-color="#E2CC00"/></linearGradient><linearGradient id="d" x1="0" y1="58" x2="55.2" y2="58" gradientUnits="userSpaceOnUse"><stop stop-color="#E3255E"/><stop offset=".445" stop-color="#FF2323"/><stop offset="1" stop-color="#E2CC00"/></linearGradient><linearGradient id="e" x1="52.8" y1="51.875" x2="90" y2="51.875" gradientUnits="userSpaceOnUse"><stop stop-color="#E3255E"/><stop offset=".445" stop-color="#FF2323"/><stop offset="1" stop-color="#E2CC00"/></linearGradient><linearGradient id="f" x1="52.8" y1="74.25" x2="90" y2="74.25" gradientUnits="userSpaceOnUse"><stop stop-color="#E3255E"/><stop offset=".445" stop-color="#FF2323"/><stop offset="1" stop-color="#E2CC00"/></linearGradient><linearGradient id="g" x1="52.8" y1="30.5" x2="90" y2="30.5" gradientUnits="userSpaceOnUse"><stop stop-color="#E3255E"/><stop offset=".445" stop-color="#FF2323"/><stop offset="1" stop-color="#E2CC00"/></linearGradient></defs></svg>