<svg width="69" height="81" fill="none" xmlns="http://www.w3.org/2000/svg"><path stroke="url(#a)" stroke-width="2" d="M1.5 57.211h11.6V80H1.5z"/><path stroke="url(#b)" stroke-width="2" d="M17.366 47.07h11.6V80h-11.6z"/><path stroke="url(#c)" stroke-width="2" d="M36.634 38.056h11.6V80h-11.6z"/><path stroke="url(#d)" stroke-width="2" d="M55.9 23.408h11.6V80H55.9z"/><path d="M60 11.704C48.1 30.296 15.233 41.802.5 42.69c18.7-1.127 50.433-19.998 54.967-33.803l-5.1-1.126L62.833 1v13.521L60 11.704Z" stroke="url(#e)" stroke-linecap="round"/><path d="m10.4 6.48-.2-.96.98-1 .2.96-.98 1Zm-.2 16.3v-1.92h1.18v1.92H10.2Zm.52-1.66c-.32 0-.687-.013-1.1-.04-.4-.013-.813-.04-1.24-.08-.413-.04-.813-.08-1.2-.12a7.162 7.162 0 0 1-.96-.16v-1.56a52.585 52.585 0 0 0 2.8.14c.56.013 1.1.02 1.62.02a6.47 6.47 0 0 0 1.52-.16c.453-.107.807-.307 1.06-.6.267-.293.4-.707.4-1.24v-.86c0-.6-.167-1.06-.5-1.38-.32-.32-.813-.48-1.48-.48h-1.5c-1.28 0-2.273-.28-2.98-.84-.693-.56-1.04-1.52-1.04-2.88v-.8c0-1.413.38-2.42 1.14-3.02.773-.613 1.867-.92 3.28-.92.467 0 .967.027 1.5.08.533.04 1.053.093 1.56.16.507.067.927.133 1.26.2v1.56c-.6-.04-1.273-.08-2.02-.12a28.745 28.745 0 0 0-2.08-.08c-.56 0-1.047.067-1.46.2-.4.12-.713.34-.94.66-.213.32-.32.773-.32 1.36v.6c0 .72.193 1.22.58 1.5.387.28.927.42 1.62.42h1.62c.84 0 1.527.153 2.06.46.547.307.953.727 1.22 1.26s.4 1.14.4 1.82v1.04c0 1.04-.213 1.84-.64 2.4-.427.56-1 .947-1.72 1.16-.72.2-1.54.3-2.46.3Z" fill="url(#f)"/><path d="M21.533 13.958c0 5.633-4.594 10.204-10.266 10.204C5.594 24.162 1 19.591 1 13.958 1 8.325 5.594 3.754 11.267 3.754c5.672 0 10.266 4.571 10.266 10.204Z" stroke="url(#g)"/><defs><linearGradient id="a" x1=".5" y1="68.606" x2="14.1" y2="68.606" gradientUnits="userSpaceOnUse"><stop stop-color="#E3255E"/><stop offset=".445" stop-color="#FF2323"/><stop offset="1" stop-color="#E2CC00"/></linearGradient><linearGradient id="b" x1="16.366" y1="63.535" x2="29.966" y2="63.535" gradientUnits="userSpaceOnUse"><stop stop-color="#E3255E"/><stop offset=".445" stop-color="#FF2323"/><stop offset="1" stop-color="#E2CC00"/></linearGradient><linearGradient id="c" x1="35.634" y1="59.028" x2="49.234" y2="59.028" gradientUnits="userSpaceOnUse"><stop stop-color="#E3255E"/><stop offset=".445" stop-color="#FF2323"/><stop offset="1" stop-color="#E2CC00"/></linearGradient><linearGradient id="d" x1="54.9" y1="51.704" x2="68.5" y2="51.704" gradientUnits="userSpaceOnUse"><stop stop-color="#E3255E"/><stop offset=".445" stop-color="#FF2323"/><stop offset="1" stop-color="#E2CC00"/></linearGradient><linearGradient id="e" x1=".5" y1="21.845" x2="62.833" y2="21.845" gradientUnits="userSpaceOnUse"><stop stop-color="#E3255E"/><stop offset=".445" stop-color="#FF2323"/><stop offset="1" stop-color="#E2CC00"/></linearGradient><linearGradient id="f" x1="5" y1="10" x2="17" y2="10" gradientUnits="userSpaceOnUse"><stop stop-color="#E3255E"/><stop offset=".445" stop-color="#FF2323"/><stop offset="1" stop-color="#E2CC00"/></linearGradient><linearGradient id="g" x1=".5" y1="13.958" x2="22.033" y2="13.958" gradientUnits="userSpaceOnUse"><stop stop-color="#E3255E"/><stop offset=".445" stop-color="#FF2323"/><stop offset="1" stop-color="#E2CC00"/></linearGradient></defs></svg>