<svg width="1021" height="693" fill="none" xmlns="http://www.w3.org/2000/svg"><path d="M387 500c-116.767-43.303-200-155.892-200-287.962C187 129.795 219.276 55.107 271.827 0" stroke="url(#a)" stroke-width="2" stroke-linecap="round"/><path d="M387 500c-116.767-43.303-200-155.892-200-287.962C187 129.795 219.276 55.107 271.827 0" stroke="url(#b)" stroke-width="2" stroke-linecap="round"/><path d="M387 500c-116.767-43.303-200-155.892-200-287.962C187 129.795 219.276 55.107 271.827 0" stroke="url(#c)" stroke-width="2" stroke-linecap="round"/><g filter="url(#d)" stroke-width="50" stroke-linecap="round"><path d="M387 500c-116.767-43.303-200-155.892-200-287.962C187 129.795 219.276 55.107 271.827 0" stroke="url(#e)" stroke-opacity=".2"/><path d="M387 500c-116.767-43.303-200-155.892-200-287.962C187 129.795 219.276 55.107 271.827 0" stroke="url(#f)"/><path d="M387 500c-116.767-43.303-200-155.892-200-287.962C187 129.795 219.276 55.107 271.827 0" stroke="url(#g)"/></g><path d="M362 530c-124.006-45.987-212.4-165.557-212.4-305.816 0-87.342 34.277-166.66 90.086-225.184" stroke="url(#h)" stroke-width="2" stroke-linecap="round"/><path d="M362 530c-124.006-45.987-212.4-165.557-212.4-305.816 0-87.342 34.277-166.66 90.086-225.184" stroke="url(#i)" stroke-width="2" stroke-linecap="round"/><path d="M362 530c-124.006-45.987-212.4-165.557-212.4-305.816 0-87.342 34.277-166.66 90.086-225.184" stroke="url(#j)" stroke-width="2" stroke-linecap="round"/><g filter="url(#k)" stroke-width="50" stroke-linecap="round"><path d="M362 530c-124.006-45.987-212.4-165.557-212.4-305.816 0-87.342 34.277-166.66 90.086-225.184" stroke="url(#l)" stroke-opacity=".2"/><path d="M362 530c-124.006-45.987-212.4-165.557-212.4-305.816 0-87.342 34.277-166.66 90.086-225.184" stroke="url(#m)"/><path d="M362 530c-124.006-45.987-212.4-165.557-212.4-305.816 0-87.342 34.277-166.66 90.086-225.184" stroke="url(#n)"/></g><path d="M352.4 577C213.214 525.383 114 391.177 114 233.749 114 135.716 152.473 46.688 215.113-19" stroke="url(#o)" stroke-width="2" stroke-linecap="round"/><path d="M352.4 577C213.214 525.383 114 391.177 114 233.749 114 135.716 152.473 46.688 215.113-19" stroke="url(#p)" stroke-width="2" stroke-linecap="round"/><path d="M352.4 577C213.214 525.383 114 391.177 114 233.749 114 135.716 152.473 46.688 215.113-19" stroke="url(#q)" stroke-width="2" stroke-linecap="round"/><g filter="url(#r)" stroke-width="50" stroke-linecap="round"><path d="M352.4 577C213.214 525.383 114 391.177 114 233.749 114 135.716 152.473 46.688 215.113-19" stroke="url(#s)" stroke-opacity=".2"/><path d="M352.4 577C213.214 525.383 114 391.177 114 233.749 114 135.716 152.473 46.688 215.113-19" stroke="url(#t)"/><path d="M352.4 577C213.214 525.383 114 391.177 114 233.749 114 135.716 152.473 46.688 215.113-19" stroke="url(#u)"/></g><path d="M330.4 618c-148.878-56.207-255-202.347-255-373.775C75.4 137.474 116.552 40.529 183.554-31" stroke="url(#v)" stroke-width="2" stroke-linecap="round"/><path d="M330.4 618c-148.878-56.207-255-202.347-255-373.775C75.4 137.474 116.552 40.529 183.554-31" stroke="url(#w)" stroke-width="2" stroke-linecap="round"/><path d="M330.4 618c-148.878-56.207-255-202.347-255-373.775C75.4 137.474 116.552 40.529 183.554-31" stroke="url(#x)" stroke-width="2" stroke-linecap="round"/><g filter="url(#y)" stroke-width="50" stroke-linecap="round"><path d="M330.4 618c-148.878-56.207-255-202.347-255-373.775C75.4 137.474 116.552 40.529 183.554-31" stroke="url(#z)" stroke-opacity=".2"/><path d="M330.4 618c-148.878-56.207-255-202.347-255-373.775C75.4 137.474 116.552 40.529 183.554-31" stroke="url(#A)"/><path d="M330.4 618c-148.878-56.207-255-202.347-255-373.775C75.4 137.474 116.552 40.529 183.554-31" stroke="url(#B)"/></g><path d="M638 500c116.767-43.303 200-155.892 200-287.962C838 129.795 805.724 55.107 753.173 0" stroke="url(#C)" stroke-width="2" stroke-linecap="round"/><path d="M638 500c116.767-43.303 200-155.892 200-287.962C838 129.795 805.724 55.107 753.173 0" stroke="url(#D)" stroke-width="2" stroke-linecap="round"/><path d="M638 500c116.767-43.303 200-155.892 200-287.962C838 129.795 805.724 55.107 753.173 0" stroke="url(#E)" stroke-width="2" stroke-linecap="round"/><g filter="url(#F)" stroke-width="50" stroke-linecap="round"><path d="M638 500c116.767-43.303 200-155.892 200-287.962C838 129.795 805.724 55.107 753.173 0" stroke="url(#G)" stroke-opacity=".2"/><path d="M638 500c116.767-43.303 200-155.892 200-287.962C838 129.795 805.724 55.107 753.173 0" stroke="url(#H)"/><path d="M638 500c116.767-43.303 200-155.892 200-287.962C838 129.795 805.724 55.107 753.173 0" stroke="url(#I)"/></g><path d="M662 530c124.007-45.987 212.4-165.557 212.4-305.816 0-87.342-34.277-166.66-90.086-225.184" stroke="url(#J)" stroke-width="2" stroke-linecap="round"/><path d="M662 530c124.007-45.987 212.4-165.557 212.4-305.816 0-87.342-34.277-166.66-90.086-225.184" stroke="url(#K)" stroke-width="2" stroke-linecap="round"/><path d="M662 530c124.007-45.987 212.4-165.557 212.4-305.816 0-87.342-34.277-166.66-90.086-225.184" stroke="url(#L)" stroke-width="2" stroke-linecap="round"/><g filter="url(#M)" stroke-width="50" stroke-linecap="round"><path d="M662 530c124.007-45.987 212.4-165.557 212.4-305.816 0-87.342-34.277-166.66-90.086-225.184" stroke="url(#N)" stroke-opacity=".2"/><path d="M662 530c124.007-45.987 212.4-165.557 212.4-305.816 0-87.342-34.277-166.66-90.086-225.184" stroke="url(#O)"/><path d="M662 530c124.007-45.987 212.4-165.557 212.4-305.816 0-87.342-34.277-166.66-90.086-225.184" stroke="url(#P)"/></g><path d="M672.4 577c139.186-51.617 238.4-185.823 238.4-343.251 0-98.033-38.473-187.061-101.113-252.749" stroke="url(#Q)" stroke-width="2" stroke-linecap="round"/><path d="M672.4 577c139.186-51.617 238.4-185.823 238.4-343.251 0-98.033-38.473-187.061-101.113-252.749" stroke="url(#R)" stroke-width="2" stroke-linecap="round"/><path d="M672.4 577c139.186-51.617 238.4-185.823 238.4-343.251 0-98.033-38.473-187.061-101.113-252.749" stroke="url(#S)" stroke-width="2" stroke-linecap="round"/><g filter="url(#T)" stroke-width="50" stroke-linecap="round"><path d="M672.4 577c139.186-51.617 238.4-185.823 238.4-343.251 0-98.033-38.473-187.061-101.113-252.749" stroke="url(#U)" stroke-opacity=".2"/><path d="M672.4 577c139.186-51.617 238.4-185.823 238.4-343.251 0-98.033-38.473-187.061-101.113-252.749" stroke="url(#V)"/><path d="M672.4 577c139.186-51.617 238.4-185.823 238.4-343.251 0-98.033-38.473-187.061-101.113-252.749" stroke="url(#W)"/></g><path d="M690.4 618c148.878-56.207 255-202.347 255-373.775C945.4 137.474 904.248 40.529 837.246-31" stroke="url(#X)" stroke-width="2" stroke-linecap="round"/><path d="M690.4 618c148.878-56.207 255-202.347 255-373.775C945.4 137.474 904.248 40.529 837.246-31" stroke="url(#Y)" stroke-width="2" stroke-linecap="round"/><path d="M690.4 618c148.878-56.207 255-202.347 255-373.775C945.4 137.474 904.248 40.529 837.246-31" stroke="url(#Z)" stroke-width="2" stroke-linecap="round"/><g filter="url(#aa)" stroke-width="50" stroke-linecap="round"><path d="M690.4 618c148.878-56.207 255-202.347 255-373.775C945.4 137.474 904.248 40.529 837.246-31" stroke="url(#ab)" stroke-opacity=".2"/><path d="M690.4 618c148.878-56.207 255-202.347 255-373.775C945.4 137.474 904.248 40.529 837.246-31" stroke="url(#ac)"/><path d="M690.4 618c148.878-56.207 255-202.347 255-373.775C945.4 137.474 904.248 40.529 837.246-31" stroke="url(#ad)"/></g><defs><linearGradient id="a" x1="287" y1="0" x2="287" y2="500" gradientUnits="userSpaceOnUse"><stop stop-color="#CF00A2"/><stop offset=".6" stop-color="#FE4545"/><stop offset="1" stop-color="#DFC904"/></linearGradient><linearGradient id="b" x1="335" y1="478" x2="387" y2="500" gradientUnits="userSpaceOnUse"><stop stop-opacity="0"/><stop offset="1" stop-color="#070F24"/></linearGradient><linearGradient id="c" x1="276" y1="0" x2="232.5" y2="49.5" gradientUnits="userSpaceOnUse"><stop stop-color="#070F24"/><stop offset="1" stop-opacity="0"/></linearGradient><linearGradient id="e" x1="287" y1="0" x2="287" y2="500" gradientUnits="userSpaceOnUse"><stop stop-color="#CF00A2"/><stop offset=".6" stop-color="#FE4545"/><stop offset="1" stop-color="#DFC904"/></linearGradient><linearGradient id="f" x1="335" y1="478" x2="387" y2="500" gradientUnits="userSpaceOnUse"><stop stop-opacity="0"/><stop offset="1" stop-color="#070F24"/></linearGradient><linearGradient id="g" x1="276" y1="0" x2="232.5" y2="49.5" gradientUnits="userSpaceOnUse"><stop stop-color="#070F24"/><stop offset="1" stop-opacity="0"/></linearGradient><linearGradient id="h" x1="255.8" y1="-1" x2="255.8" y2="530" gradientUnits="userSpaceOnUse"><stop stop-color="#CF00A2"/><stop offset=".6" stop-color="#FE4545"/><stop offset="1" stop-color="#DFC904"/></linearGradient><linearGradient id="i" x1="206" y1="441" x2="362" y2="530" gradientUnits="userSpaceOnUse"><stop stop-opacity="0"/><stop offset="1" stop-color="#070F24"/></linearGradient><linearGradient id="j" x1="244.118" y1="-1" x2="187" y2="86.5" gradientUnits="userSpaceOnUse"><stop stop-color="#070F24"/><stop offset="1" stop-opacity="0"/></linearGradient><linearGradient id="l" x1="255.8" y1="-1" x2="255.8" y2="530" gradientUnits="userSpaceOnUse"><stop stop-color="#CF00A2"/><stop offset=".6" stop-color="#FE4545"/><stop offset="1" stop-color="#DFC904"/></linearGradient><linearGradient id="m" x1="150" y1="366.5" x2="362" y2="530" gradientUnits="userSpaceOnUse"><stop stop-opacity="0"/><stop offset="1" stop-color="#070F24"/></linearGradient><linearGradient id="n" x1="244.118" y1="-1" x2="88" y2="199" gradientUnits="userSpaceOnUse"><stop stop-color="#070F24"/><stop offset="1" stop-opacity="0"/></linearGradient><linearGradient id="o" x1="233.2" y1="-19" x2="233.2" y2="577" gradientUnits="userSpaceOnUse"><stop stop-color="#CF00A2"/><stop offset=".6" stop-color="#FE4545"/><stop offset="1" stop-color="#DFC904"/></linearGradient><linearGradient id="p" x1="96.5" y1="405.5" x2="352.4" y2="577" gradientUnits="userSpaceOnUse"><stop stop-opacity="0"/><stop offset="1" stop-color="#070F24"/></linearGradient><linearGradient id="q" x1="220.088" y1="-19" x2="58" y2="148" gradientUnits="userSpaceOnUse"><stop stop-color="#070F24"/><stop offset="1" stop-opacity="0"/></linearGradient><linearGradient id="s" x1="233.2" y1="-19" x2="233.2" y2="577" gradientUnits="userSpaceOnUse"><stop stop-color="#CF00A2"/><stop offset=".6" stop-color="#FE4545"/><stop offset="1" stop-color="#DFC904"/></linearGradient><linearGradient id="t" x1="290.416" y1="550.776" x2="352.4" y2="577" gradientUnits="userSpaceOnUse"><stop stop-color="#070F24" stop-opacity="0"/><stop offset="1" stop-color="#070F24"/></linearGradient><linearGradient id="u" x1="220.088" y1="-19" x2="-436" y2="456" gradientUnits="userSpaceOnUse"><stop stop-color="#070F24"/><stop offset="1" stop-color="#070F24" stop-opacity="0"/></linearGradient><linearGradient id="v" x1="202.9" y1="-31" x2="202.9" y2="618" gradientUnits="userSpaceOnUse"><stop stop-color="#CF00A2"/><stop offset=".6" stop-color="#FE4545"/><stop offset="1" stop-color="#DFC904"/></linearGradient><linearGradient id="w" x1="-39.5" y1="377" x2="333.431" y2="613.215" gradientUnits="userSpaceOnUse"><stop stop-opacity="0"/><stop offset="1" stop-color="#070F24"/></linearGradient><linearGradient id="x" x1="188.875" y1="-31" x2="-95.655" y2="287.955" gradientUnits="userSpaceOnUse"><stop stop-color="#070F24"/><stop offset="1" stop-opacity="0"/></linearGradient><linearGradient id="z" x1="202.9" y1="-31" x2="202.9" y2="618" gradientUnits="userSpaceOnUse"><stop stop-color="#CF00A2"/><stop offset=".6" stop-color="#FE4545"/><stop offset="1" stop-color="#DFC904"/></linearGradient><linearGradient id="A" x1="-405" y1="97.5" x2="336.957" y2="608.479" gradientUnits="userSpaceOnUse"><stop stop-color="#070F24" stop-opacity="0"/><stop offset="1" stop-color="#070F24"/></linearGradient><linearGradient id="B" x1="188.875" y1="-31" x2="-790.136" y2="822.641" gradientUnits="userSpaceOnUse"><stop stop-color="#070F24"/><stop offset="1" stop-color="#070F24" stop-opacity="0"/></linearGradient><linearGradient id="C" x1="738" y1="0" x2="738" y2="500" gradientUnits="userSpaceOnUse"><stop stop-color="#CF00A2"/><stop offset=".6" stop-color="#FE4545"/><stop offset="1" stop-color="#DFC904"/></linearGradient><linearGradient id="D" x1="690" y1="478" x2="638" y2="500" gradientUnits="userSpaceOnUse"><stop stop-opacity="0"/><stop offset="1" stop-color="#070F24"/></linearGradient><linearGradient id="E" x1="749" y1="0" x2="792.5" y2="49.5" gradientUnits="userSpaceOnUse"><stop stop-color="#070F24"/><stop offset="1" stop-opacity="0"/></linearGradient><linearGradient id="G" x1="738" y1="0" x2="738" y2="500" gradientUnits="userSpaceOnUse"><stop stop-color="#CF00A2"/><stop offset=".6" stop-color="#FE4545"/><stop offset="1" stop-color="#DFC904"/></linearGradient><linearGradient id="H" x1="690" y1="478" x2="638" y2="500" gradientUnits="userSpaceOnUse"><stop stop-opacity="0"/><stop offset="1" stop-color="#070F24"/></linearGradient><linearGradient id="I" x1="749" y1="0" x2="792.5" y2="49.5" gradientUnits="userSpaceOnUse"><stop stop-color="#070F24"/><stop offset="1" stop-opacity="0"/></linearGradient><linearGradient id="J" x1="768.2" y1="-1" x2="768.2" y2="530" gradientUnits="userSpaceOnUse"><stop stop-color="#CF00A2"/><stop offset=".6" stop-color="#FE4545"/><stop offset="1" stop-color="#DFC904"/></linearGradient><linearGradient id="K" x1="912" y1="358.5" x2="662" y2="530" gradientUnits="userSpaceOnUse"><stop stop-opacity="0"/><stop offset="1" stop-color="#070F24"/></linearGradient><linearGradient id="L" x1="779.882" y1="-1" x2="961.5" y2="232" gradientUnits="userSpaceOnUse"><stop stop-color="#070F24"/><stop offset="1" stop-opacity="0"/></linearGradient><linearGradient id="N" x1="768.2" y1="-1" x2="768.2" y2="530" gradientUnits="userSpaceOnUse"><stop stop-color="#CF00A2"/><stop offset=".6" stop-color="#FE4545"/><stop offset="1" stop-color="#DFC904"/></linearGradient><linearGradient id="O" x1="890" y1="372" x2="662" y2="530" gradientUnits="userSpaceOnUse"><stop stop-opacity="0"/><stop offset="1" stop-color="#070F24"/></linearGradient><linearGradient id="P" x1="779.882" y1="-1" x2="904" y2="163.5" gradientUnits="userSpaceOnUse"><stop stop-color="#070F24"/><stop offset="1" stop-opacity="0"/></linearGradient><linearGradient id="Q" x1="791.6" y1="-19" x2="791.6" y2="577" gradientUnits="userSpaceOnUse"><stop stop-color="#CF00A2"/><stop offset=".6" stop-color="#FE4545"/><stop offset="1" stop-color="#DFC904"/></linearGradient><linearGradient id="R" x1="928.5" y1="414.5" x2="672.4" y2="577" gradientUnits="userSpaceOnUse"><stop stop-opacity="0"/><stop offset="1" stop-color="#070F24"/></linearGradient><linearGradient id="S" x1="804.712" y1="-19" x2="856.564" y2="40.004" gradientUnits="userSpaceOnUse"><stop stop-color="#070F24"/><stop offset="1" stop-opacity="0"/></linearGradient><linearGradient id="U" x1="791.6" y1="-19" x2="791.6" y2="577" gradientUnits="userSpaceOnUse"><stop stop-color="#CF00A2"/><stop offset=".6" stop-color="#FE4545"/><stop offset="1" stop-color="#DFC904"/></linearGradient><linearGradient id="V" x1="1074" y1="318.5" x2="672.4" y2="577" gradientUnits="userSpaceOnUse"><stop stop-color="#070F24" stop-opacity="0"/><stop offset="1" stop-color="#070F24"/></linearGradient><linearGradient id="W" x1="804.712" y1="-19" x2="1167.5" y2="387" gradientUnits="userSpaceOnUse"><stop stop-color="#070F24"/><stop offset="1" stop-color="#070F24" stop-opacity="0"/></linearGradient><linearGradient id="X" x1="817.9" y1="-31" x2="817.9" y2="618" gradientUnits="userSpaceOnUse"><stop stop-color="#CF00A2"/><stop offset=".6" stop-color="#FE4545"/><stop offset="1" stop-color="#DFC904"/></linearGradient><linearGradient id="Y" x1="1058.5" y1="513" x2="689.113" y2="613.26" gradientUnits="userSpaceOnUse"><stop stop-opacity="0"/><stop offset="1" stop-color="#070F24"/></linearGradient><linearGradient id="Z" x1="831.925" y1="-31" x2="1089.29" y2="238.937" gradientUnits="userSpaceOnUse"><stop stop-color="#070F24"/><stop offset="1" stop-opacity="0"/></linearGradient><linearGradient id="ab" x1="817.9" y1="-31" x2="817.9" y2="618" gradientUnits="userSpaceOnUse"><stop stop-color="#CF00A2"/><stop offset=".6" stop-color="#FE4545"/><stop offset="1" stop-color="#DFC904"/></linearGradient><linearGradient id="ac" x1="1832" y1="-253" x2="679.413" y2="603.21" gradientUnits="userSpaceOnUse"><stop stop-color="#070F24" stop-opacity="0"/><stop offset="1" stop-color="#070F24"/></linearGradient><linearGradient id="ad" x1="831.925" y1="-31" x2="1402.56" y2="677.382" gradientUnits="userSpaceOnUse"><stop stop-color="#070F24"/><stop offset="1" stop-color="#070F24" stop-opacity="0"/></linearGradient><filter id="d" x="112" y="-75" width="350.007" height="650.007" filterUnits="userSpaceOnUse" color-interpolation-filters="sRGB"><feFlood flood-opacity="0" result="BackgroundImageFix"/><feBlend in="SourceGraphic" in2="BackgroundImageFix" result="shape"/><feGaussianBlur stdDeviation="25" result="effect1_foregroundBlur_530_463"/></filter><filter id="k" x="74.6" y="-76" width="362.407" height="681.007" filterUnits="userSpaceOnUse" color-interpolation-filters="sRGB"><feFlood flood-opacity="0" result="BackgroundImageFix"/><feBlend in="SourceGraphic" in2="BackgroundImageFix" result="shape"/><feGaussianBlur stdDeviation="25" result="effect1_foregroundBlur_530_463"/></filter><filter id="r" x="39" y="-94" width="388.407" height="746.007" filterUnits="userSpaceOnUse" color-interpolation-filters="sRGB"><feFlood flood-opacity="0" result="BackgroundImageFix"/><feBlend in="SourceGraphic" in2="BackgroundImageFix" result="shape"/><feGaussianBlur stdDeviation="25" result="effect1_foregroundBlur_530_463"/></filter><filter id="y" x=".4" y="-106" width="405.007" height="799.007" filterUnits="userSpaceOnUse" color-interpolation-filters="sRGB"><feFlood flood-opacity="0" result="BackgroundImageFix"/><feBlend in="SourceGraphic" in2="BackgroundImageFix" result="shape"/><feGaussianBlur stdDeviation="25" result="effect1_foregroundBlur_530_463"/></filter><filter id="F" x="562.993" y="-75" width="350.007" height="650.007" filterUnits="userSpaceOnUse" color-interpolation-filters="sRGB"><feFlood flood-opacity="0" result="BackgroundImageFix"/><feBlend in="SourceGraphic" in2="BackgroundImageFix" result="shape"/><feGaussianBlur stdDeviation="25" result="effect1_foregroundBlur_530_463"/></filter><filter id="M" x="586.993" y="-76" width="362.407" height="681.007" filterUnits="userSpaceOnUse" color-interpolation-filters="sRGB"><feFlood flood-opacity="0" result="BackgroundImageFix"/><feBlend in="SourceGraphic" in2="BackgroundImageFix" result="shape"/><feGaussianBlur stdDeviation="25" result="effect1_foregroundBlur_530_463"/></filter><filter id="T" x="597.393" y="-94" width="388.407" height="746.007" filterUnits="userSpaceOnUse" color-interpolation-filters="sRGB"><feFlood flood-opacity="0" result="BackgroundImageFix"/><feBlend in="SourceGraphic" in2="BackgroundImageFix" result="shape"/><feGaussianBlur stdDeviation="25" result="effect1_foregroundBlur_530_463"/></filter><filter id="aa" x="615.393" y="-106" width="405.007" height="799.007" filterUnits="userSpaceOnUse" color-interpolation-filters="sRGB"><feFlood flood-opacity="0" result="BackgroundImageFix"/><feBlend in="SourceGraphic" in2="BackgroundImageFix" result="shape"/><feGaussianBlur stdDeviation="25" result="effect1_foregroundBlur_530_463"/></filter></defs></svg>