<svg width="1021" height="693" viewBox="0 0 1021 693" fill="none" xmlns="http://www.w3.org/2000/svg">
<path d="M387 500C270.233 456.697 187 344.108 187 212.038C187 129.795 219.276 55.107 271.827 0" stroke="url(#paint0_linear_530_463)" stroke-width="2" stroke-linecap="round"/>
<path d="M387 500C270.233 456.697 187 344.108 187 212.038C187 129.795 219.276 55.107 271.827 0" stroke="url(#paint1_linear_530_463)" stroke-width="2" stroke-linecap="round"/>
<path d="M387 500C270.233 456.697 187 344.108 187 212.038C187 129.795 219.276 55.107 271.827 0" stroke="url(#paint2_linear_530_463)" stroke-width="2" stroke-linecap="round"/>
<g filter="url(#filter0_f_530_463)">
<path d="M387 500C270.233 456.697 187 344.108 187 212.038C187 129.795 219.276 55.107 271.827 0" stroke="url(#paint3_linear_530_463)" stroke-opacity="0.2" stroke-width="50" stroke-linecap="round"/>
<path d="M387 500C270.233 456.697 187 344.108 187 212.038C187 129.795 219.276 55.107 271.827 0" stroke="url(#paint4_linear_530_463)" stroke-width="50" stroke-linecap="round"/>
<path d="M387 500C270.233 456.697 187 344.108 187 212.038C187 129.795 219.276 55.107 271.827 0" stroke="url(#paint5_linear_530_463)" stroke-width="50" stroke-linecap="round"/>
</g>
<path d="M362 530C237.994 484.013 149.6 364.443 149.6 224.184C149.6 136.842 183.877 57.5236 239.686 -1" stroke="url(#paint6_linear_530_463)" stroke-width="2" stroke-linecap="round"/>
<path d="M362 530C237.994 484.013 149.6 364.443 149.6 224.184C149.6 136.842 183.877 57.5236 239.686 -1" stroke="url(#paint7_linear_530_463)" stroke-width="2" stroke-linecap="round"/>
<path d="M362 530C237.994 484.013 149.6 364.443 149.6 224.184C149.6 136.842 183.877 57.5236 239.686 -1" stroke="url(#paint8_linear_530_463)" stroke-width="2" stroke-linecap="round"/>
<g filter="url(#filter1_f_530_463)">
<path d="M362 530C237.994 484.013 149.6 364.443 149.6 224.184C149.6 136.842 183.877 57.5236 239.686 -1" stroke="url(#paint9_linear_530_463)" stroke-opacity="0.2" stroke-width="50" stroke-linecap="round"/>
<path d="M362 530C237.994 484.013 149.6 364.443 149.6 224.184C149.6 136.842 183.877 57.5236 239.686 -1" stroke="url(#paint10_linear_530_463)" stroke-width="50" stroke-linecap="round"/>
<path d="M362 530C237.994 484.013 149.6 364.443 149.6 224.184C149.6 136.842 183.877 57.5236 239.686 -1" stroke="url(#paint11_linear_530_463)" stroke-width="50" stroke-linecap="round"/>
</g>
<path d="M352.4 577C213.214 525.383 114 391.177 114 233.749C114 135.716 152.473 46.6875 215.113 -19" stroke="url(#paint12_linear_530_463)" stroke-width="2" stroke-linecap="round"/>
<path d="M352.4 577C213.214 525.383 114 391.177 114 233.749C114 135.716 152.473 46.6875 215.113 -19" stroke="url(#paint13_linear_530_463)" stroke-width="2" stroke-linecap="round"/>
<path d="M352.4 577C213.214 525.383 114 391.177 114 233.749C114 135.716 152.473 46.6875 215.113 -19" stroke="url(#paint14_linear_530_463)" stroke-width="2" stroke-linecap="round"/>
<g filter="url(#filter2_f_530_463)">
<path d="M352.4 577C213.214 525.383 114 391.177 114 233.749C114 135.716 152.473 46.6875 215.113 -19" stroke="url(#paint15_linear_530_463)" stroke-opacity="0.2" stroke-width="50" stroke-linecap="round"/>
<path d="M352.4 577C213.214 525.383 114 391.177 114 233.749C114 135.716 152.473 46.6875 215.113 -19" stroke="url(#paint16_linear_530_463)" stroke-width="50" stroke-linecap="round"/>
<path d="M352.4 577C213.214 525.383 114 391.177 114 233.749C114 135.716 152.473 46.6875 215.113 -19" stroke="url(#paint17_linear_530_463)" stroke-width="50" stroke-linecap="round"/>
</g>
<path d="M330.4 618C181.522 561.793 75.3999 415.653 75.3999 244.225C75.3999 137.474 116.552 40.5289 183.554 -31" stroke="url(#paint18_linear_530_463)" stroke-width="2" stroke-linecap="round"/>
<path d="M330.4 618C181.522 561.793 75.3999 415.653 75.3999 244.225C75.3999 137.474 116.552 40.5289 183.554 -31" stroke="url(#paint19_linear_530_463)" stroke-width="2" stroke-linecap="round"/>
<path d="M330.4 618C181.522 561.793 75.3999 415.653 75.3999 244.225C75.3999 137.474 116.552 40.5289 183.554 -31" stroke="url(#paint20_linear_530_463)" stroke-width="2" stroke-linecap="round"/>
<g filter="url(#filter3_f_530_463)">
<path d="M330.4 618C181.522 561.793 75.3999 415.653 75.3999 244.225C75.3999 137.474 116.552 40.5289 183.554 -31" stroke="url(#paint21_linear_530_463)" stroke-opacity="0.2" stroke-width="50" stroke-linecap="round"/>
<path d="M330.4 618C181.522 561.793 75.3999 415.653 75.3999 244.225C75.3999 137.474 116.552 40.5289 183.554 -31" stroke="url(#paint22_linear_530_463)" stroke-width="50" stroke-linecap="round"/>
<path d="M330.4 618C181.522 561.793 75.3999 415.653 75.3999 244.225C75.3999 137.474 116.552 40.5289 183.554 -31" stroke="url(#paint23_linear_530_463)" stroke-width="50" stroke-linecap="round"/>
</g>
<path d="M638 500C754.767 456.697 838 344.108 838 212.038C838 129.795 805.724 55.107 753.173 0" stroke="url(#paint24_linear_530_463)" stroke-width="2" stroke-linecap="round"/>
<path d="M638 500C754.767 456.697 838 344.108 838 212.038C838 129.795 805.724 55.107 753.173 0" stroke="url(#paint25_linear_530_463)" stroke-width="2" stroke-linecap="round"/>
<path d="M638 500C754.767 456.697 838 344.108 838 212.038C838 129.795 805.724 55.107 753.173 0" stroke="url(#paint26_linear_530_463)" stroke-width="2" stroke-linecap="round"/>
<g filter="url(#filter4_f_530_463)">
<path d="M638 500C754.767 456.697 838 344.108 838 212.038C838 129.795 805.724 55.107 753.173 0" stroke="url(#paint27_linear_530_463)" stroke-opacity="0.2" stroke-width="50" stroke-linecap="round"/>
<path d="M638 500C754.767 456.697 838 344.108 838 212.038C838 129.795 805.724 55.107 753.173 0" stroke="url(#paint28_linear_530_463)" stroke-width="50" stroke-linecap="round"/>
<path d="M638 500C754.767 456.697 838 344.108 838 212.038C838 129.795 805.724 55.107 753.173 0" stroke="url(#paint29_linear_530_463)" stroke-width="50" stroke-linecap="round"/>
</g>
<path d="M662 530C786.007 484.013 874.4 364.443 874.4 224.184C874.4 136.842 840.123 57.5236 784.314 -1" stroke="url(#paint30_linear_530_463)" stroke-width="2" stroke-linecap="round"/>
<path d="M662 530C786.007 484.013 874.4 364.443 874.4 224.184C874.4 136.842 840.123 57.5236 784.314 -1" stroke="url(#paint31_linear_530_463)" stroke-width="2" stroke-linecap="round"/>
<path d="M662 530C786.007 484.013 874.4 364.443 874.4 224.184C874.4 136.842 840.123 57.5236 784.314 -1" stroke="url(#paint32_linear_530_463)" stroke-width="2" stroke-linecap="round"/>
<g filter="url(#filter5_f_530_463)">
<path d="M662 530C786.007 484.013 874.4 364.443 874.4 224.184C874.4 136.842 840.123 57.5236 784.314 -1" stroke="url(#paint33_linear_530_463)" stroke-opacity="0.2" stroke-width="50" stroke-linecap="round"/>
<path d="M662 530C786.007 484.013 874.4 364.443 874.4 224.184C874.4 136.842 840.123 57.5236 784.314 -1" stroke="url(#paint34_linear_530_463)" stroke-width="50" stroke-linecap="round"/>
<path d="M662 530C786.007 484.013 874.4 364.443 874.4 224.184C874.4 136.842 840.123 57.5236 784.314 -1" stroke="url(#paint35_linear_530_463)" stroke-width="50" stroke-linecap="round"/>
</g>
<path d="M672.4 577C811.586 525.383 910.8 391.177 910.8 233.749C910.8 135.716 872.327 46.6875 809.687 -19" stroke="url(#paint36_linear_530_463)" stroke-width="2" stroke-linecap="round"/>
<path d="M672.4 577C811.586 525.383 910.8 391.177 910.8 233.749C910.8 135.716 872.327 46.6875 809.687 -19" stroke="url(#paint37_linear_530_463)" stroke-width="2" stroke-linecap="round"/>
<path d="M672.4 577C811.586 525.383 910.8 391.177 910.8 233.749C910.8 135.716 872.327 46.6875 809.687 -19" stroke="url(#paint38_linear_530_463)" stroke-width="2" stroke-linecap="round"/>
<g filter="url(#filter6_f_530_463)">
<path d="M672.4 577C811.586 525.383 910.8 391.177 910.8 233.749C910.8 135.716 872.327 46.6875 809.687 -19" stroke="url(#paint39_linear_530_463)" stroke-opacity="0.2" stroke-width="50" stroke-linecap="round"/>
<path d="M672.4 577C811.586 525.383 910.8 391.177 910.8 233.749C910.8 135.716 872.327 46.6875 809.687 -19" stroke="url(#paint40_linear_530_463)" stroke-width="50" stroke-linecap="round"/>
<path d="M672.4 577C811.586 525.383 910.8 391.177 910.8 233.749C910.8 135.716 872.327 46.6875 809.687 -19" stroke="url(#paint41_linear_530_463)" stroke-width="50" stroke-linecap="round"/>
</g>
<path d="M690.4 618C839.278 561.793 945.4 415.653 945.4 244.225C945.4 137.474 904.248 40.5289 837.246 -31" stroke="url(#paint42_linear_530_463)" stroke-width="2" stroke-linecap="round"/>
<path d="M690.4 618C839.278 561.793 945.4 415.653 945.4 244.225C945.4 137.474 904.248 40.5289 837.246 -31" stroke="url(#paint43_linear_530_463)" stroke-width="2" stroke-linecap="round"/>
<path d="M690.4 618C839.278 561.793 945.4 415.653 945.4 244.225C945.4 137.474 904.248 40.5289 837.246 -31" stroke="url(#paint44_linear_530_463)" stroke-width="2" stroke-linecap="round"/>
<g filter="url(#filter7_f_530_463)">
<path d="M690.4 618C839.278 561.793 945.4 415.653 945.4 244.225C945.4 137.474 904.248 40.5289 837.246 -31" stroke="url(#paint45_linear_530_463)" stroke-opacity="0.2" stroke-width="50" stroke-linecap="round"/>
<path d="M690.4 618C839.278 561.793 945.4 415.653 945.4 244.225C945.4 137.474 904.248 40.5289 837.246 -31" stroke="url(#paint46_linear_530_463)" stroke-width="50" stroke-linecap="round"/>
<path d="M690.4 618C839.278 561.793 945.4 415.653 945.4 244.225C945.4 137.474 904.248 40.5289 837.246 -31" stroke="url(#paint47_linear_530_463)" stroke-width="50" stroke-linecap="round"/>
</g>
<defs>
<filter id="filter0_f_530_463" x="112" y="-75" width="350.007" height="650.007" filterUnits="userSpaceOnUse" color-interpolation-filters="sRGB">
<feFlood flood-opacity="0" result="BackgroundImageFix"/>
<feBlend mode="normal" in="SourceGraphic" in2="BackgroundImageFix" result="shape"/>
<feGaussianBlur stdDeviation="25" result="effect1_foregroundBlur_530_463"/>
</filter>
<filter id="filter1_f_530_463" x="74.6001" y="-76" width="362.407" height="681.007" filterUnits="userSpaceOnUse" color-interpolation-filters="sRGB">
<feFlood flood-opacity="0" result="BackgroundImageFix"/>
<feBlend mode="normal" in="SourceGraphic" in2="BackgroundImageFix" result="shape"/>
<feGaussianBlur stdDeviation="25" result="effect1_foregroundBlur_530_463"/>
</filter>
<filter id="filter2_f_530_463" x="39" y="-94" width="388.407" height="746.007" filterUnits="userSpaceOnUse" color-interpolation-filters="sRGB">
<feFlood flood-opacity="0" result="BackgroundImageFix"/>
<feBlend mode="normal" in="SourceGraphic" in2="BackgroundImageFix" result="shape"/>
<feGaussianBlur stdDeviation="25" result="effect1_foregroundBlur_530_463"/>
</filter>
<filter id="filter3_f_530_463" x="0.399902" y="-106" width="405.007" height="799.007" filterUnits="userSpaceOnUse" color-interpolation-filters="sRGB">
<feFlood flood-opacity="0" result="BackgroundImageFix"/>
<feBlend mode="normal" in="SourceGraphic" in2="BackgroundImageFix" result="shape"/>
<feGaussianBlur stdDeviation="25" result="effect1_foregroundBlur_530_463"/>
</filter>
<filter id="filter4_f_530_463" x="562.993" y="-75" width="350.007" height="650.007" filterUnits="userSpaceOnUse" color-interpolation-filters="sRGB">
<feFlood flood-opacity="0" result="BackgroundImageFix"/>
<feBlend mode="normal" in="SourceGraphic" in2="BackgroundImageFix" result="shape"/>
<feGaussianBlur stdDeviation="25" result="effect1_foregroundBlur_530_463"/>
</filter>
<filter id="filter5_f_530_463" x="586.993" y="-76" width="362.407" height="681.007" filterUnits="userSpaceOnUse" color-interpolation-filters="sRGB">
<feFlood flood-opacity="0" result="BackgroundImageFix"/>
<feBlend mode="normal" in="SourceGraphic" in2="BackgroundImageFix" result="shape"/>
<feGaussianBlur stdDeviation="25" result="effect1_foregroundBlur_530_463"/>
</filter>
<filter id="filter6_f_530_463" x="597.393" y="-94" width="388.407" height="746.007" filterUnits="userSpaceOnUse" color-interpolation-filters="sRGB">
<feFlood flood-opacity="0" result="BackgroundImageFix"/>
<feBlend mode="normal" in="SourceGraphic" in2="BackgroundImageFix" result="shape"/>
<feGaussianBlur stdDeviation="25" result="effect1_foregroundBlur_530_463"/>
</filter>
<filter id="filter7_f_530_463" x="615.393" y="-106" width="405.007" height="799.007" filterUnits="userSpaceOnUse" color-interpolation-filters="sRGB">
<feFlood flood-opacity="0" result="BackgroundImageFix"/>
<feBlend mode="normal" in="SourceGraphic" in2="BackgroundImageFix" result="shape"/>
<feGaussianBlur stdDeviation="25" result="effect1_foregroundBlur_530_463"/>
</filter>
<linearGradient id="paint0_linear_530_463" x1="287" y1="0" x2="287" y2="500" gradientUnits="userSpaceOnUse">
<stop stop-color="#CF00A2"/>
<stop offset="0.6" stop-color="#FE4545"/>
<stop offset="1" stop-color="#DFC904"/>
</linearGradient>
<linearGradient id="paint1_linear_530_463" x1="335" y1="478" x2="387" y2="500" gradientUnits="userSpaceOnUse">
<stop stop-opacity="0"/>
<stop offset="1" stop-color="#070F24"/>
</linearGradient>
<linearGradient id="paint2_linear_530_463" x1="276" y1="2.22301e-06" x2="232.5" y2="49.5" gradientUnits="userSpaceOnUse">
<stop stop-color="#070F24"/>
<stop offset="1" stop-opacity="0"/>
</linearGradient>
<linearGradient id="paint3_linear_530_463" x1="287" y1="0" x2="287" y2="500" gradientUnits="userSpaceOnUse">
<stop stop-color="#CF00A2"/>
<stop offset="0.6" stop-color="#FE4545"/>
<stop offset="1" stop-color="#DFC904"/>
</linearGradient>
<linearGradient id="paint4_linear_530_463" x1="335" y1="478" x2="387" y2="500" gradientUnits="userSpaceOnUse">
<stop stop-opacity="0"/>
<stop offset="1" stop-color="#070F24"/>
</linearGradient>
<linearGradient id="paint5_linear_530_463" x1="276" y1="2.22301e-06" x2="232.5" y2="49.5" gradientUnits="userSpaceOnUse">
<stop stop-color="#070F24"/>
<stop offset="1" stop-opacity="0"/>
</linearGradient>
<linearGradient id="paint6_linear_530_463" x1="255.8" y1="-1" x2="255.8" y2="530" gradientUnits="userSpaceOnUse">
<stop stop-color="#CF00A2"/>
<stop offset="0.6" stop-color="#FE4545"/>
<stop offset="1" stop-color="#DFC904"/>
</linearGradient>
<linearGradient id="paint7_linear_530_463" x1="206" y1="441" x2="362" y2="530" gradientUnits="userSpaceOnUse">
<stop stop-opacity="0"/>
<stop offset="1" stop-color="#070F24"/>
</linearGradient>
<linearGradient id="paint8_linear_530_463" x1="244.118" y1="-0.999996" x2="187" y2="86.5" gradientUnits="userSpaceOnUse">
<stop stop-color="#070F24"/>
<stop offset="1" stop-opacity="0"/>
</linearGradient>
<linearGradient id="paint9_linear_530_463" x1="255.8" y1="-1" x2="255.8" y2="530" gradientUnits="userSpaceOnUse">
<stop stop-color="#CF00A2"/>
<stop offset="0.6" stop-color="#FE4545"/>
<stop offset="1" stop-color="#DFC904"/>
</linearGradient>
<linearGradient id="paint10_linear_530_463" x1="150" y1="366.5" x2="362" y2="530" gradientUnits="userSpaceOnUse">
<stop stop-opacity="0"/>
<stop offset="1" stop-color="#070F24"/>
</linearGradient>
<linearGradient id="paint11_linear_530_463" x1="244.118" y1="-0.999998" x2="88" y2="199" gradientUnits="userSpaceOnUse">
<stop stop-color="#070F24"/>
<stop offset="1" stop-opacity="0"/>
</linearGradient>
<linearGradient id="paint12_linear_530_463" x1="233.2" y1="-19" x2="233.2" y2="577" gradientUnits="userSpaceOnUse">
<stop stop-color="#CF00A2"/>
<stop offset="0.6" stop-color="#FE4545"/>
<stop offset="1" stop-color="#DFC904"/>
</linearGradient>
<linearGradient id="paint13_linear_530_463" x1="96.5" y1="405.5" x2="352.4" y2="577" gradientUnits="userSpaceOnUse">
<stop stop-opacity="0"/>
<stop offset="1" stop-color="#070F24"/>
</linearGradient>
<linearGradient id="paint14_linear_530_463" x1="220.088" y1="-19" x2="58" y2="148" gradientUnits="userSpaceOnUse">
<stop stop-color="#070F24"/>
<stop offset="1" stop-opacity="0"/>
</linearGradient>
<linearGradient id="paint15_linear_530_463" x1="233.2" y1="-19" x2="233.2" y2="577" gradientUnits="userSpaceOnUse">
<stop stop-color="#CF00A2"/>
<stop offset="0.6" stop-color="#FE4545"/>
<stop offset="1" stop-color="#DFC904"/>
</linearGradient>
<linearGradient id="paint16_linear_530_463" x1="290.416" y1="550.776" x2="352.4" y2="577" gradientUnits="userSpaceOnUse">
<stop stop-color="#070F24" stop-opacity="0"/>
<stop offset="1" stop-color="#070F24"/>
</linearGradient>
<linearGradient id="paint17_linear_530_463" x1="220.088" y1="-19" x2="-436" y2="456" gradientUnits="userSpaceOnUse">
<stop stop-color="#070F24"/>
<stop offset="1" stop-color="#070F24" stop-opacity="0"/>
</linearGradient>
<linearGradient id="paint18_linear_530_463" x1="202.9" y1="-31" x2="202.9" y2="618" gradientUnits="userSpaceOnUse">
<stop stop-color="#CF00A2"/>
<stop offset="0.6" stop-color="#FE4545"/>
<stop offset="1" stop-color="#DFC904"/>
</linearGradient>
<linearGradient id="paint19_linear_530_463" x1="-39.5" y1="377" x2="333.431" y2="613.215" gradientUnits="userSpaceOnUse">
<stop stop-opacity="0"/>
<stop offset="1" stop-color="#070F24"/>
</linearGradient>
<linearGradient id="paint20_linear_530_463" x1="188.875" y1="-31" x2="-95.6554" y2="287.955" gradientUnits="userSpaceOnUse">
<stop stop-color="#070F24"/>
<stop offset="1" stop-opacity="0"/>
</linearGradient>
<linearGradient id="paint21_linear_530_463" x1="202.9" y1="-31" x2="202.9" y2="618" gradientUnits="userSpaceOnUse">
<stop stop-color="#CF00A2"/>
<stop offset="0.6" stop-color="#FE4545"/>
<stop offset="1" stop-color="#DFC904"/>
</linearGradient>
<linearGradient id="paint22_linear_530_463" x1="-405" y1="97.5" x2="336.957" y2="608.479" gradientUnits="userSpaceOnUse">
<stop stop-color="#070F24" stop-opacity="0"/>
<stop offset="1" stop-color="#070F24"/>
</linearGradient>
<linearGradient id="paint23_linear_530_463" x1="188.875" y1="-31" x2="-790.136" y2="822.641" gradientUnits="userSpaceOnUse">
<stop stop-color="#070F24"/>
<stop offset="1" stop-color="#070F24" stop-opacity="0"/>
</linearGradient>
<linearGradient id="paint24_linear_530_463" x1="738" y1="0" x2="738" y2="500" gradientUnits="userSpaceOnUse">
<stop stop-color="#CF00A2"/>
<stop offset="0.6" stop-color="#FE4545"/>
<stop offset="1" stop-color="#DFC904"/>
</linearGradient>
<linearGradient id="paint25_linear_530_463" x1="690" y1="478" x2="638" y2="500" gradientUnits="userSpaceOnUse">
<stop stop-opacity="0"/>
<stop offset="1" stop-color="#070F24"/>
</linearGradient>
<linearGradient id="paint26_linear_530_463" x1="749" y1="2.22301e-06" x2="792.5" y2="49.5" gradientUnits="userSpaceOnUse">
<stop stop-color="#070F24"/>
<stop offset="1" stop-opacity="0"/>
</linearGradient>
<linearGradient id="paint27_linear_530_463" x1="738" y1="0" x2="738" y2="500" gradientUnits="userSpaceOnUse">
<stop stop-color="#CF00A2"/>
<stop offset="0.6" stop-color="#FE4545"/>
<stop offset="1" stop-color="#DFC904"/>
</linearGradient>
<linearGradient id="paint28_linear_530_463" x1="690" y1="478" x2="638" y2="500" gradientUnits="userSpaceOnUse">
<stop stop-opacity="0"/>
<stop offset="1" stop-color="#070F24"/>
</linearGradient>
<linearGradient id="paint29_linear_530_463" x1="749" y1="2.22301e-06" x2="792.5" y2="49.5" gradientUnits="userSpaceOnUse">
<stop stop-color="#070F24"/>
<stop offset="1" stop-opacity="0"/>
</linearGradient>
<linearGradient id="paint30_linear_530_463" x1="768.2" y1="-1" x2="768.2" y2="530" gradientUnits="userSpaceOnUse">
<stop stop-color="#CF00A2"/>
<stop offset="0.6" stop-color="#FE4545"/>
<stop offset="1" stop-color="#DFC904"/>
</linearGradient>
<linearGradient id="paint31_linear_530_463" x1="912" y1="358.5" x2="662" y2="530" gradientUnits="userSpaceOnUse">
<stop stop-opacity="0"/>
<stop offset="1" stop-color="#070F24"/>
</linearGradient>
<linearGradient id="paint32_linear_530_463" x1="779.882" y1="-0.999999" x2="961.5" y2="232" gradientUnits="userSpaceOnUse">
<stop stop-color="#070F24"/>
<stop offset="1" stop-opacity="0"/>
</linearGradient>
<linearGradient id="paint33_linear_530_463" x1="768.2" y1="-1" x2="768.2" y2="530" gradientUnits="userSpaceOnUse">
<stop stop-color="#CF00A2"/>
<stop offset="0.6" stop-color="#FE4545"/>
<stop offset="1" stop-color="#DFC904"/>
</linearGradient>
<linearGradient id="paint34_linear_530_463" x1="890" y1="372" x2="662" y2="530" gradientUnits="userSpaceOnUse">
<stop stop-opacity="0"/>
<stop offset="1" stop-color="#070F24"/>
</linearGradient>
<linearGradient id="paint35_linear_530_463" x1="779.882" y1="-0.999994" x2="904" y2="163.5" gradientUnits="userSpaceOnUse">
<stop stop-color="#070F24"/>
<stop offset="1" stop-opacity="0"/>
</linearGradient>
<linearGradient id="paint36_linear_530_463" x1="791.6" y1="-19" x2="791.6" y2="577" gradientUnits="userSpaceOnUse">
<stop stop-color="#CF00A2"/>
<stop offset="0.6" stop-color="#FE4545"/>
<stop offset="1" stop-color="#DFC904"/>
</linearGradient>
<linearGradient id="paint37_linear_530_463" x1="928.5" y1="414.5" x2="672.4" y2="577" gradientUnits="userSpaceOnUse">
<stop stop-opacity="0"/>
<stop offset="1" stop-color="#070F24"/>
</linearGradient>
<linearGradient id="paint38_linear_530_463" x1="804.712" y1="-19" x2="856.564" y2="40.004" gradientUnits="userSpaceOnUse">
<stop stop-color="#070F24"/>
<stop offset="1" stop-opacity="0"/>
</linearGradient>
<linearGradient id="paint39_linear_530_463" x1="791.6" y1="-19" x2="791.6" y2="577" gradientUnits="userSpaceOnUse">
<stop stop-color="#CF00A2"/>
<stop offset="0.6" stop-color="#FE4545"/>
<stop offset="1" stop-color="#DFC904"/>
</linearGradient>
<linearGradient id="paint40_linear_530_463" x1="1074" y1="318.5" x2="672.4" y2="577" gradientUnits="userSpaceOnUse">
<stop stop-color="#070F24" stop-opacity="0"/>
<stop offset="1" stop-color="#070F24"/>
</linearGradient>
<linearGradient id="paint41_linear_530_463" x1="804.712" y1="-19" x2="1167.5" y2="387" gradientUnits="userSpaceOnUse">
<stop stop-color="#070F24"/>
<stop offset="1" stop-color="#070F24" stop-opacity="0"/>
</linearGradient>
<linearGradient id="paint42_linear_530_463" x1="817.9" y1="-31" x2="817.9" y2="618" gradientUnits="userSpaceOnUse">
<stop stop-color="#CF00A2"/>
<stop offset="0.6" stop-color="#FE4545"/>
<stop offset="1" stop-color="#DFC904"/>
</linearGradient>
<linearGradient id="paint43_linear_530_463" x1="1058.5" y1="513" x2="689.113" y2="613.26" gradientUnits="userSpaceOnUse">
<stop stop-opacity="0"/>
<stop offset="1" stop-color="#070F24"/>
</linearGradient>
<linearGradient id="paint44_linear_530_463" x1="831.925" y1="-31" x2="1089.29" y2="238.937" gradientUnits="userSpaceOnUse">
<stop stop-color="#070F24"/>
<stop offset="1" stop-opacity="0"/>
</linearGradient>
<linearGradient id="paint45_linear_530_463" x1="817.9" y1="-31" x2="817.9" y2="618" gradientUnits="userSpaceOnUse">
<stop stop-color="#CF00A2"/>
<stop offset="0.6" stop-color="#FE4545"/>
<stop offset="1" stop-color="#DFC904"/>
</linearGradient>
<linearGradient id="paint46_linear_530_463" x1="1832" y1="-253" x2="679.413" y2="603.21" gradientUnits="userSpaceOnUse">
<stop stop-color="#070F24" stop-opacity="0"/>
<stop offset="1" stop-color="#070F24"/>
</linearGradient>
<linearGradient id="paint47_linear_530_463" x1="831.925" y1="-31" x2="1402.56" y2="677.382" gradientUnits="userSpaceOnUse">
<stop stop-color="#070F24"/>
<stop offset="1" stop-color="#070F24" stop-opacity="0"/>
</linearGradient>
</defs>
</svg>
