<svg width="1067" height="824" fill="none" xmlns="http://www.w3.org/2000/svg"><path d="M416.126 749C216.965 684.133 75 515.474 75 317.633 75 194.433 130.051 82.55 219.683 0" stroke="url(#a)" stroke-width="2" stroke-linecap="round"/><path d="M416.126 749C216.965 684.133 75 515.474 75 317.633 75 194.433 130.051 82.55 219.683 0" stroke="url(#b)" stroke-width="2" stroke-linecap="round"/><path d="M416.126 749C216.965 684.133 75 515.474 75 317.633 75 194.433 130.051 82.55 219.683 0" stroke="url(#c)" stroke-width="2" stroke-linecap="round"/><g filter="url(#d)" stroke-width="50" stroke-linecap="round"><path d="M416.126 749C216.965 684.133 75 515.474 75 317.633 75 194.433 130.051 82.55 219.683 0" stroke="url(#e)" stroke-opacity=".2"/><path d="M416.126 749C216.965 684.133 75 515.474 75 317.633 75 194.433 130.051 82.55 219.683 0" stroke="url(#f)"/><path d="M416.126 749C216.965 684.133 75 515.474 75 317.633 75 194.433 130.051 82.55 219.683 0" stroke="url(#g)"/></g><path d="M650.126 749c199.162-64.867 341.126-233.526 341.126-431.367 0-123.2-55.05-235.083-144.682-317.633" stroke="url(#h)" stroke-width="2" stroke-linecap="round"/><path d="M650.126 749c199.162-64.867 341.126-233.526 341.126-431.367 0-123.2-55.05-235.083-144.682-317.633" stroke="url(#i)" stroke-width="2" stroke-linecap="round"/><path d="M650.126 749c199.162-64.867 341.126-233.526 341.126-431.367 0-123.2-55.05-235.083-144.682-317.633" stroke="url(#j)" stroke-width="2" stroke-linecap="round"/><g filter="url(#k)" stroke-width="50" stroke-linecap="round"><path d="M650.126 749c199.162-64.867 341.126-233.526 341.126-431.367 0-123.2-55.05-235.083-144.682-317.633" stroke="url(#l)" stroke-opacity=".2"/><path d="M650.126 749c199.162-64.867 341.126-233.526 341.126-431.367 0-123.2-55.05-235.083-144.682-317.633" stroke="url(#m)"/><path d="M650.126 749c199.162-64.867 341.126-233.526 341.126-431.367 0-123.2-55.05-235.083-144.682-317.633" stroke="url(#n)"/></g><defs><linearGradient id="a" x1="245.563" y1="0" x2="245.563" y2="749" gradientUnits="userSpaceOnUse"><stop stop-color="#CF00A2"/><stop offset=".6" stop-color="#FE4545"/><stop offset="1" stop-color="#DFC904"/></linearGradient><linearGradient id="b" x1="327.433" y1="716.044" x2="412.307" y2="756.929" gradientUnits="userSpaceOnUse"><stop stop-opacity="0"/><stop offset="1" stop-color="#070F24"/></linearGradient><linearGradient id="c" x1="226.801" y1="0" x2="163.238" y2="82.356" gradientUnits="userSpaceOnUse"><stop stop-color="#070F24"/><stop offset="1" stop-opacity="0"/></linearGradient><linearGradient id="e" x1="245.563" y1="0" x2="245.563" y2="749" gradientUnits="userSpaceOnUse"><stop stop-color="#CF00A2"/><stop offset=".6" stop-color="#FE4545"/><stop offset="1" stop-color="#DFC904"/></linearGradient><linearGradient id="f" x1="327.433" y1="716.044" x2="412.307" y2="756.929" gradientUnits="userSpaceOnUse"><stop stop-opacity="0"/><stop offset="1" stop-color="#070F24"/></linearGradient><linearGradient id="g" x1="226.801" y1="0" x2="163.238" y2="82.356" gradientUnits="userSpaceOnUse"><stop stop-color="#070F24"/><stop offset="1" stop-opacity="0"/></linearGradient><linearGradient id="h" x1="820.689" y1="0" x2="820.689" y2="749" gradientUnits="userSpaceOnUse"><stop stop-color="#CF00A2"/><stop offset=".6" stop-color="#FE4545"/><stop offset="1" stop-color="#DFC904"/></linearGradient><linearGradient id="i" x1="738.819" y1="716.044" x2="653.946" y2="756.929" gradientUnits="userSpaceOnUse"><stop stop-opacity="0"/><stop offset="1" stop-color="#070F24"/></linearGradient><linearGradient id="j" x1="839.451" y1="0" x2="903.015" y2="82.356" gradientUnits="userSpaceOnUse"><stop stop-color="#070F24"/><stop offset="1" stop-opacity="0"/></linearGradient><linearGradient id="l" x1="820.689" y1="0" x2="820.689" y2="749" gradientUnits="userSpaceOnUse"><stop stop-color="#CF00A2"/><stop offset=".6" stop-color="#FE4545"/><stop offset="1" stop-color="#DFC904"/></linearGradient><linearGradient id="m" x1="738.819" y1="716.044" x2="653.946" y2="756.929" gradientUnits="userSpaceOnUse"><stop stop-opacity="0"/><stop offset="1" stop-color="#070F24"/></linearGradient><linearGradient id="n" x1="839.451" y1="0" x2="903.015" y2="82.356" gradientUnits="userSpaceOnUse"><stop stop-color="#070F24"/><stop offset="1" stop-opacity="0"/></linearGradient><filter id="d" x="0" y="-75" width="491.133" height="899.007" filterUnits="userSpaceOnUse" color-interpolation-filters="sRGB"><feFlood flood-opacity="0" result="BackgroundImageFix"/><feBlend in="SourceGraphic" in2="BackgroundImageFix" result="shape"/><feGaussianBlur stdDeviation="25" result="effect1_foregroundBlur_374_4436"/></filter><filter id="k" x="575.119" y="-75" width="491.133" height="899.007" filterUnits="userSpaceOnUse" color-interpolation-filters="sRGB"><feFlood flood-opacity="0" result="BackgroundImageFix"/><feBlend in="SourceGraphic" in2="BackgroundImageFix" result="shape"/><feGaussianBlur stdDeviation="25" result="effect1_foregroundBlur_374_4436"/></filter></defs></svg>