<svg width="1067" height="824" viewBox="0 0 1067 824" fill="none" xmlns="http://www.w3.org/2000/svg">
<path d="M416.126 749C216.965 684.133 75 515.474 75 317.633C75 194.433 130.051 82.5503 219.683 0" stroke="url(#paint0_linear_374_4436)" stroke-width="2" stroke-linecap="round"/>
<path d="M416.126 749C216.965 684.133 75 515.474 75 317.633C75 194.433 130.051 82.5503 219.683 0" stroke="url(#paint1_linear_374_4436)" stroke-width="2" stroke-linecap="round"/>
<path d="M416.126 749C216.965 684.133 75 515.474 75 317.633C75 194.433 130.051 82.5503 219.683 0" stroke="url(#paint2_linear_374_4436)" stroke-width="2" stroke-linecap="round"/>
<g filter="url(#filter0_f_374_4436)">
<path d="M416.126 749C216.965 684.133 75 515.474 75 317.633C75 194.433 130.051 82.5503 219.683 0" stroke="url(#paint3_linear_374_4436)" stroke-opacity="0.2" stroke-width="50" stroke-linecap="round"/>
<path d="M416.126 749C216.965 684.133 75 515.474 75 317.633C75 194.433 130.051 82.5503 219.683 0" stroke="url(#paint4_linear_374_4436)" stroke-width="50" stroke-linecap="round"/>
<path d="M416.126 749C216.965 684.133 75 515.474 75 317.633C75 194.433 130.051 82.5503 219.683 0" stroke="url(#paint5_linear_374_4436)" stroke-width="50" stroke-linecap="round"/>
</g>
<path d="M650.126 749C849.288 684.133 991.252 515.474 991.252 317.633C991.252 194.433 936.202 82.5503 846.57 0" stroke="url(#paint6_linear_374_4436)" stroke-width="2" stroke-linecap="round"/>
<path d="M650.126 749C849.288 684.133 991.252 515.474 991.252 317.633C991.252 194.433 936.202 82.5503 846.57 0" stroke="url(#paint7_linear_374_4436)" stroke-width="2" stroke-linecap="round"/>
<path d="M650.126 749C849.288 684.133 991.252 515.474 991.252 317.633C991.252 194.433 936.202 82.5503 846.57 0" stroke="url(#paint8_linear_374_4436)" stroke-width="2" stroke-linecap="round"/>
<g filter="url(#filter1_f_374_4436)">
<path d="M650.126 749C849.288 684.133 991.252 515.474 991.252 317.633C991.252 194.433 936.202 82.5503 846.57 0" stroke="url(#paint9_linear_374_4436)" stroke-opacity="0.2" stroke-width="50" stroke-linecap="round"/>
<path d="M650.126 749C849.288 684.133 991.252 515.474 991.252 317.633C991.252 194.433 936.202 82.5503 846.57 0" stroke="url(#paint10_linear_374_4436)" stroke-width="50" stroke-linecap="round"/>
<path d="M650.126 749C849.288 684.133 991.252 515.474 991.252 317.633C991.252 194.433 936.202 82.5503 846.57 0" stroke="url(#paint11_linear_374_4436)" stroke-width="50" stroke-linecap="round"/>
</g>
<defs>
<filter id="filter0_f_374_4436" x="0" y="-75.0001" width="491.133" height="899.007" filterUnits="userSpaceOnUse" color-interpolation-filters="sRGB">
<feFlood flood-opacity="0" result="BackgroundImageFix"/>
<feBlend mode="normal" in="SourceGraphic" in2="BackgroundImageFix" result="shape"/>
<feGaussianBlur stdDeviation="25" result="effect1_foregroundBlur_374_4436"/>
</filter>
<filter id="filter1_f_374_4436" x="575.119" y="-75.0001" width="491.133" height="899.007" filterUnits="userSpaceOnUse" color-interpolation-filters="sRGB">
<feFlood flood-opacity="0" result="BackgroundImageFix"/>
<feBlend mode="normal" in="SourceGraphic" in2="BackgroundImageFix" result="shape"/>
<feGaussianBlur stdDeviation="25" result="effect1_foregroundBlur_374_4436"/>
</filter>
<linearGradient id="paint0_linear_374_4436" x1="245.563" y1="0" x2="245.563" y2="749" gradientUnits="userSpaceOnUse">
<stop stop-color="#CF00A2"/>
<stop offset="0.6" stop-color="#FE4545"/>
<stop offset="1" stop-color="#DFC904"/>
</linearGradient>
<linearGradient id="paint1_linear_374_4436" x1="327.433" y1="716.044" x2="412.307" y2="756.929" gradientUnits="userSpaceOnUse">
<stop stop-opacity="0"/>
<stop offset="1" stop-color="#070F24"/>
</linearGradient>
<linearGradient id="paint2_linear_374_4436" x1="226.801" y1="3.33008e-06" x2="163.238" y2="82.3564" gradientUnits="userSpaceOnUse">
<stop stop-color="#070F24"/>
<stop offset="1" stop-opacity="0"/>
</linearGradient>
<linearGradient id="paint3_linear_374_4436" x1="245.563" y1="0" x2="245.563" y2="749" gradientUnits="userSpaceOnUse">
<stop stop-color="#CF00A2"/>
<stop offset="0.6" stop-color="#FE4545"/>
<stop offset="1" stop-color="#DFC904"/>
</linearGradient>
<linearGradient id="paint4_linear_374_4436" x1="327.433" y1="716.044" x2="412.307" y2="756.929" gradientUnits="userSpaceOnUse">
<stop stop-opacity="0"/>
<stop offset="1" stop-color="#070F24"/>
</linearGradient>
<linearGradient id="paint5_linear_374_4436" x1="226.801" y1="3.33008e-06" x2="163.238" y2="82.3564" gradientUnits="userSpaceOnUse">
<stop stop-color="#070F24"/>
<stop offset="1" stop-opacity="0"/>
</linearGradient>
<linearGradient id="paint6_linear_374_4436" x1="820.689" y1="0" x2="820.689" y2="749" gradientUnits="userSpaceOnUse">
<stop stop-color="#CF00A2"/>
<stop offset="0.6" stop-color="#FE4545"/>
<stop offset="1" stop-color="#DFC904"/>
</linearGradient>
<linearGradient id="paint7_linear_374_4436" x1="738.819" y1="716.044" x2="653.946" y2="756.929" gradientUnits="userSpaceOnUse">
<stop stop-opacity="0"/>
<stop offset="1" stop-color="#070F24"/>
</linearGradient>
<linearGradient id="paint8_linear_374_4436" x1="839.451" y1="3.33008e-06" x2="903.015" y2="82.3564" gradientUnits="userSpaceOnUse">
<stop stop-color="#070F24"/>
<stop offset="1" stop-opacity="0"/>
</linearGradient>
<linearGradient id="paint9_linear_374_4436" x1="820.689" y1="0" x2="820.689" y2="749" gradientUnits="userSpaceOnUse">
<stop stop-color="#CF00A2"/>
<stop offset="0.6" stop-color="#FE4545"/>
<stop offset="1" stop-color="#DFC904"/>
</linearGradient>
<linearGradient id="paint10_linear_374_4436" x1="738.819" y1="716.044" x2="653.946" y2="756.929" gradientUnits="userSpaceOnUse">
<stop stop-opacity="0"/>
<stop offset="1" stop-color="#070F24"/>
</linearGradient>
<linearGradient id="paint11_linear_374_4436" x1="839.451" y1="3.33008e-06" x2="903.015" y2="82.3564" gradientUnits="userSpaceOnUse">
<stop stop-color="#070F24"/>
<stop offset="1" stop-opacity="0"/>
</linearGradient>
</defs>
</svg>
