<svg width="695" height="605" fill="none" xmlns="http://www.w3.org/2000/svg"><path d="M257.25 529.493C150.846 490.132 75 387.79 75 267.739 75 192.982 104.411 125.092 152.298 75" stroke="url(#a)" stroke-width="2" stroke-linecap="round"/><path d="M257.25 529.493C150.846 490.132 75 387.79 75 267.739 75 192.982 104.411 125.092 152.298 75" stroke="url(#b)" stroke-width="2" stroke-linecap="round"/><path d="M257.25 529.493C150.846 490.132 75 387.79 75 267.739 75 192.982 104.411 125.092 152.298 75" stroke="url(#c)" stroke-width="2" stroke-linecap="round"/><g filter="url(#d)" stroke-width="50" stroke-linecap="round"><path d="M257.25 529.493C150.846 490.132 75 387.79 75 267.739 75 192.982 104.411 125.092 152.298 75" stroke="url(#e)" stroke-opacity=".2"/><path d="M257.25 529.493C150.846 490.132 75 387.79 75 267.739 75 192.982 104.411 125.092 152.298 75" stroke="url(#f)"/><path d="M257.25 529.493C150.846 490.132 75 387.79 75 267.739 75 192.982 104.411 125.092 152.298 75" stroke="url(#g)"/></g><path d="M437.25 529.493C543.654 490.132 619.5 387.79 619.5 267.739c0-74.757-29.411-142.647-77.298-192.739" stroke="url(#h)" stroke-width="2" stroke-linecap="round"/><path d="M437.25 529.493C543.654 490.132 619.5 387.79 619.5 267.739c0-74.757-29.411-142.647-77.298-192.739" stroke="url(#i)" stroke-width="2" stroke-linecap="round"/><path d="M437.25 529.493C543.654 490.132 619.5 387.79 619.5 267.739c0-74.757-29.411-142.647-77.298-192.739" stroke="url(#j)" stroke-width="2" stroke-linecap="round"/><g filter="url(#k)" stroke-width="50" stroke-linecap="round"><path d="M437.25 529.493C543.654 490.132 619.5 387.79 619.5 267.739c0-74.757-29.411-142.647-77.298-192.739" stroke="url(#l)" stroke-opacity=".2"/><path d="M437.25 529.493C543.654 490.132 619.5 387.79 619.5 267.739c0-74.757-29.411-142.647-77.298-192.739" stroke="url(#m)"/><path d="M437.25 529.493C543.654 490.132 619.5 387.79 619.5 267.739c0-74.757-29.411-142.647-77.298-192.739" stroke="url(#n)"/></g><defs><linearGradient id="a" x1="166.125" y1="75" x2="166.125" y2="529.493" gradientUnits="userSpaceOnUse"><stop stop-color="#CF00A2"/><stop offset=".6" stop-color="#FE4545"/><stop offset="1" stop-color="#DFC904"/></linearGradient><linearGradient id="b" x1="209.865" y1="509.495" x2="257.214" y2="529.578" gradientUnits="userSpaceOnUse"><stop stop-opacity="0"/><stop offset="1" stop-color="#070F24"/></linearGradient><linearGradient id="c" x1="156.101" y1="75" x2="116.573" y2="120.092" gradientUnits="userSpaceOnUse"><stop stop-color="#070F24"/><stop offset="1" stop-opacity="0"/></linearGradient><linearGradient id="e" x1="166.125" y1="75" x2="166.125" y2="529.493" gradientUnits="userSpaceOnUse"><stop stop-color="#CF00A2"/><stop offset=".6" stop-color="#FE4545"/><stop offset="1" stop-color="#DFC904"/></linearGradient><linearGradient id="f" x1="209.865" y1="509.495" x2="257.214" y2="529.578" gradientUnits="userSpaceOnUse"><stop stop-opacity="0"/><stop offset="1" stop-color="#070F24"/></linearGradient><linearGradient id="g" x1="156.101" y1="75" x2="116.573" y2="120.092" gradientUnits="userSpaceOnUse"><stop stop-color="#070F24"/><stop offset="1" stop-opacity="0"/></linearGradient><linearGradient id="h" x1="528.375" y1="75" x2="528.375" y2="529.493" gradientUnits="userSpaceOnUse"><stop stop-color="#CF00A2"/><stop offset=".6" stop-color="#FE4545"/><stop offset="1" stop-color="#DFC904"/></linearGradient><linearGradient id="i" x1="484.635" y1="509.495" x2="437.286" y2="529.578" gradientUnits="userSpaceOnUse"><stop stop-opacity="0"/><stop offset="1" stop-color="#070F24"/></linearGradient><linearGradient id="j" x1="538.399" y1="75" x2="577.927" y2="120.092" gradientUnits="userSpaceOnUse"><stop stop-color="#070F24"/><stop offset="1" stop-opacity="0"/></linearGradient><linearGradient id="l" x1="528.375" y1="75" x2="528.375" y2="529.493" gradientUnits="userSpaceOnUse"><stop stop-color="#CF00A2"/><stop offset=".6" stop-color="#FE4545"/><stop offset="1" stop-color="#DFC904"/></linearGradient><linearGradient id="m" x1="484.635" y1="509.495" x2="437.286" y2="529.578" gradientUnits="userSpaceOnUse"><stop stop-opacity="0"/><stop offset="1" stop-color="#070F24"/></linearGradient><linearGradient id="n" x1="538.399" y1="75" x2="577.927" y2="120.092" gradientUnits="userSpaceOnUse"><stop stop-color="#070F24"/><stop offset="1" stop-opacity="0"/></linearGradient><filter id="d" x="0" y="0" width="332.257" height="604.5" filterUnits="userSpaceOnUse" color-interpolation-filters="sRGB"><feFlood flood-opacity="0" result="BackgroundImageFix"/><feBlend in="SourceGraphic" in2="BackgroundImageFix" result="shape"/><feGaussianBlur stdDeviation="25" result="effect1_foregroundBlur_362_2360"/></filter><filter id="k" x="362.243" y="0" width="332.257" height="604.5" filterUnits="userSpaceOnUse" color-interpolation-filters="sRGB"><feFlood flood-opacity="0" result="BackgroundImageFix"/><feBlend in="SourceGraphic" in2="BackgroundImageFix" result="shape"/><feGaussianBlur stdDeviation="25" result="effect1_foregroundBlur_362_2360"/></filter></defs></svg>