<svg width="320" height="352" fill="none" xmlns="http://www.w3.org/2000/svg"><path d="M112 276.997c-47.29-17.494-81-62.979-81-116.335 0-33.226 13.072-63.4 34.355-85.662" stroke="url(#a)" stroke-width="2" stroke-linecap="round"/><path d="M112 276.997c-47.29-17.494-81-62.979-81-116.335 0-33.226 13.072-63.4 34.355-85.662" stroke="url(#b)" stroke-width="2" stroke-linecap="round"/><path d="M112 276.997c-47.29-17.494-81-62.979-81-116.335 0-33.226 13.072-63.4 34.355-85.662" stroke="url(#c)" stroke-width="2" stroke-linecap="round"/><g filter="url(#d)" stroke-width="50" stroke-linecap="round"><path d="M112 276.997c-47.29-17.494-81-62.979-81-116.335 0-33.226 13.072-63.4 34.355-85.662" stroke="url(#e)" stroke-opacity=".2"/><path d="M112 276.997c-47.29-17.494-81-62.979-81-116.335 0-33.226 13.072-63.4 34.355-85.662" stroke="url(#f)"/><path d="M112 276.997c-47.29-17.494-81-62.979-81-116.335 0-33.226 13.072-63.4 34.355-85.662" stroke="url(#g)"/></g><path d="M208 276.997c47.291-17.494 81-62.979 81-116.335 0-33.226-13.072-63.4-34.355-85.662" stroke="url(#h)" stroke-width="2" stroke-linecap="round"/><path d="M208 276.997c47.291-17.494 81-62.979 81-116.335 0-33.226-13.072-63.4-34.355-85.662" stroke="url(#i)" stroke-width="2" stroke-linecap="round"/><path d="M208 276.997c47.291-17.494 81-62.979 81-116.335 0-33.226-13.072-63.4-34.355-85.662" stroke="url(#j)" stroke-width="2" stroke-linecap="round"/><g filter="url(#k)" stroke-width="50" stroke-linecap="round"><path d="M208 276.997c47.291-17.494 81-62.979 81-116.335 0-33.226-13.072-63.4-34.355-85.662" stroke="url(#l)" stroke-opacity=".2"/><path d="M208 276.997c47.291-17.494 81-62.979 81-116.335 0-33.226-13.072-63.4-34.355-85.662" stroke="url(#m)"/><path d="M208 276.997c47.291-17.494 81-62.979 81-116.335 0-33.226-13.072-63.4-34.355-85.662" stroke="url(#n)"/></g><defs><linearGradient id="a" x1="71.5" y1="75" x2="71.5" y2="276.997" gradientUnits="userSpaceOnUse"><stop stop-color="#CF00A2"/><stop offset=".6" stop-color="#FE4545"/><stop offset="1" stop-color="#DFC904"/></linearGradient><linearGradient id="b" x1="90.94" y1="268.109" x2="111.984" y2="277.035" gradientUnits="userSpaceOnUse"><stop stop-opacity="0"/><stop offset="1" stop-color="#070F24"/></linearGradient><linearGradient id="c" x1="67.045" y1="75" x2="49.477" y2="95.041" gradientUnits="userSpaceOnUse"><stop stop-color="#070F24"/><stop offset="1" stop-opacity="0"/></linearGradient><linearGradient id="e" x1="71.5" y1="75" x2="71.5" y2="276.997" gradientUnits="userSpaceOnUse"><stop stop-color="#CF00A2"/><stop offset=".6" stop-color="#FE4545"/><stop offset="1" stop-color="#DFC904"/></linearGradient><linearGradient id="f" x1="90.94" y1="268.109" x2="111.984" y2="277.035" gradientUnits="userSpaceOnUse"><stop stop-opacity="0"/><stop offset="1" stop-color="#070F24"/></linearGradient><linearGradient id="g" x1="67.045" y1="75" x2="49.477" y2="95.041" gradientUnits="userSpaceOnUse"><stop stop-color="#070F24"/><stop offset="1" stop-opacity="0"/></linearGradient><linearGradient id="h" x1="248.5" y1="75" x2="248.5" y2="276.997" gradientUnits="userSpaceOnUse"><stop stop-color="#CF00A2"/><stop offset=".6" stop-color="#FE4545"/><stop offset="1" stop-color="#DFC904"/></linearGradient><linearGradient id="i" x1="229.06" y1="268.109" x2="208.016" y2="277.035" gradientUnits="userSpaceOnUse"><stop stop-opacity="0"/><stop offset="1" stop-color="#070F24"/></linearGradient><linearGradient id="j" x1="252.955" y1="75" x2="270.523" y2="95.041" gradientUnits="userSpaceOnUse"><stop stop-color="#070F24"/><stop offset="1" stop-opacity="0"/></linearGradient><linearGradient id="l" x1="248.5" y1="75" x2="248.5" y2="276.997" gradientUnits="userSpaceOnUse"><stop stop-color="#CF00A2"/><stop offset=".6" stop-color="#FE4545"/><stop offset="1" stop-color="#DFC904"/></linearGradient><linearGradient id="m" x1="229.06" y1="268.109" x2="208.016" y2="277.035" gradientUnits="userSpaceOnUse"><stop stop-opacity="0"/><stop offset="1" stop-color="#070F24"/></linearGradient><linearGradient id="n" x1="252.955" y1="75" x2="270.523" y2="95.041" gradientUnits="userSpaceOnUse"><stop stop-color="#070F24"/><stop offset="1" stop-opacity="0"/></linearGradient><filter id="d" x="-44" y="0" width="231.007" height="352.004" filterUnits="userSpaceOnUse" color-interpolation-filters="sRGB"><feFlood flood-opacity="0" result="BackgroundImageFix"/><feBlend in="SourceGraphic" in2="BackgroundImageFix" result="shape"/><feGaussianBlur stdDeviation="25" result="effect1_foregroundBlur_551_458"/></filter><filter id="k" x="132.993" y="0" width="231.007" height="352.004" filterUnits="userSpaceOnUse" color-interpolation-filters="sRGB"><feFlood flood-opacity="0" result="BackgroundImageFix"/><feBlend in="SourceGraphic" in2="BackgroundImageFix" result="shape"/><feGaussianBlur stdDeviation="25" result="effect1_foregroundBlur_551_458"/></filter></defs></svg>