<svg width="695" height="605" viewBox="0 0 695 605" fill="none" xmlns="http://www.w3.org/2000/svg">
<path d="M257.25 529.493C150.846 490.132 75 387.79 75 267.739C75 192.982 104.411 125.092 152.298 75" stroke="url(#paint0_linear_362_2360)" stroke-width="2" stroke-linecap="round"/>
<path d="M257.25 529.493C150.846 490.132 75 387.79 75 267.739C75 192.982 104.411 125.092 152.298 75" stroke="url(#paint1_linear_362_2360)" stroke-width="2" stroke-linecap="round"/>
<path d="M257.25 529.493C150.846 490.132 75 387.79 75 267.739C75 192.982 104.411 125.092 152.298 75" stroke="url(#paint2_linear_362_2360)" stroke-width="2" stroke-linecap="round"/>
<g filter="url(#filter0_f_362_2360)">
<path d="M257.25 529.493C150.846 490.132 75 387.79 75 267.739C75 192.982 104.411 125.092 152.298 75" stroke="url(#paint3_linear_362_2360)" stroke-opacity="0.2" stroke-width="50" stroke-linecap="round"/>
<path d="M257.25 529.493C150.846 490.132 75 387.79 75 267.739C75 192.982 104.411 125.092 152.298 75" stroke="url(#paint4_linear_362_2360)" stroke-width="50" stroke-linecap="round"/>
<path d="M257.25 529.493C150.846 490.132 75 387.79 75 267.739C75 192.982 104.411 125.092 152.298 75" stroke="url(#paint5_linear_362_2360)" stroke-width="50" stroke-linecap="round"/>
</g>
<path d="M437.25 529.493C543.654 490.132 619.5 387.79 619.5 267.739C619.5 192.982 590.089 125.092 542.202 75" stroke="url(#paint6_linear_362_2360)" stroke-width="2" stroke-linecap="round"/>
<path d="M437.25 529.493C543.654 490.132 619.5 387.79 619.5 267.739C619.5 192.982 590.089 125.092 542.202 75" stroke="url(#paint7_linear_362_2360)" stroke-width="2" stroke-linecap="round"/>
<path d="M437.25 529.493C543.654 490.132 619.5 387.79 619.5 267.739C619.5 192.982 590.089 125.092 542.202 75" stroke="url(#paint8_linear_362_2360)" stroke-width="2" stroke-linecap="round"/>
<g filter="url(#filter1_f_362_2360)">
<path d="M437.25 529.493C543.654 490.132 619.5 387.79 619.5 267.739C619.5 192.982 590.089 125.092 542.202 75" stroke="url(#paint9_linear_362_2360)" stroke-opacity="0.2" stroke-width="50" stroke-linecap="round"/>
<path d="M437.25 529.493C543.654 490.132 619.5 387.79 619.5 267.739C619.5 192.982 590.089 125.092 542.202 75" stroke="url(#paint10_linear_362_2360)" stroke-width="50" stroke-linecap="round"/>
<path d="M437.25 529.493C543.654 490.132 619.5 387.79 619.5 267.739C619.5 192.982 590.089 125.092 542.202 75" stroke="url(#paint11_linear_362_2360)" stroke-width="50" stroke-linecap="round"/>
</g>
<defs>
<filter id="filter0_f_362_2360" x="0" y="0" width="332.257" height="604.5" filterUnits="userSpaceOnUse" color-interpolation-filters="sRGB">
<feFlood flood-opacity="0" result="BackgroundImageFix"/>
<feBlend mode="normal" in="SourceGraphic" in2="BackgroundImageFix" result="shape"/>
<feGaussianBlur stdDeviation="25" result="effect1_foregroundBlur_362_2360"/>
</filter>
<filter id="filter1_f_362_2360" x="362.243" y="0" width="332.257" height="604.5" filterUnits="userSpaceOnUse" color-interpolation-filters="sRGB">
<feFlood flood-opacity="0" result="BackgroundImageFix"/>
<feBlend mode="normal" in="SourceGraphic" in2="BackgroundImageFix" result="shape"/>
<feGaussianBlur stdDeviation="25" result="effect1_foregroundBlur_362_2360"/>
</filter>
<linearGradient id="paint0_linear_362_2360" x1="166.125" y1="75" x2="166.125" y2="529.493" gradientUnits="userSpaceOnUse">
<stop stop-color="#CF00A2"/>
<stop offset="0.6" stop-color="#FE4545"/>
<stop offset="1" stop-color="#DFC904"/>
</linearGradient>
<linearGradient id="paint1_linear_362_2360" x1="209.865" y1="509.495" x2="257.214" y2="529.578" gradientUnits="userSpaceOnUse">
<stop stop-opacity="0"/>
<stop offset="1" stop-color="#070F24"/>
</linearGradient>
<linearGradient id="paint2_linear_362_2360" x1="156.101" y1="75" x2="116.573" y2="120.092" gradientUnits="userSpaceOnUse">
<stop stop-color="#070F24"/>
<stop offset="1" stop-opacity="0"/>
</linearGradient>
<linearGradient id="paint3_linear_362_2360" x1="166.125" y1="75" x2="166.125" y2="529.493" gradientUnits="userSpaceOnUse">
<stop stop-color="#CF00A2"/>
<stop offset="0.6" stop-color="#FE4545"/>
<stop offset="1" stop-color="#DFC904"/>
</linearGradient>
<linearGradient id="paint4_linear_362_2360" x1="209.865" y1="509.495" x2="257.214" y2="529.578" gradientUnits="userSpaceOnUse">
<stop stop-opacity="0"/>
<stop offset="1" stop-color="#070F24"/>
</linearGradient>
<linearGradient id="paint5_linear_362_2360" x1="156.101" y1="75" x2="116.573" y2="120.092" gradientUnits="userSpaceOnUse">
<stop stop-color="#070F24"/>
<stop offset="1" stop-opacity="0"/>
</linearGradient>
<linearGradient id="paint6_linear_362_2360" x1="528.375" y1="75" x2="528.375" y2="529.493" gradientUnits="userSpaceOnUse">
<stop stop-color="#CF00A2"/>
<stop offset="0.6" stop-color="#FE4545"/>
<stop offset="1" stop-color="#DFC904"/>
</linearGradient>
<linearGradient id="paint7_linear_362_2360" x1="484.635" y1="509.495" x2="437.286" y2="529.578" gradientUnits="userSpaceOnUse">
<stop stop-opacity="0"/>
<stop offset="1" stop-color="#070F24"/>
</linearGradient>
<linearGradient id="paint8_linear_362_2360" x1="538.399" y1="75" x2="577.927" y2="120.092" gradientUnits="userSpaceOnUse">
<stop stop-color="#070F24"/>
<stop offset="1" stop-opacity="0"/>
</linearGradient>
<linearGradient id="paint9_linear_362_2360" x1="528.375" y1="75" x2="528.375" y2="529.493" gradientUnits="userSpaceOnUse">
<stop stop-color="#CF00A2"/>
<stop offset="0.6" stop-color="#FE4545"/>
<stop offset="1" stop-color="#DFC904"/>
</linearGradient>
<linearGradient id="paint10_linear_362_2360" x1="484.635" y1="509.495" x2="437.286" y2="529.578" gradientUnits="userSpaceOnUse">
<stop stop-opacity="0"/>
<stop offset="1" stop-color="#070F24"/>
</linearGradient>
<linearGradient id="paint11_linear_362_2360" x1="538.399" y1="75" x2="577.927" y2="120.092" gradientUnits="userSpaceOnUse">
<stop stop-color="#070F24"/>
<stop offset="1" stop-opacity="0"/>
</linearGradient>
</defs>
</svg>
