<svg width="16" height="17" viewBox="0 0 16 17" fill="none" xmlns="http://www.w3.org/2000/svg">
<path d="M7.99275 16.4933C12.2642 16.4933 15.7899 12.9676 15.7899 8.70368C15.7899 4.43973 12.2567 0.914062 7.98521 0.914062C3.72126 0.914062 0.203125 4.43973 0.203125 8.70368C0.203125 12.9676 3.72879 16.4933 7.99275 16.4933ZM7.99275 14.9414C4.53488 14.9414 1.77009 12.1616 1.77009 8.70368C1.77009 5.24581 4.53488 2.47349 7.98521 2.47349C11.4431 2.47349 14.2229 5.24581 14.2305 8.70368C14.238 12.1616 11.4506 14.9414 7.99275 14.9414ZM4.19587 9.6529H7.98521C8.33175 9.6529 8.59542 9.38923 8.59542 9.05022V4.12333C8.59542 3.78432 8.33175 3.52065 7.98521 3.52065C7.65374 3.52065 7.39007 3.78432 7.39007 4.12333V8.44754H4.19587C3.85686 8.44754 3.59319 8.71122 3.59319 9.05022C3.59319 9.38923 3.85686 9.6529 4.19587 9.6529Z" fill="white"/>
</svg>
