<svg width="786" height="792" fill="none" xmlns="http://www.w3.org/2000/svg"><g clip-path="url(#a)"><path d="M393 792c217.048 0 393-27.937 393-62.4 0-34.463-175.952-62.4-393-62.4S0 695.137 0 729.6C0 764.063 175.952 792 393 792Z" fill="#E6E6E6"/><path d="M607.604 209.379H131.567c-19.869 0-35.972 16.116-35.972 36v273.6c0 19.884 16.103 36 35.972 36h476.037c19.869 0 35.972-16.116 35.972-36v-273.6c0-19.884-16.103-36-35.972-36Z" fill="#4D4D4D"/><path d="M615.191 188.138H139.154c-19.869 0-35.973 16.116-35.973 36v273.6c0 19.884 16.104 36 35.973 36h476.037c19.868 0 35.972-16.116 35.972-36v-273.6c0-19.884-16.104-36-35.972-36Z" fill="gray"/><path d="M623.524 169.8H147.487c-19.867 0-35.972 16.118-35.972 36v273.6c0 19.882 16.105 36 35.972 36h476.037c19.867 0 35.973-16.118 35.973-36V205.8c0-19.882-16.106-36-35.973-36Z" fill="#FFE083"/><path d="M147.487 169.8h476.037c19.851 0 35.973 16.134 35.973 36v3.6H111.515v-3.6c0-19.866 16.122-36 35.972-36Z" fill="#EF4D1F"/><path d="M151.684 199.8c4.967 0 8.993-4.029 8.993-9s-4.026-9-8.993-9c-4.967 0-8.993 4.029-8.993 9s4.026 9 8.993 9Zm25.781 0c4.966 0 8.993-4.029 8.993-9s-4.027-9-8.993-9c-4.967 0-8.994 4.029-8.994 9s4.027 9 8.994 9Zm23.981 0c4.967 0 8.993-4.029 8.993-9s-4.026-9-8.993-9c-4.967 0-8.993 4.029-8.993 9s4.026 9 8.993 9Z" fill="#B81309"/><path d="M701.333.6H545.116c-13.316 0-24.114 10.806-24.114 24.132v87.936c0 13.326 10.798 24.132 24.114 24.132h49.174c18.658 11.07 3.118 24.048 3.118 24.048 20.055-10.59 20.229-20.19 19.251-24.048h84.674c13.315 0 24.113-10.806 24.113-24.132V24.732C725.446 11.406 714.648.6 701.333.6Z" fill="#FFFEDB"/><path d="m209.24 470.7 53.216 112.2-53.216 107.196s132.499 53.496 287.181 0c0-.096-48.779-107.196-48.779-107.196l47.202-107.076L209.24 470.7Z" fill="#970004"/><path d="M352.831 505.2c79.302 0 143.59-15.446 143.59-34.5 0-19.054-64.288-34.5-143.59-34.5-79.303 0-143.591 15.446-143.591 34.5 0 19.054 64.288 34.5 143.591 34.5Z" fill="#FF1212"/><path d="m382.34 223.5-1.199-28.494h-7.326l8.525 28.494Z" fill="#000" stroke="#000" stroke-width="2" stroke-miterlimit="10"/><path d="M322.854 218.034v-30.876l6.595 6.942.125 26.748-6.72-2.814Z" fill="#000" stroke="#000" stroke-miterlimit="10"/><path d="M331.091 644.502 313.86 677.1s-7.194 22.2 13.79 24c20.984 1.8 23.382-18.6 23.382-18.6v-35.514l-8.394-13.686-11.547 11.202Zm102.714-48.504 7.758 41.502s4.245 18.744 25.504 11.772c21.26-6.972 12.951-25.86 12.951-25.86l-31.171-36.726-10.282-3.786-4.76 13.098Z" fill="#FF7905" stroke="#000" stroke-miterlimit="10"/><path d="M366.656 264.48s-5.432 18.42 18.55 21.42c0 12-40.361 15.6-48.359 0 14.785-7.2 8.321-22.854 8.321-22.854" fill="#FFC979"/><path d="M366.656 264.48s-5.432 18.42 18.55 21.42c0 12-40.361 15.6-48.359 0 14.785-7.2 8.321-22.854 8.321-22.854" stroke="#000" stroke-miterlimit="10"/><path d="M377.622 202.29s21.074 62.424-19.389 64.11c-34.558-3.372-30.343-22.776-30.343-22.776s-9.275-.846-10.115-13.494c-.839-12.648 6.745-14.34 11.799-9.282-.845-10.122-1.684-22.776-1.684-22.776s18.544-42.18 49.732 4.218Z" fill="#FFC979" stroke="#000" stroke-miterlimit="10"/><path d="M281.875 397.068v23.028s-3.987 9.204 12.8 5.604c16.787-3.6 115.112 10.2 115.112 10.2s14.989 4.2 18.586-9.6c3.597-13.8 0-27.6 0-27.6l-146.498-1.632Z" fill="#FF3E48" stroke="#000" stroke-miterlimit="10"/><path d="M385.206 285.9s61.753 0 68.947 87.6c0 13.2 6.595 25.2-25.78 25.2s-158.279-1.8-158.279-1.8-33.575 1.2-20.984-30.6c12.59-31.8 12.398-71.4 87.737-80.4 15.984 6.6 48.359 0 48.359 0Z" fill="#FF3E48" stroke="#000" stroke-miterlimit="10"/><path d="M317.583 486.934s-16.836 19.585-17.44 22.152c-.603 2.567-12.681 15.504 0 44.651 12.682 29.147 23.551 90.752 23.551 90.752s23.932-1.771 32.495 4.89c.114-13.874-8.34-110.132-8.34-110.132l34.529-32.131-14.299-26.15-50.496 5.968Z" fill="#C3DF3E" stroke="#000" stroke-miterlimit="10"/><path d="M370.817 223.5a2.999 2.999 0 0 0 2.998-3 2.999 2.999 0 1 0-5.996 0c0 1.657 1.342 3 2.998 3Zm-26.38 0a2.999 2.999 0 0 0 2.998-3 2.999 2.999 0 1 0-5.996 0c0 1.657 1.342 3 2.998 3Z" fill="#000" stroke="#000" stroke-miterlimit="10"/><path d="M336.847 219.3s8.897-5.7 14.389 0m12.59.6s8.897-5.7 14.389 0" stroke="#000" stroke-width="2" stroke-miterlimit="10"/><path d="M353.13 207.816c16.722 0 30.277-9.249 30.277-20.658S369.852 166.5 353.13 166.5c-16.721 0-30.276 9.249-30.276 20.658s13.555 20.658 30.276 20.658Z" fill="#000" stroke="#000" stroke-miterlimit="10"/><path d="M294.675 425.7s77.941-5.4 106.719 5.4c28.778 10.8 50.865 89.544 53.311 153.372-14.341 4.428-24.737 14.904-24.737 14.904l-62.455-107.568-41.068 4.092s-53.959 12.6-50.362-23.4c3.598-36 18.586-46.8 18.586-46.8h.006Z" fill="#E5FF69" stroke="#000" stroke-miterlimit="10"/><path d="M776.407 397.2H26.979V417h749.428v-19.8Z" fill="#A8A8A8"/><path d="M83.936 738V417h-14.39v321h14.39Zm655.899 0V417h-14.389v321h14.389Z" fill="#848484"/><path d="M407.413 313.8H304.244c-9.093 0-16.464 7.377-16.464 16.476v43.248c0 9.099 7.371 16.476 16.464 16.476h103.169c9.093 0 16.463-7.377 16.463-16.476v-43.248c0-9.099-7.37-16.476-16.463-16.476Z" fill="gray" stroke="#000" stroke-miterlimit="10"/><path d="M410.686 390H300.97v7.2h109.716V390Z" fill="#585858" stroke="#000" stroke-miterlimit="10"/><path d="m181.661 341.1 9.305 56.1h24.869l7.794-56.1h-41.968Z" fill="#89B5FF"/><path d="M202.645 347.4c11.589 0 20.984-2.821 20.984-6.3 0-3.479-9.395-6.3-20.984-6.3-11.589 0-20.984 2.821-20.984 6.3 0 3.479 9.395 6.3 20.984 6.3Z" fill="#5E88FF"/><path d="M618.728 387h96.526a3 3 0 0 1 2.998 3v7.2H615.73V390a3 3 0 0 1 2.998-3Z" fill="#484848"/><path d="M671.487 361.2h-8.993V387h8.993v-25.8Z" fill="#5E5E5E"/><path d="M585.669 262.8h164.358c6.619 0 11.991 5.376 11.991 12v73.284c0 7.236-5.875 13.116-13.106 13.116H585.669c-7.231 0-13.106-5.88-13.106-13.116v-72.168c0-7.236 5.875-13.116 13.106-13.116Z" fill="#7E7E7E"/><path d="M534.792 364.8h-23.155s1.715 27.6 15.433 32.4h15.444c13.717-4.8 15.432-32.4 15.432-32.4h-23.154Z" fill="#7A1D00"/><path d="M562.641 344.064c6.864-8.136-.87-11.664-.87-11.664s3.597-7.2-3.825-8.208c-1.427-10.008-8.765-5.592-8.765-5.592s-.6-7.8-10.192-3.6c3.597-9-4.197-8.952-4.197-8.952s-7.794-.048-4.197 8.952c-9.593-4.2-10.192 3.6-10.192 3.6s-7.339-4.416-8.765 5.592c-7.423 1.008-3.826 8.208-3.826 8.208s-7.74 3.528-.869 11.664c-9.323 9.336.869 11.136.869 11.136s-7.338 10.8 3.826 9.6h46.308c11.164 1.2 3.825-9.6 3.825-9.6s10.192-1.8.87-11.136Z" fill="#00A819"/></g><defs><clipPath id="a"><path fill="#fff" d="M0 0h786v792H0z"/></clipPath></defs></svg>