<svg width="743" height="387" fill="none" xmlns="http://www.w3.org/2000/svg"><g filter="url(#a)"><path d="M598.114 29.995H143.102c-16.743 0-30.317 13.543-30.317 30.248v288.254c0 16.706 13.574 30.249 30.317 30.249h455.012c16.744 0 30.318-13.543 30.318-30.249V60.243c0-16.706-13.574-30.248-30.318-30.248Z" fill="#FFE083"/><path d="M598.114 30.249c16.576 0 30.063 13.457 30.063 29.994v288.254c0 16.538-13.487 29.995-30.063 29.995H143.102c-16.575 0-30.062-13.457-30.062-29.995V60.243c0-16.537 13.487-29.994 30.062-29.994h455.012Zm0-.509H143.102c-16.886 0-30.572 13.656-30.572 30.503v288.254c0 16.848 13.686 30.503 30.572 30.503h455.012c16.886 0 30.572-13.655 30.572-30.503V60.243c0-16.847-13.686-30.503-30.572-30.503Z" fill="#FFE083"/><path d="M112.785 71.174v-10.93c0-16.68 13.6-30.25 30.317-30.25h455.012c16.718 0 30.318 13.57 30.318 30.25v10.93H112.785Z" fill="#EF4D1F"/><path d="M598.114 30.249c16.576 0 30.063 13.457 30.063 29.994V70.92H113.04V60.245c0-16.538 13.487-29.995 30.062-29.995h455.012Zm0-.509H143.102c-16.886 0-30.572 13.656-30.572 30.503v11.185h516.156V60.244c0-16.848-13.686-30.504-30.572-30.504Z" fill="#EF4D1F"/><path d="M149.217 62.531c6.613 0 11.974-5.349 11.974-11.947 0-6.598-5.361-11.947-11.974-11.947s-11.974 5.349-11.974 11.947c0 6.598 5.361 11.947 11.974 11.947Z" fill="#B81309"/><path d="M149.217 38.891c6.46 0 11.719 5.247 11.719 11.693 0 6.447-5.259 11.693-11.719 11.693-6.461 0-11.72-5.246-11.72-11.693 0-6.446 5.259-11.693 11.72-11.693Zm0-.508c-6.752 0-12.229 5.465-12.229 12.201 0 6.736 5.477 12.201 12.229 12.201 6.751 0 12.228-5.465 12.228-12.2 0-6.737-5.477-12.202-12.228-12.202Zm33.119 24.148c6.613 0 11.974-5.349 11.974-11.947 0-6.598-5.361-11.947-11.974-11.947s-11.974 5.349-11.974 11.947c0 6.598 5.361 11.947 11.974 11.947Z" fill="#B81309"/><path d="M182.336 38.891c6.461 0 11.719 5.247 11.719 11.693 0 6.447-5.258 11.693-11.719 11.693-6.461 0-11.719-5.246-11.719-11.693 0-6.446 5.258-11.693 11.719-11.693Zm0-.508c-6.751 0-12.229 5.465-12.229 12.201 0 6.736 5.478 12.201 12.229 12.201 6.752 0 12.229-5.465 12.229-12.2 0-6.737-5.477-12.202-12.229-12.202Zm30.572 24.148c6.613 0 11.974-5.349 11.974-11.947 0-6.598-5.361-11.947-11.974-11.947s-11.974 5.349-11.974 11.947c0 6.598 5.361 11.947 11.974 11.947Z" fill="#B81309"/><path d="M212.908 38.891c6.461 0 11.719 5.247 11.719 11.693 0 6.447-5.258 11.693-11.719 11.693-6.461 0-11.719-5.246-11.719-11.693 0-6.446 5.258-11.693 11.719-11.693Zm0-.508c-6.751 0-12.229 5.465-12.229 12.201 0 6.736 5.478 12.201 12.229 12.201 6.751 0 12.229-5.465 12.229-12.2 0-6.737-5.478-12.202-12.229-12.202Z" fill="#B81309"/></g><g filter="url(#b)"><path d="M238.64 82.358H14.445c-5.628 0-10.19 4.552-10.19 10.168v40.671c0 5.615 4.562 10.167 10.19 10.167H238.64c5.628 0 10.19-4.552 10.19-10.167V92.526c0-5.616-4.562-10.168-10.19-10.168Z" fill="#fff"/><path d="M38.393 136.247c12.945 0 23.439-10.47 23.439-23.386 0-12.915-10.494-23.386-23.439-23.386-12.944 0-23.438 10.47-23.438 23.386 0 12.916 10.494 23.386 23.438 23.386Z" fill="#E5FF69"/><path d="M225.392 95.322H73.042a2.8 2.8 0 0 0-2.803 2.796v3.559a2.8 2.8 0 0 0 2.803 2.796h152.35a2.8 2.8 0 0 0 2.802-2.796v-3.559a2.8 2.8 0 0 0-2.802-2.796Zm-78.978 26.944H73.042a2.8 2.8 0 0 0-2.803 2.796 2.799 2.799 0 0 0 2.803 2.796h73.372a2.799 2.799 0 0 0 2.803-2.796 2.8 2.8 0 0 0-2.803-2.796Zm78.978 0h-36.687a2.8 2.8 0 0 0-2.802 2.796 2.799 2.799 0 0 0 2.802 2.796h36.687a2.799 2.799 0 0 0 2.802-2.796 2.8 2.8 0 0 0-2.802-2.796Z" fill="#D2E286"/></g><g filter="url(#c)"><path d="M718.364.254H495.189c-11.256 0-20.381 9.105-20.381 20.335v123.029c0 11.231 9.125 20.336 20.381 20.336h223.175c11.256 0 20.381-9.105 20.381-20.336V20.59c0-11.231-9.125-20.336-20.381-20.336Z" fill="#FFEFBE"/><path d="M710.211 13.472H502.832c-5.628 0-10.191 4.552-10.191 10.168v89.475c0 5.616 4.563 10.168 10.191 10.168h207.379c5.629 0 10.191-4.552 10.191-10.168V23.64c0-5.616-4.562-10.168-10.191-10.168Z" fill="#FF3E48"/><path d="m645.302 57.458-42.571-24.525c-9.131-5.262-20.545 1.317-20.545 11.835v49.044c0 10.518 11.414 17.097 20.545 11.835l42.571-24.524c9.131-5.262 9.131-18.409 0-23.67v.005Z" fill="#fff"/><path d="M583.338 133.959h-87.64a3.054 3.054 0 0 0-3.057 3.05 3.054 3.054 0 0 0 3.057 3.051h87.64a3.054 3.054 0 0 0 3.057-3.051 3.054 3.054 0 0 0-3.057-3.05Zm-28.534 12.71h-59.106a3.053 3.053 0 0 0-3.057 3.05 3.053 3.053 0 0 0 3.057 3.05h59.106a3.053 3.053 0 0 0 3.057-3.05 3.053 3.053 0 0 0-3.057-3.05Zm134.007 0h-59.106a3.053 3.053 0 0 0-3.057 3.05 3.053 3.053 0 0 0 3.057 3.05h59.106a3.053 3.053 0 0 0 3.057-3.05 3.053 3.053 0 0 0-3.057-3.05Zm28.534-12.71h-87.64a3.054 3.054 0 0 0-3.057 3.05 3.054 3.054 0 0 0 3.057 3.051h87.64a3.054 3.054 0 0 0 3.057-3.051 3.054 3.054 0 0 0-3.057-3.05Z" fill="#FFC1A5"/></g><g filter="url(#d)"><path d="M255.964 216.826H41.96c-11.256 0-20.381 9.104-20.381 20.335v86.425c0 11.231 9.125 20.336 20.381 20.336h214.004c11.256 0 20.381-9.105 20.381-20.336v-86.425c0-11.231-9.125-20.335-20.381-20.335Z" fill="#fff"/><path d="M86.035 281.39h50.189c0 27.473-22.654 50.076-50.19 50.076a50.177 50.177 0 0 1-18.903-3.691l18.904-46.385Z" fill="#FFE083"/><path d="m83.996 280.882-19.29 46.227c-18.675-7.758-30.898-26.049-30.898-46.227a49.994 49.994 0 0 1 7.464-26.278l42.724 26.278Z" fill="#EF4D1F"/><path d="m85.52 279.392-42.73-26.263c9.126-14.783 25.33-23.812 42.73-23.812 27.372 0 49.949 22.338 50.189 49.643l-50.189.432Z" fill="#E5FF69"/><path d="M254.69 239.195H148.198a2.545 2.545 0 0 0-2.548 2.541 2.545 2.545 0 0 0 2.548 2.542H254.69a2.544 2.544 0 0 0 2.547-2.542 2.544 2.544 0 0 0-2.547-2.541Zm0 20.335h-92.735a2.545 2.545 0 0 0-2.548 2.542 2.545 2.545 0 0 0 2.548 2.542h92.735a2.544 2.544 0 0 0 2.547-2.542 2.544 2.544 0 0 0-2.547-2.542Zm0 20.335h-89.168a2.545 2.545 0 0 0-2.548 2.542 2.545 2.545 0 0 0 2.548 2.542h89.168a2.544 2.544 0 0 0 2.547-2.542 2.544 2.544 0 0 0-2.547-2.542Zm3.057 20.336h-95.792a2.545 2.545 0 0 0-2.548 2.541 2.545 2.545 0 0 0 2.548 2.542h95.792a2.545 2.545 0 0 0 2.548-2.542 2.545 2.545 0 0 0-2.548-2.541Zm.509 20.843H148.198a2.545 2.545 0 0 0-2.548 2.542 2.545 2.545 0 0 0 2.548 2.542h110.058a2.544 2.544 0 0 0 2.548-2.542 2.544 2.544 0 0 0-2.548-2.542Z" fill="#F08F74"/></g><g filter="url(#e)"><path d="M711.74 244.787H441.179c-5.629 0-10.191 4.552-10.191 10.167v79.054c0 5.616 4.562 10.168 10.191 10.168H711.74c5.628 0 10.191-4.552 10.191-10.168v-79.054c0-5.615-4.563-10.167-10.191-10.167Z" fill="#fff"/><path d="M588.178 258.767H450.095a5.09 5.09 0 0 0-5.095 5.084v32.537a5.09 5.09 0 0 0 5.095 5.083h138.083a5.09 5.09 0 0 0 5.096-5.083v-32.537a5.09 5.09 0 0 0-5.096-5.084Z" fill="#C3DF3E"/><path d="M704.607 262.58h-88.149a2.545 2.545 0 0 0-2.548 2.542 2.545 2.545 0 0 0 2.548 2.542h88.149a2.544 2.544 0 0 0 2.547-2.542 2.544 2.544 0 0 0-2.547-2.542Zm-.51 17.794h-88.149a2.545 2.545 0 0 0-2.548 2.541 2.545 2.545 0 0 0 2.548 2.542h88.149a2.545 2.545 0 0 0 2.548-2.542 2.545 2.545 0 0 0-2.548-2.541Zm0 17.793h-88.149a2.545 2.545 0 0 0-2.548 2.542 2.545 2.545 0 0 0 2.548 2.542h88.149a2.545 2.545 0 0 0 2.548-2.542 2.545 2.545 0 0 0-2.548-2.542Zm0 20.844H447.293a2.545 2.545 0 0 0-2.548 2.542 2.545 2.545 0 0 0 2.548 2.542h256.804a2.545 2.545 0 0 0 2.548-2.542 2.545 2.545 0 0 0-2.548-2.542Z" fill="#D2E286"/></g><defs><filter id="a" x="108.53" y="29.74" width="524.156" height="357.26" filterUnits="userSpaceOnUse" color-interpolation-filters="sRGB"><feFlood flood-opacity="0" result="BackgroundImageFix"/><feColorMatrix in="SourceAlpha" values="0 0 0 0 0 0 0 0 0 0 0 0 0 0 0 0 0 0 127 0" result="hardAlpha"/><feOffset dy="4"/><feGaussianBlur stdDeviation="2"/><feComposite in2="hardAlpha" operator="out"/><feColorMatrix values="0 0 0 0 0 0 0 0 0 0 0 0 0 0 0 0 0 0 0.25 0"/><feBlend in2="BackgroundImageFix" result="effect1_dropShadow_374_4450"/><feBlend in="SourceGraphic" in2="effect1_dropShadow_374_4450" result="shape"/></filter><filter id="b" x=".255" y="82.358" width="252.575" height="69.006" filterUnits="userSpaceOnUse" color-interpolation-filters="sRGB"><feFlood flood-opacity="0" result="BackgroundImageFix"/><feColorMatrix in="SourceAlpha" values="0 0 0 0 0 0 0 0 0 0 0 0 0 0 0 0 0 0 127 0" result="hardAlpha"/><feOffset dy="4"/><feGaussianBlur stdDeviation="2"/><feComposite in2="hardAlpha" operator="out"/><feColorMatrix values="0 0 0 0 0 0 0 0 0 0 0 0 0 0 0 0 0 0 0.25 0"/><feBlend in2="BackgroundImageFix" result="effect1_dropShadow_374_4450"/><feBlend in="SourceGraphic" in2="effect1_dropShadow_374_4450" result="shape"/></filter><filter id="c" x="470.808" y=".254" width="271.938" height="171.7" filterUnits="userSpaceOnUse" color-interpolation-filters="sRGB"><feFlood flood-opacity="0" result="BackgroundImageFix"/><feColorMatrix in="SourceAlpha" values="0 0 0 0 0 0 0 0 0 0 0 0 0 0 0 0 0 0 127 0" result="hardAlpha"/><feOffset dy="4"/><feGaussianBlur stdDeviation="2"/><feComposite in2="hardAlpha" operator="out"/><feColorMatrix values="0 0 0 0 0 0 0 0 0 0 0 0 0 0 0 0 0 0 0.25 0"/><feBlend in2="BackgroundImageFix" result="effect1_dropShadow_374_4450"/><feBlend in="SourceGraphic" in2="effect1_dropShadow_374_4450" result="shape"/></filter><filter id="d" x="17.579" y="216.826" width="262.766" height="135.096" filterUnits="userSpaceOnUse" color-interpolation-filters="sRGB"><feFlood flood-opacity="0" result="BackgroundImageFix"/><feColorMatrix in="SourceAlpha" values="0 0 0 0 0 0 0 0 0 0 0 0 0 0 0 0 0 0 127 0" result="hardAlpha"/><feOffset dy="4"/><feGaussianBlur stdDeviation="2"/><feComposite in2="hardAlpha" operator="out"/><feColorMatrix values="0 0 0 0 0 0 0 0 0 0 0 0 0 0 0 0 0 0 0.25 0"/><feBlend in2="BackgroundImageFix" result="effect1_dropShadow_374_4450"/><feBlend in="SourceGraphic" in2="effect1_dropShadow_374_4450" result="shape"/></filter><filter id="e" x="426.988" y="244.787" width="298.943" height="107.389" filterUnits="userSpaceOnUse" color-interpolation-filters="sRGB"><feFlood flood-opacity="0" result="BackgroundImageFix"/><feColorMatrix in="SourceAlpha" values="0 0 0 0 0 0 0 0 0 0 0 0 0 0 0 0 0 0 127 0" result="hardAlpha"/><feOffset dy="4"/><feGaussianBlur stdDeviation="2"/><feComposite in2="hardAlpha" operator="out"/><feColorMatrix values="0 0 0 0 0 0 0 0 0 0 0 0 0 0 0 0 0 0 0.25 0"/><feBlend in2="BackgroundImageFix" result="effect1_dropShadow_374_4450"/><feBlend in="SourceGraphic" in2="effect1_dropShadow_374_4450" result="shape"/></filter></defs></svg>