<svg width="623" height="486" fill="none" xmlns="http://www.w3.org/2000/svg"><g clip-path="url(#a)"><path d="m362.492 462.022 77.09-57.819 33.348 5.544-44.386 52.275h-66.052Z" fill="#585858"/><path d="M428.544 462.022h-66.052v12.673h66.052v-12.673Z" fill="#999"/><path d="m428.544 474.695 79.262-52.803 17.607-88.18-81.545 48.05-15.324 80.26.084 10.983" fill="gray"/><path d="M417.732 419.838s14.532 12.705 9.501 27.975c-5.03 15.271-19.297-6.109-19.297-6.109l-4.915-10.756 14.706-11.11h.005Z" fill="#FFC979" stroke="#000" stroke-width="2" stroke-miterlimit="10"/><path d="M427.661 446.34s-.724-7.968-6.261-12.514" stroke="#000" stroke-width="2" stroke-miterlimit="10"/><path d="M417.69 436.571s6.441 6.527 8.386 13.877l-8.386-13.877Z" fill="#fff"/><path d="M417.69 436.571s6.441 6.527 8.386 13.877" stroke="#000" stroke-width="2" stroke-miterlimit="10"/><path d="M413.315 440.083s8.275 6.954 9.374 13.127l-9.374-13.127Z" fill="#fff"/><path d="M413.315 440.083s8.275 6.954 9.374 13.127" stroke="#000" stroke-width="2" stroke-miterlimit="10"/><path d="M399.211 433.826s28.276.739 25.634 19.748c-2.642 11.088-12.682 8.448-13.739 6.336-1.057-2.112-9.437-6.991-15.023-6.135-5.585.855 3.134-19.949 3.134-19.949h-.006Z" fill="#FFC979" stroke="#000" stroke-width="2" stroke-miterlimit="10"/><path d="M415.682 461.785s.708-6.099-7.746-9.795m12.93 8.268s.808-6.156-9.76-13.021m13.305 7.852s-.095-8.379-10.663-12.604" stroke="#000" stroke-width="2" stroke-miterlimit="10"/><path d="M312.028 255.311s18.759-2.915 26.685 20.318c7.927 23.233 35.932 102.437 56.541 121.974 20.608 19.537 23.25 21.649 23.25 21.649l-21.665 16.369s-35.177-23.349-43.742-42.828c-8.566-19.479-41.069-137.482-41.069-137.482Z" fill="#DB3039" stroke="#000" stroke-width="2" stroke-miterlimit="10"/><path d="M318.634 226.649s-17.438 14.13-4.756 31.555c-18.495 14.785-43.33-2.64-43.33-2.64l.528-25.345 4.228-9.505 43.33 5.935Z" fill="#FFC979" stroke="#000" stroke-width="2" stroke-miterlimit="10"/><path d="M328.494 164.855s5.464 32.627 6.52 40.019c1.057 7.392.529 19.009-16.38 21.776-24.307 2.513-41.217-1.183-43.33-5.935-2.114-4.752-7.927-16.369-7.927-16.369s-10.293-6.115-8.053-18.898c2.241-12.784 10.696-5.391 10.696-5.391l7.397-1.056 6.341-17.953s38.738 7.086 44.736 3.807Z" fill="#FFC979" stroke="#000" stroke-width="2" stroke-miterlimit="10"/><path d="M312.028 189.033a3.434 3.434 0 0 0 3.435-3.432 3.434 3.434 0 0 0-6.869 0 3.433 3.433 0 0 0 3.434 3.432Z" fill="#000" stroke="#000" stroke-width="2" stroke-miterlimit="10"/><path d="M302.781 189.033s8.455-11.617 15.853-5.28" stroke="#000" stroke-width="2" stroke-miterlimit="10"/><path d="m283.758 161.048 24.836 3.252s26.42 9.948 33.29-15.397c6.869-25.345-32.762-24.521-39.103-24.141-6.341.38-38.236-3.913-53.729 20.677-15.493 24.59-10.209 37.258-.169 54.683 10.04 17.424 22.193 30.097 22.193 30.097l4.228-9.504-7.927-16.369s-11.878-5.059-8.053-18.898c3.826-13.84 10.696-5.391 10.696-5.391l7.397-1.056 6.341-17.953Z" fill="#000" stroke="#000" stroke-width="2" stroke-miterlimit="10"/><path d="M268.434 183.753s-7.398-4.224-6.341 6.336c1.057 10.561 6.87 8.977 6.87 8.977" stroke="#000" stroke-width="2" stroke-miterlimit="10"/><path d="M270.638 251.345s21.046 17.446 41.39 3.971c18.231.781 39.896 40.911 40.424 102.69.528 61.779 4.227 106.662 4.227 106.662s6.87 20.593-27.477 20.593h-81.101s-16.127 4.224-15.599-24.818c.529-29.041-8.481-129.239-.01-179.993 26.431-31.217 38.146-29.099 38.146-29.099v-.006Z" fill="#FF3E48" stroke="#000" stroke-width="2" stroke-miterlimit="10"/><path d="M239.826 271.896c-4.153 3.733-69.148 67.624 16.983 145.772 68.694 42.77 138.973 38.018 138.973 38.018l4.227-26.929s-61.01-6.316-83.082-17.151c0 0-50.374-15.466-60.266-47.739-9.892-32.272-5.136-41.244-5.136-41.244" fill="#FF3E48"/><path d="M239.826 271.896c-4.153 3.733-69.148 67.624 16.983 145.772 68.694 42.77 138.973 38.018 138.973 38.018l4.227-26.929s-61.01-6.316-83.082-17.151c0 0-50.374-15.466-60.266-47.739-9.892-32.272-5.136-41.244-5.136-41.244" stroke="#000" stroke-width="2" stroke-miterlimit="10"/><g filter="url(#b)"><path d="M158.524 229.955H10.568C4.732 229.955 0 234.683 0 240.516v168.968c0 5.832 4.732 10.56 10.568 10.56h147.956c5.837 0 10.568-4.728 10.568-10.56V240.516c0-5.833-4.731-10.561-10.568-10.561Z" fill="#F2F2F2"/><path d="M152.712 240.78H20.608a5.282 5.282 0 0 0-5.284 5.28v105.605a5.282 5.282 0 0 0 5.284 5.28h132.104a5.282 5.282 0 0 0 5.284-5.28V246.06a5.282 5.282 0 0 0-5.284-5.28Z" fill="#C3DF3E"/><path d="M143.2 372.258H18.495a3.169 3.169 0 1 0 0 6.336H143.2a3.17 3.17 0 0 0 3.171-3.168 3.17 3.17 0 0 0-3.171-3.168Zm-35.932 21.649H18.495a3.17 3.17 0 1 0 0 6.337h88.773a3.17 3.17 0 0 0 3.171-3.169 3.17 3.17 0 0 0-3.171-3.168Z" fill="#E5FF69"/></g><g filter="url(#c)"><path d="M218.235 139.663H91.415c-5.836 0-10.568 4.728-10.568 10.56V287.51c0 5.832 4.732 10.56 10.569 10.56h126.819c5.837 0 10.568-4.728 10.568-10.56V150.223c0-5.832-4.731-10.56-10.568-10.56Z" fill="#fff"/><path d="M103.041 200.649h-8.983v97.157h8.983v-97.157Z" fill="#E5FF69"/><path d="M118.893 222.299h-8.983v75.507h8.983v-75.507Z" fill="#FFE083"/><path d="M135.274 182.168h-8.983v115.638h8.983V182.168Z" fill="#E5FF69"/><path d="M151.126 203.29h-8.983v94.516h8.983V203.29Zm15.853 8.976h-8.983v85.54h8.983v-85.54Zm16.381-8.976h-8.983v94.516h8.983V203.29Z" fill="#FFE083"/><path d="M199.74 185.337h-8.983v112.469h8.983V185.337Zm15.853-29.042h-8.983v141.511h8.983V156.295Z" fill="#E5FF69"/></g><g filter="url(#d)"><path d="M612.432 0H475.044c-5.836 0-10.568 4.728-10.568 10.56v158.408c0 5.833 4.732 10.561 10.568 10.561h137.388c5.837 0 10.568-4.728 10.568-10.561V10.561C623 4.727 618.269 0 612.432 0Z" fill="#FFEFBE"/><path d="M607.148 8.448h-126.82a5.282 5.282 0 0 0-5.284 5.28v79.204a5.282 5.282 0 0 0 5.284 5.28h126.82a5.282 5.282 0 0 0 5.284-5.28V13.728a5.282 5.282 0 0 0-5.284-5.28Z" fill="#FF3E48"/><path d="M561.656 46.904 532.187 31.84c-4.867-2.487-10.642 1.046-10.642 6.505V68.47c0 5.46 5.775 8.992 10.642 6.505l29.469-15.064c5.311-2.714 5.311-10.297 0-13.01v.005Z" fill="#fff"/><path d="M609.261 114.054H478.215a3.17 3.17 0 0 0-3.171 3.168 3.17 3.17 0 0 0 3.171 3.168h131.046a3.17 3.17 0 0 0 3.171-3.168 3.17 3.17 0 0 0-3.171-3.168Zm0 16.368h-93.529a3.17 3.17 0 1 0 0 6.337h93.529a3.17 3.17 0 0 0 3.171-3.168 3.17 3.17 0 0 0-3.171-3.169Zm0 16.369h-71.864a3.169 3.169 0 1 0 0 6.336h71.864a3.17 3.17 0 0 0 3.171-3.168 3.17 3.17 0 0 0-3.171-3.168Zm0 16.369h-95.643a3.169 3.169 0 1 0 0 6.336h95.643a3.17 3.17 0 0 0 3.171-3.168 3.17 3.17 0 0 0-3.171-3.168Z" fill="#FFC1A5"/></g><g filter="url(#e)"><path d="M521.28 31.945H357.472c-5.837 0-10.568 4.728-10.568 10.56v159.201c0 5.832 4.731 10.56 10.568 10.56H521.28c5.837 0 10.569-4.728 10.569-10.56v-159.2c0-5.833-4.732-10.56-10.569-10.56Z" fill="#FFE083"/><path d="M484.027 42.242H362.492a5.282 5.282 0 0 0-5.284 5.28v31.682a5.282 5.282 0 0 0 5.284 5.28h121.535a5.282 5.282 0 0 0 5.284-5.28V47.522a5.282 5.282 0 0 0-5.284-5.28Z" fill="#FF3E48"/><path d="M388.12 157.879c15.321 0 27.742-12.411 27.742-27.721s-12.421-27.721-27.742-27.721c-15.321 0-27.742 12.411-27.742 27.721s12.421 27.721 27.742 27.721Z" fill="#FFF7DF"/><path d="M370.947 132.154c.475.502 15.752 13.053 15.752 13.053l18.594-30.625" stroke="#00A819" stroke-width="4" stroke-miterlimit="10"/><path d="M523.13 98.212h-85.603a2.113 2.113 0 1 0 0 4.225h85.603a2.113 2.113 0 1 0 0-4.225Zm0 11.617h-85.603a2.113 2.113 0 1 0 0 4.224h85.603a2.112 2.112 0 1 0 0-4.224Zm0 11.617h-85.603a2.112 2.112 0 1 0 0 4.224h85.603a2.113 2.113 0 1 0 0-4.224Zm.528 11.088h-85.603a2.113 2.113 0 1 0 0 4.224h85.603a2.112 2.112 0 1 0 0-4.224Zm-.528 12.145h-85.603a2.112 2.112 0 1 0 0 4.224h85.603a2.113 2.113 0 1 0 0-4.224Z" fill="#FF3E48"/><path d="M519.959 166.328H413.748a5.282 5.282 0 0 0-5.284 5.28v26.401a5.282 5.282 0 0 0 5.284 5.28h106.211a5.282 5.282 0 0 0 5.284-5.28v-26.401a5.282 5.282 0 0 0-5.284-5.28Z" fill="#EF4D1F"/></g><g filter="url(#f)"><path d="M308.594 54.915c0 14.483-11.927 26.401-26.421 26.401s-26.421-11.918-26.421-26.401c0-4.906 1.369-9.7 3.932-13.856l-8.994-5.544a36.932 36.932 0 0 0-5.501 19.4c0 20.276 16.698 36.962 36.989 36.962 20.291 0 36.989-16.686 36.989-36.962h-10.573Z" fill="#fff"/><path d="M282.173 17.953c-20.291 0-36.989 16.686-36.989 36.962v.02h10.568v-.02c0-14.484 11.927-26.401 26.421-26.401s26.421 11.917 26.421 26.4a26.412 26.412 0 0 1-5.913 16.644l8.206 6.659a36.954 36.954 0 0 0 8.28-23.307c0-20.277-16.698-36.962-36.989-36.962l-.005.005Z" fill="#EF4D1F"/></g></g><defs><filter id="b" x="-4" y="229.955" width="177.092" height="198.089" filterUnits="userSpaceOnUse" color-interpolation-filters="sRGB"><feFlood flood-opacity="0" result="BackgroundImageFix"/><feColorMatrix in="SourceAlpha" values="0 0 0 0 0 0 0 0 0 0 0 0 0 0 0 0 0 0 127 0" result="hardAlpha"/><feOffset dy="4"/><feGaussianBlur stdDeviation="2"/><feComposite in2="hardAlpha" operator="out"/><feColorMatrix values="0 0 0 0 0 0 0 0 0 0 0 0 0 0 0 0 0 0 0.25 0"/><feBlend in2="BackgroundImageFix" result="effect1_dropShadow_385_5402"/><feBlend in="SourceGraphic" in2="effect1_dropShadow_385_5402" result="shape"/></filter><filter id="c" x="76.847" y="139.663" width="155.956" height="166.408" filterUnits="userSpaceOnUse" color-interpolation-filters="sRGB"><feFlood flood-opacity="0" result="BackgroundImageFix"/><feColorMatrix in="SourceAlpha" values="0 0 0 0 0 0 0 0 0 0 0 0 0 0 0 0 0 0 127 0" result="hardAlpha"/><feOffset dy="4"/><feGaussianBlur stdDeviation="2"/><feComposite in2="hardAlpha" operator="out"/><feColorMatrix values="0 0 0 0 0 0 0 0 0 0 0 0 0 0 0 0 0 0 0.25 0"/><feBlend in2="BackgroundImageFix" result="effect1_dropShadow_385_5402"/><feBlend in="SourceGraphic" in2="effect1_dropShadow_385_5402" result="shape"/></filter><filter id="d" x="460.476" y="0" width="166.524" height="187.529" filterUnits="userSpaceOnUse" color-interpolation-filters="sRGB"><feFlood flood-opacity="0" result="BackgroundImageFix"/><feColorMatrix in="SourceAlpha" values="0 0 0 0 0 0 0 0 0 0 0 0 0 0 0 0 0 0 127 0" result="hardAlpha"/><feOffset dy="4"/><feGaussianBlur stdDeviation="2"/><feComposite in2="hardAlpha" operator="out"/><feColorMatrix values="0 0 0 0 0 0 0 0 0 0 0 0 0 0 0 0 0 0 0.25 0"/><feBlend in2="BackgroundImageFix" result="effect1_dropShadow_385_5402"/><feBlend in="SourceGraphic" in2="effect1_dropShadow_385_5402" result="shape"/></filter><filter id="e" x="342.904" y="31.945" width="192.945" height="188.321" filterUnits="userSpaceOnUse" color-interpolation-filters="sRGB"><feFlood flood-opacity="0" result="BackgroundImageFix"/><feColorMatrix in="SourceAlpha" values="0 0 0 0 0 0 0 0 0 0 0 0 0 0 0 0 0 0 127 0" result="hardAlpha"/><feOffset dy="4"/><feGaussianBlur stdDeviation="2"/><feComposite in2="hardAlpha" operator="out"/><feColorMatrix values="0 0 0 0 0 0 0 0 0 0 0 0 0 0 0 0 0 0 0.25 0"/><feBlend in2="BackgroundImageFix" result="effect1_dropShadow_385_5402"/><feBlend in="SourceGraphic" in2="effect1_dropShadow_385_5402" result="shape"/></filter><filter id="f" x="241.184" y="17.948" width="81.983" height="81.929" filterUnits="userSpaceOnUse" color-interpolation-filters="sRGB"><feFlood flood-opacity="0" result="BackgroundImageFix"/><feColorMatrix in="SourceAlpha" values="0 0 0 0 0 0 0 0 0 0 0 0 0 0 0 0 0 0 127 0" result="hardAlpha"/><feOffset dy="4"/><feGaussianBlur stdDeviation="2"/><feComposite in2="hardAlpha" operator="out"/><feColorMatrix values="0 0 0 0 0 0 0 0 0 0 0 0 0 0 0 0 0 0 0.25 0"/><feBlend in2="BackgroundImageFix" result="effect1_dropShadow_385_5402"/><feBlend in="SourceGraphic" in2="effect1_dropShadow_385_5402" result="shape"/></filter><clipPath id="a"><path fill="#fff" d="M0 0h623v486H0z"/></clipPath></defs></svg>