<svg width="1319" height="302" fill="none" xmlns="http://www.w3.org/2000/svg"><path d="M-25.202 49.9c39.559-39.944 166.978-92.944 360.19 14.614 241.515 134.449 322.019 49.104 377.54 0 55.521-49.103 167.95-14.614 417.792 70.732 199.87 68.277 201.26 67.419 176.97 58.456" stroke="url(#a)"/><path d="M-27.284 77.172c39.558-39.945 166.978-92.945 360.19 14.614 241.515 134.449 322.019 49.103 377.54 0 55.521-49.103 167.95-14.614 417.794 70.732 199.87 68.276 201.26 67.419 176.97 58.455" stroke="url(#b)"/><path d="M-25.896 104.062c39.558-39.945 166.978-92.945 360.19 14.614 241.515 134.448 322.019 49.103 377.54 0 55.521-49.103 167.95-14.614 417.796 70.731 199.87 68.277 201.26 67.42 176.97 58.456" stroke="url(#c)"/><path d="M-25.896 130.951c39.558-39.944 166.978-92.944 360.19 14.614 241.515 134.449 322.019 49.104 377.54 0 55.521-49.103 167.95-14.614 417.796 70.732 199.87 68.277 201.26 67.419 176.97 58.456" stroke="url(#d)"/><path d="M-25.896 153.165c39.558-39.945 166.978-92.945 360.19 14.614 241.515 134.449 322.019 49.103 377.54 0 55.521-49.103 167.95-14.614 417.796 70.731 199.87 68.277 201.26 67.42 176.97 58.456" stroke="url(#e)"/><path d="M-25.896 183.562c39.558-39.945 166.978-92.945 360.19 14.614 241.514 134.449 322.019 49.103 377.54 0 55.521-49.103 167.95-14.614 417.796 70.731" stroke="url(#f)"/><path d="M-25.896 211.621c39.558-39.945 166.978-92.945 360.19 14.614 241.514 134.449 322.019 49.103 377.54 0 55.521-49.103 167.95-14.614 417.796 70.732" stroke="url(#g)"/><defs><linearGradient id="a" x1="-25.202" y1="99.494" x2="1318" y2="99.494" gradientUnits="userSpaceOnUse"><stop stop-color="#E3255E"/><stop offset=".445" stop-color="#FF2323"/><stop offset="1" stop-color="#E2CC00"/></linearGradient><linearGradient id="b" x1="-27.284" y1="126.766" x2="1315.92" y2="126.766" gradientUnits="userSpaceOnUse"><stop stop-color="#E3255E"/><stop offset=".445" stop-color="#FF2323"/><stop offset="1" stop-color="#E2CC00"/></linearGradient><linearGradient id="c" x1="-25.896" y1="153.656" x2="1317.31" y2="153.656" gradientUnits="userSpaceOnUse"><stop stop-color="#E3255E"/><stop offset=".445" stop-color="#FF2323"/><stop offset="1" stop-color="#E2CC00"/></linearGradient><linearGradient id="d" x1="-25.896" y1="180.545" x2="1317.31" y2="180.545" gradientUnits="userSpaceOnUse"><stop stop-color="#E3255E"/><stop offset=".445" stop-color="#FF2323"/><stop offset="1" stop-color="#E2CC00"/></linearGradient><linearGradient id="e" x1="-25.896" y1="202.759" x2="1317.31" y2="202.759" gradientUnits="userSpaceOnUse"><stop stop-color="#E3255E"/><stop offset=".445" stop-color="#FF2323"/><stop offset="1" stop-color="#E2CC00"/></linearGradient><linearGradient id="f" x1="-25.896" y1="202.531" x2="1129.63" y2="202.531" gradientUnits="userSpaceOnUse"><stop stop-color="#E3255E"/><stop offset=".445" stop-color="#FF2323"/><stop offset="1" stop-color="#E2CC00"/></linearGradient><linearGradient id="g" x1="-25.896" y1="230.59" x2="1129.63" y2="230.59" gradientUnits="userSpaceOnUse"><stop stop-color="#E3255E"/><stop offset=".445" stop-color="#FF2323"/><stop offset="1" stop-color="#E2CC00"/></linearGradient></defs></svg>