<svg width="1442" height="468" fill="none" xmlns="http://www.w3.org/2000/svg"><path d="M-25.202 90.9c39.559-39.945 166.978-92.945 360.19 14.614 241.515 134.449 322.019 49.104 377.54 0 55.521-49.103 167.95-14.614 417.792 70.732 199.87 68.277 201.26 67.419 176.97 58.456" stroke="url(#a)"/><path d="M-27.284 118.172c39.558-39.945 166.978-92.945 360.19 14.614 241.515 134.449 322.019 49.103 377.54 0 55.521-49.103 167.95-14.614 417.794 70.732 199.87 68.276 201.26 67.419 176.97 58.455" stroke="url(#b)"/><path d="M-25.896 145.062c39.558-39.945 166.978-92.945 360.19 14.614 241.515 134.448 322.019 49.103 377.54 0 55.521-49.103 167.95-14.614 417.796 70.731 199.87 68.277 201.26 67.42 176.97 58.456" stroke="url(#c)"/><path d="M-25.896 171.951c39.558-39.944 166.978-92.944 360.19 14.614 241.515 134.449 322.019 49.104 377.54 0 55.521-49.103 167.95-14.614 417.796 70.732 199.87 68.277 201.26 67.419 176.97 58.456" stroke="url(#d)"/><g filter="url(#e)"><path d="M-37 184.812c39.558-39.945 166.978-92.945 360.19 14.614 241.515 134.449 322.019 49.103 377.54 0 55.521-49.103 167.95-14.614 417.79 70.732 199.88 68.276 201.26 67.419 176.97 58.456" stroke="url(#f)" stroke-width="70"/></g><path d="M-25.896 194.165c39.558-39.945 166.978-92.945 360.19 14.614 241.515 134.449 322.019 49.103 377.54 0 55.521-49.103 167.95-14.614 417.796 70.731 199.87 68.277 201.26 67.42 176.97 58.456" stroke="url(#g)"/><path d="M-25.896 224.562c39.558-39.945 166.978-92.945 360.19 14.614 241.514 134.449 322.019 49.103 377.54 0 55.521-49.103 167.95-14.614 417.796 70.731" stroke="url(#h)"/><path d="M-25.896 252.621c39.558-39.945 166.978-92.945 360.19 14.614 241.514 134.449 322.019 49.103 377.54 0 55.521-49.103 167.95-14.614 417.796 70.732" stroke="url(#i)"/><defs><linearGradient id="a" x1="-25.202" y1="140.494" x2="1318" y2="140.494" gradientUnits="userSpaceOnUse"><stop stop-color="#E3255E"/><stop offset=".445" stop-color="#FF2323"/><stop offset="1" stop-color="#E2CC00"/></linearGradient><linearGradient id="b" x1="-27.284" y1="167.766" x2="1315.92" y2="167.766" gradientUnits="userSpaceOnUse"><stop stop-color="#E3255E"/><stop offset=".445" stop-color="#FF2323"/><stop offset="1" stop-color="#E2CC00"/></linearGradient><linearGradient id="c" x1="-25.896" y1="194.656" x2="1317.31" y2="194.656" gradientUnits="userSpaceOnUse"><stop stop-color="#E3255E"/><stop offset=".445" stop-color="#FF2323"/><stop offset="1" stop-color="#E2CC00"/></linearGradient><linearGradient id="d" x1="-25.896" y1="221.545" x2="1317.31" y2="221.545" gradientUnits="userSpaceOnUse"><stop stop-color="#E3255E"/><stop offset=".445" stop-color="#FF2323"/><stop offset="1" stop-color="#E2CC00"/></linearGradient><linearGradient id="f" x1="-37" y1="234.406" x2="1306.2" y2="234.406" gradientUnits="userSpaceOnUse"><stop stop-color="#E3255E"/><stop offset=".445" stop-color="#FF2323"/><stop offset="1" stop-color="#E2CC00"/></linearGradient><linearGradient id="g" x1="-25.896" y1="243.759" x2="1317.31" y2="243.759" gradientUnits="userSpaceOnUse"><stop stop-color="#E3255E"/><stop offset=".445" stop-color="#FF2323"/><stop offset="1" stop-color="#E2CC00"/></linearGradient><linearGradient id="h" x1="-25.896" y1="243.531" x2="1129.63" y2="243.531" gradientUnits="userSpaceOnUse"><stop stop-color="#E3255E"/><stop offset=".445" stop-color="#FF2323"/><stop offset="1" stop-color="#E2CC00"/></linearGradient><linearGradient id="i" x1="-25.896" y1="271.59" x2="1129.63" y2="271.59" gradientUnits="userSpaceOnUse"><stop stop-color="#E3255E"/><stop offset=".445" stop-color="#FF2323"/><stop offset="1" stop-color="#E2CC00"/></linearGradient><filter id="e" x="-161.869" y=".941" width="1603.12" height="466.958" filterUnits="userSpaceOnUse" color-interpolation-filters="sRGB"><feFlood flood-opacity="0" result="BackgroundImageFix"/><feBlend in="SourceGraphic" in2="BackgroundImageFix" result="shape"/><feGaussianBlur stdDeviation="50" result="effect1_foregroundBlur_385_5281"/></filter></defs></svg>