<svg width="210" height="534" fill="none" xmlns="http://www.w3.org/2000/svg"><path d="M211.422 143c-6.936 5.79-21.767 21.743-21.536 38.651.289 21.135 3.468 33.585-14.45 36.914-17.917 3.33-36.124 47.916-20.518 59.642 15.605 11.725 33.234 17.95 37.424 46.034 3.352 22.467 14.264 31.558 19.225 33.295" stroke="url(#a)"/><path d="M211.711 149.08c-6.583 5.489-16.609 22.647-16.39 38.676.275 20.036 3.292 31.838-13.715 34.995-17.006 3.156-34.287 45.424-19.475 56.54 14.812 11.116 31.545 17.017 35.522 43.641 3.182 21.299 9.349 29.917 14.058 31.564" stroke="url(#b)"/><path d="M211.711 160.227c-5.859 4.889-12.188 20.464-11.993 34.742.244 17.848.335 28.069-14.802 30.881-15.137 2.812-30.518 40.463-17.334 50.365 13.184 9.901 28.076 15.158 31.617 38.873 2.832 18.973 8.176 31.571 12.367 33.038" stroke="url(#c)"/><path d="M211.711 170.215c-5.067 4.219-8.116 19.962-7.947 32.282.211 15.4-2.134 24.956-15.223 27.382-13.089 2.426-26.389 34.914-14.989 43.458 11.401 8.544 25.706 13.504 28.767 33.967 2.449 16.37 5.768 32.608 9.392 33.874" stroke="url(#d)"/><path d="M211.422 181.651c-4.274 3.551-4.188 17.28-4.046 27.65.178 12.961-4.168 22.552-15.209 24.594-11.041 2.042-22.261 29.386-12.644 36.577 9.616 7.191 23.392 13.529 25.975 30.752 2.065 13.778 3.3 27.887 6.357 28.952" stroke="url(#e)"/><g filter="url(#f)"><path d="M210.994 167.31c-4.223 4.631-4.138 22.535-3.997 36.057.176 16.903-4.119 29.411-15.027 32.073-10.908 2.663-21.992 38.322-12.491 47.7 9.5 9.378 23.111 17.643 25.662 40.104 2.041 17.968 3.261 36.367 6.281 37.756" stroke="url(#g)" stroke-width="50"/></g><path d="M211.567 214.222c.157 11.446-3.162 20.445-12.917 22.248-9.755 1.803-19.667 25.949-11.171 32.299 8.496 6.35 21.806 16.957 24.088 32.165" stroke="url(#h)"/><path d="M211.566 231.159c-1.011 4.343-4.912 7.383-7.703 8.343-8.637 2.968-18.103 23.912-10.283 29.764 7.821 5.852 12.351 7.348 17.986 20.811" stroke="url(#i)"/><path d="M212 238.398c-.755 3.265-3.668 5.55-5.752 6.271-6.449 2.233-13.518 17.979-7.678 22.379 5.839 4.399 9.222 5.524 13.43 15.646" stroke="url(#j)"/><path d="M211.422 245.057c-.532 2.304-2.582 3.918-4.048 4.427-4.538 1.575-9.513 12.691-5.403 15.796 4.109 3.106 6.49 3.9 9.451 11.045" stroke="url(#k)"/><path d="M212 250.268c-.35 1.515-1.698 2.576-2.663 2.91-2.986 1.036-6.258 8.343-3.555 10.385 2.704 2.042 4.27 2.564 6.218 7.261" stroke="url(#l)"/><defs><linearGradient id="a" x1="149" y1="250.268" x2="211.567" y2="250.268" gradientUnits="userSpaceOnUse"><stop stop-color="#E3255E"/><stop offset=".445" stop-color="#FF2323"/><stop offset="1" stop-color="#E2CC00"/></linearGradient><linearGradient id="b" x1="156.514" y1="251.788" x2="211.711" y2="251.788" gradientUnits="userSpaceOnUse"><stop stop-color="#E3255E"/><stop offset=".445" stop-color="#FF2323"/><stop offset="1" stop-color="#E2CC00"/></linearGradient><linearGradient id="c" x1="162.583" y1="254.176" x2="211.711" y2="254.176" gradientUnits="userSpaceOnUse"><stop stop-color="#E3255E"/><stop offset=".445" stop-color="#FF2323"/><stop offset="1" stop-color="#E2CC00"/></linearGradient><linearGradient id="d" x1="169.229" y1="255.696" x2="211.711" y2="255.696" gradientUnits="userSpaceOnUse"><stop stop-color="#E3255E"/><stop offset=".445" stop-color="#FF2323"/><stop offset="1" stop-color="#E2CC00"/></linearGradient><linearGradient id="e" x1="175.876" y1="255.914" x2="211.855" y2="255.914" gradientUnits="userSpaceOnUse"><stop stop-color="#E3255E"/><stop offset=".445" stop-color="#FF2323"/><stop offset="1" stop-color="#E2CC00"/></linearGradient><linearGradient id="g" x1="175.876" y1="264.155" x2="211.422" y2="264.155" gradientUnits="userSpaceOnUse"><stop stop-color="#E3255E"/><stop offset=".445" stop-color="#FF2323"/><stop offset="1" stop-color="#E2CC00"/></linearGradient><linearGradient id="h" x1="184.257" y1="257.578" x2="211.572" y2="257.578" gradientUnits="userSpaceOnUse"><stop stop-color="#E3255E"/><stop offset=".445" stop-color="#FF2323"/><stop offset="1" stop-color="#E2CC00"/></linearGradient><linearGradient id="i" x1="190.667" y1="260.618" x2="211.566" y2="260.618" gradientUnits="userSpaceOnUse"><stop stop-color="#E3255E"/><stop offset=".445" stop-color="#FF2323"/><stop offset="1" stop-color="#E2CC00"/></linearGradient><linearGradient id="j" x1="196.395" y1="260.546" x2="212" y2="260.546" gradientUnits="userSpaceOnUse"><stop stop-color="#E3255E"/><stop offset=".445" stop-color="#FF2323"/><stop offset="1" stop-color="#E2CC00"/></linearGradient><linearGradient id="k" x1="200.44" y1="260.691" x2="211.422" y2="260.691" gradientUnits="userSpaceOnUse"><stop stop-color="#E3255E"/><stop offset=".445" stop-color="#FF2323"/><stop offset="1" stop-color="#E2CC00"/></linearGradient><linearGradient id="l" x1="204.775" y1="260.546" x2="212" y2="260.546" gradientUnits="userSpaceOnUse"><stop stop-color="#E3255E"/><stop offset=".445" stop-color="#FF2323"/><stop offset="1" stop-color="#E2CC00"/></linearGradient><filter id="f" x=".876" y=".466" width="382.803" height="533.246" filterUnits="userSpaceOnUse" color-interpolation-filters="sRGB"><feFlood flood-opacity="0" result="BackgroundImageFix"/><feBlend in="SourceGraphic" in2="BackgroundImageFix" result="shape"/><feGaussianBlur stdDeviation="75" result="effect1_foregroundBlur_299_2018"/></filter></defs></svg>