<svg width="236" height="220" fill="none" xmlns="http://www.w3.org/2000/svg"><path d="M-.256 0C8.66 5.938 27.73 22.297 27.434 39.636c-.373 21.673-4.46 34.44 18.577 37.854 23.037 3.414 46.445 49.136 26.38 61.16-20.063 12.025-42.729 18.408-48.116 47.207C19.965 208.896 5.936 218.219-.442 220" stroke="url(#a)"/><path d="M-.628 6.235c8.464 5.629 21.355 23.223 21.072 39.66-.352 20.547-4.232 32.65 17.634 35.887 21.866 3.237 44.084 46.581 25.04 57.981-19.044 11.399-40.558 17.45-45.671 44.752-4.091 21.841-12.02 30.679-18.075 32.368" stroke="url(#b)"/><path d="M-.628 17.665c7.534 5.015 15.67 20.986 15.42 35.628-.314 18.302-.431 28.784 19.03 31.667 19.462 2.884 39.238 41.494 22.287 51.648-16.95 10.154-36.098 15.544-40.65 39.863-3.64 19.456-10.513 32.376-15.901 33.88" stroke="url(#c)"/><path d="M-.628 27.908C5.887 32.235 9.807 48.378 9.59 61.012c-.271 15.793 2.743 25.592 19.572 28.08 16.829 2.488 33.929 35.803 19.272 44.565-14.658 8.761-33.05 13.847-36.986 34.832C8.3 185.276 4.032 201.927-.628 203.225" stroke="url(#d)"/><path d="M-.257 39.636c5.496 3.641 5.385 17.72 5.202 28.353-.229 13.292 5.36 23.127 19.555 25.221 14.196 2.094 28.62 30.134 16.257 37.508-12.364 7.375-30.077 13.874-33.397 31.536-2.655 14.129-4.243 28.597-8.174 29.689" stroke="url(#e)"/><g filter="url(#f)"><path d="M.294 14.696c5.429 4.75 5.32 23.109 5.14 36.976-.227 17.334 5.294 30.16 19.319 32.89 14.024 2.73 28.275 39.298 16.06 48.915-12.215 9.616-29.714 18.092-32.994 41.125-2.624 18.426-4.192 37.293-8.076 38.718" stroke="url(#g)" stroke-width="80"/></g><path d="M-.442 73.037C-.644 84.774 3.623 94.002 16.165 95.85c12.542 1.849 25.287 26.61 14.363 33.121-10.924 6.512-28.037 17.389-30.97 32.985" stroke="url(#h)"/><path d="M-.442 90.405c1.3 4.453 6.317 7.57 9.905 8.554 11.104 3.045 23.275 24.522 13.22 30.523-10.055 6.001-15.88 7.535-23.125 21.341" stroke="url(#i)"/><path d="M-1 97.827c.971 3.349 4.717 5.692 7.396 6.432 8.292 2.289 17.38 18.436 9.872 22.948C8.76 131.719 4.41 132.873-1 143.252" stroke="url(#j)"/><path d="M-.256 104.656c.683 2.363 3.319 4.018 5.204 4.54 5.835 1.616 12.23 13.014 6.947 16.199-5.284 3.184-8.344 3.999-12.151 11.326" stroke="url(#k)"/><path d="M-1 110c.45 1.554 2.184 2.641 3.425 2.985 3.838 1.062 8.046 8.555 4.57 10.649-3.476 2.093-5.49 2.629-7.994 7.446" stroke="url(#l)"/><defs><linearGradient id="a" x1="80.001" y1="110" x2="-.442" y2="110" gradientUnits="userSpaceOnUse"><stop stop-color="#E3255E"/><stop offset=".445" stop-color="#FF2323"/><stop offset="1" stop-color="#E2CC00"/></linearGradient><linearGradient id="b" x1="70.34" y1="111.559" x2="-.628" y2="111.559" gradientUnits="userSpaceOnUse"><stop stop-color="#E3255E"/><stop offset=".445" stop-color="#FF2323"/><stop offset="1" stop-color="#E2CC00"/></linearGradient><linearGradient id="c" x1="62.537" y1="114.008" x2="-.628" y2="114.008" gradientUnits="userSpaceOnUse"><stop stop-color="#E3255E"/><stop offset=".445" stop-color="#FF2323"/><stop offset="1" stop-color="#E2CC00"/></linearGradient><linearGradient id="d" x1="53.992" y1="115.567" x2="-.628" y2="115.567" gradientUnits="userSpaceOnUse"><stop stop-color="#E3255E"/><stop offset=".445" stop-color="#FF2323"/><stop offset="1" stop-color="#E2CC00"/></linearGradient><linearGradient id="e" x1="45.445" y1="115.79" x2="-.814" y2="115.79" gradientUnits="userSpaceOnUse"><stop stop-color="#E3255E"/><stop offset=".445" stop-color="#FF2323"/><stop offset="1" stop-color="#E2CC00"/></linearGradient><linearGradient id="g" x1="45.445" y1="114.008" x2="-.257" y2="114.008" gradientUnits="userSpaceOnUse"><stop stop-color="#E3255E"/><stop offset=".445" stop-color="#FF2323"/><stop offset="1" stop-color="#E2CC00"/></linearGradient><linearGradient id="h" x1="34.67" y1="117.497" x2="-.449" y2="117.497" gradientUnits="userSpaceOnUse"><stop stop-color="#E3255E"/><stop offset=".445" stop-color="#FF2323"/><stop offset="1" stop-color="#E2CC00"/></linearGradient><linearGradient id="i" x1="26.428" y1="120.614" x2="-.442" y2="120.614" gradientUnits="userSpaceOnUse"><stop stop-color="#E3255E"/><stop offset=".445" stop-color="#FF2323"/><stop offset="1" stop-color="#E2CC00"/></linearGradient><linearGradient id="j" x1="19.064" y1="120.54" x2="-1" y2="120.54" gradientUnits="userSpaceOnUse"><stop stop-color="#E3255E"/><stop offset=".445" stop-color="#FF2323"/><stop offset="1" stop-color="#E2CC00"/></linearGradient><linearGradient id="k" x1="13.863" y1="120.688" x2="-.256" y2="120.688" gradientUnits="userSpaceOnUse"><stop stop-color="#E3255E"/><stop offset=".445" stop-color="#FF2323"/><stop offset="1" stop-color="#E2CC00"/></linearGradient><linearGradient id="l" x1="8.29" y1="120.54" x2="-.999" y2="120.54" gradientUnits="userSpaceOnUse"><stop stop-color="#E3255E"/><stop offset=".445" stop-color="#FF2323"/><stop offset="1" stop-color="#E2CC00"/></linearGradient><filter id="f" x="-185.844" y="-165.41" width="421.29" height="566.282" filterUnits="userSpaceOnUse" color-interpolation-filters="sRGB"><feFlood flood-opacity="0" result="BackgroundImageFix"/><feBlend in="SourceGraphic" in2="BackgroundImageFix" result="shape"/><feGaussianBlur stdDeviation="75" result="effect1_foregroundBlur_675_445"/></filter></defs></svg>