<svg width="236" height="220" fill="none" xmlns="http://www.w3.org/2000/svg"><path d="M236.257 0c-8.918 5.938-27.987 22.297-27.69 39.636.372 21.673 4.459 34.44-18.578 37.854-23.036 3.414-46.445 49.136-26.38 61.16 20.064 12.025 42.729 18.408 48.117 47.207 4.31 23.039 18.338 32.362 24.717 34.143" stroke="url(#a)"/><path d="M236.629 6.235c-8.465 5.629-21.355 23.223-21.073 39.66.353 20.547 4.232 32.65-17.634 35.887-21.865 3.237-44.084 46.581-25.039 57.981 19.044 11.399 40.557 17.45 45.671 44.752 4.091 21.841 12.02 30.679 18.075 32.368" stroke="url(#b)"/><path d="M236.629 17.665c-7.534 5.015-15.671 20.986-15.42 35.628.314 18.302.431 28.784-19.031 31.667-19.462 2.884-39.237 41.494-22.287 51.648 16.951 10.154 36.099 15.544 40.65 39.863 3.641 19.456 10.513 32.376 15.902 33.88" stroke="url(#c)"/><path d="M236.628 27.908c-6.514 4.327-10.435 20.47-10.218 33.104.272 15.793-2.743 25.592-19.571 28.08-16.829 2.488-33.929 35.803-19.272 44.565 14.657 8.761 33.05 13.847 36.985 34.832 3.149 16.787 7.417 33.438 12.076 34.736" stroke="url(#d)"/><path d="M236.257 39.636c-5.495 3.641-5.385 17.72-5.202 28.353.229 13.292-5.359 23.127-19.555 25.221-14.196 2.094-28.62 30.134-16.256 37.508 12.364 7.375 30.076 13.874 33.396 31.536 2.656 14.129 4.244 28.597 8.174 29.689" stroke="url(#e)"/><g filter="url(#f)"><path d="M235.706 14.696c-5.428 4.75-5.32 23.109-5.139 36.976.226 17.334-5.295 30.16-19.319 32.89-14.025 2.73-28.276 39.298-16.061 48.915 12.215 9.616 29.714 18.092 32.994 41.125 2.624 18.426 4.193 37.293 8.076 38.718" stroke="url(#g)" stroke-width="80"/></g><path d="M236.442 73.037c.203 11.737-4.064 20.965-16.606 22.814-12.543 1.849-25.287 26.61-14.363 33.121 10.924 6.512 28.036 17.389 30.969 32.985" stroke="url(#h)"/><path d="M236.442 90.405c-1.3 4.453-6.316 7.57-9.904 8.554-11.105 3.045-23.276 24.522-13.221 30.523 10.055 6.001 15.88 7.535 23.125 21.341" stroke="url(#i)"/><path d="M237 97.827c-.971 3.349-4.716 5.692-7.396 6.432-8.291 2.289-17.38 18.436-9.871 22.948 7.508 4.512 11.857 5.666 17.267 16.045" stroke="url(#j)"/><path d="M236.257 104.656c-.683 2.363-3.319 4.018-5.205 4.54-5.835 1.616-12.23 13.014-6.946 16.199 5.283 3.184 8.344 3.999 12.151 11.326" stroke="url(#k)"/><path d="M237 110c-.45 1.554-2.184 2.641-3.424 2.985-3.839 1.062-8.046 8.555-4.57 10.649 3.476 2.093 5.489 2.629 7.994 7.446" stroke="url(#l)"/><defs><linearGradient id="a" x1="156" y1="110" x2="236.443" y2="110" gradientUnits="userSpaceOnUse"><stop stop-color="#E3255E"/><stop offset=".445" stop-color="#FF2323"/><stop offset="1" stop-color="#E2CC00"/></linearGradient><linearGradient id="b" x1="165.661" y1="111.559" x2="236.629" y2="111.559" gradientUnits="userSpaceOnUse"><stop stop-color="#E3255E"/><stop offset=".445" stop-color="#FF2323"/><stop offset="1" stop-color="#E2CC00"/></linearGradient><linearGradient id="c" x1="173.463" y1="114.008" x2="236.629" y2="114.008" gradientUnits="userSpaceOnUse"><stop stop-color="#E3255E"/><stop offset=".445" stop-color="#FF2323"/><stop offset="1" stop-color="#E2CC00"/></linearGradient><linearGradient id="d" x1="182.009" y1="115.567" x2="236.628" y2="115.567" gradientUnits="userSpaceOnUse"><stop stop-color="#E3255E"/><stop offset=".445" stop-color="#FF2323"/><stop offset="1" stop-color="#E2CC00"/></linearGradient><linearGradient id="e" x1="190.555" y1="115.79" x2="236.814" y2="115.79" gradientUnits="userSpaceOnUse"><stop stop-color="#E3255E"/><stop offset=".445" stop-color="#FF2323"/><stop offset="1" stop-color="#E2CC00"/></linearGradient><linearGradient id="g" x1="190.555" y1="114.008" x2="236.257" y2="114.008" gradientUnits="userSpaceOnUse"><stop stop-color="#E3255E"/><stop offset=".445" stop-color="#FF2323"/><stop offset="1" stop-color="#E2CC00"/></linearGradient><linearGradient id="h" x1="201.33" y1="117.497" x2="236.449" y2="117.497" gradientUnits="userSpaceOnUse"><stop stop-color="#E3255E"/><stop offset=".445" stop-color="#FF2323"/><stop offset="1" stop-color="#E2CC00"/></linearGradient><linearGradient id="i" x1="209.572" y1="120.614" x2="236.442" y2="120.614" gradientUnits="userSpaceOnUse"><stop stop-color="#E3255E"/><stop offset=".445" stop-color="#FF2323"/><stop offset="1" stop-color="#E2CC00"/></linearGradient><linearGradient id="j" x1="216.936" y1="120.54" x2="237" y2="120.54" gradientUnits="userSpaceOnUse"><stop stop-color="#E3255E"/><stop offset=".445" stop-color="#FF2323"/><stop offset="1" stop-color="#E2CC00"/></linearGradient><linearGradient id="k" x1="222.138" y1="120.688" x2="236.257" y2="120.688" gradientUnits="userSpaceOnUse"><stop stop-color="#E3255E"/><stop offset=".445" stop-color="#FF2323"/><stop offset="1" stop-color="#E2CC00"/></linearGradient><linearGradient id="l" x1="227.711" y1="120.54" x2="237" y2="120.54" gradientUnits="userSpaceOnUse"><stop stop-color="#E3255E"/><stop offset=".445" stop-color="#FF2323"/><stop offset="1" stop-color="#E2CC00"/></linearGradient><filter id="f" x=".555" y="-165.41" width="421.29" height="566.282" filterUnits="userSpaceOnUse" color-interpolation-filters="sRGB"><feFlood flood-opacity="0" result="BackgroundImageFix"/><feBlend in="SourceGraphic" in2="BackgroundImageFix" result="shape"/><feGaussianBlur stdDeviation="75" result="effect1_foregroundBlur_675_457"/></filter></defs></svg>